<svg width="23" height="23" viewBox="0 0 23 23" fill="none" xmlns="http://www.w3.org/2000/svg">
<path d="M13.698 20.5325L13.6228 14.0237C13.6555 13.7748 13.8545 13.5478 14.1149 13.4976L20.6387 13.4266C20.8882 13.4594 21.0872 13.2323 21.1308 12.9004L21.1007 9.26722C21.1335 9.01832 20.9058 8.81959 20.5731 8.77587L14.0493 8.84688C13.7998 8.81408 13.5721 8.61536 13.5217 8.35553L13.4464 1.84671C13.4792 1.59781 13.2515 1.39908 12.9188 1.35536L9.2772 1.38317C9.0277 1.35038 8.82866 1.57742 8.78504 1.9093L8.86028 8.41811C8.82756 8.66701 8.62852 8.89406 8.36811 8.94423L1.84431 9.01526C1.59481 8.98247 1.39577 9.20951 1.35215 9.54138L1.38225 13.1746C1.34953 13.4235 1.57723 13.6222 1.9099 13.666L8.4337 13.5949C8.6832 13.6277 8.9109 13.8265 8.96136 14.0863L9.03654 20.5951C9.00383 20.844 9.23153 21.0427 9.5642 21.0865L13.2058 21.0587C13.4662 21.0085 13.6652 20.7814 13.698 20.5325Z" fill="#FDD08D"/>
</svg>
