<svg width="26" height="26" viewBox="0 0 26 26" fill="none" xmlns="http://www.w3.org/2000/svg">
<path d="M13.1932 22.4939L14.5764 16.1333C14.664 15.898 14.9088 15.7212 15.1738 15.7306L21.548 17.1212C21.7839 17.209 22.0287 17.0322 22.1455 16.7185L22.9291 13.1707C23.0167 12.9354 22.8392 12.6908 22.5248 12.5737L16.1505 11.1831C15.9147 11.0953 15.7373 10.8507 15.7462 10.5862L17.1294 4.22558C17.217 3.9903 17.0395 3.74566 16.725 3.62861L13.1696 2.84085C12.9337 2.75307 12.6889 2.92981 12.5722 3.24351L11.189 9.60411C11.1015 9.83939 10.8567 10.0161 10.5916 10.0068L4.21735 8.61618C3.98152 8.5284 3.73672 8.70514 3.61994 9.01884L2.83628 12.5667C2.7487 12.8019 2.92616 13.0466 3.24061 13.1636L9.61488 14.5542C9.85071 14.642 10.0282 14.8867 10.0192 15.1512L8.63603 21.5118C8.54845 21.7471 8.72591 21.9917 9.04036 22.1088L12.5958 22.8965C12.8609 22.9059 13.1057 22.7291 13.1932 22.4939Z" fill="#FDD08D"/>
</svg>
