<svg width="19" height="19" viewBox="0 0 19 19" fill="none" xmlns="http://www.w3.org/2000/svg">
<path d="M10.9234 16.7979L11.0907 11.5932C11.1255 11.3954 11.2925 11.2209 11.5024 11.1899L16.7189 11.361C16.9172 11.396 17.0842 11.2215 17.1307 10.9577L17.2335 8.05288C17.2684 7.85509 17.0933 7.6883 16.829 7.64174L11.6124 7.47056C11.4142 7.43563 11.2392 7.26885 11.2079 7.05942L11.3752 1.85471C11.41 1.65692 11.235 1.49013 10.9707 1.44356L8.05919 1.33856C7.86092 1.30363 7.69391 1.47814 7.64745 1.74186L7.48017 6.94657C7.44533 7.14436 7.27831 7.31887 7.06844 7.34988L1.85189 7.17871C1.65363 7.14378 1.48661 7.31829 1.44016 7.58201L1.33727 10.4869C1.30243 10.6847 1.47747 10.8515 1.74183 10.898L6.95837 11.0692C7.15663 11.1041 7.33168 11.2709 7.36292 11.4803L7.19561 16.685C7.16076 16.8828 7.33581 17.0496 7.60016 17.0962L10.5116 17.2012C10.7215 17.1702 10.8885 16.9957 10.9234 16.7979Z" fill="#FDD08D"/>
</svg>
