<svg width="1366" height="250" viewBox="0 0 1366 250" fill="none" xmlns="http://www.w3.org/2000/svg">
<mask id="mask0" mask-type="alpha" maskUnits="userSpaceOnUse" x="0" y="0" width="1366" height="250">
<rect width="1366" height="250" fill="#C4C4C4"/>
</mask>
<g mask="url(#mask0)">
<rect y="-111" width="1366" height="471" fill="url(#paint0_linear)"/>
<path d="M-72 97C-3 77.5 148.7 46.3 203.5 77.5C258.3 108.7 320.333 231.167 344.5 288.5L827 275C751.833 232.667 600.1 133.9 594.5 77.5C588.9 21.1 684.5 -60 733 -93.5L967 -69.5C970.167 -45.1667 986.1 10.9 1024.5 40.5C1062.9 70.1 1306.5 -9.16667 1423.5 -52.5L1438 344C1393.5 279.333 1290.1 148.6 1232.5 143C1174.9 137.4 1002.83 215.667 924 255.5" stroke="white" stroke-opacity="0.15" stroke-width="15"/>
<circle cx="88" cy="23" r="9" fill="white" fill-opacity="0.2"/>
<circle cx="480" cy="115" r="9" fill="white" fill-opacity="0.2"/>
<circle cx="602" cy="250" r="9" fill="white" fill-opacity="0.2"/>
<circle cx="845" cy="35" r="9" fill="white" fill-opacity="0.2"/>
<circle cx="1193" cy="200" r="9" fill="white" fill-opacity="0.2"/>
<circle cx="1366" cy="116" r="9" fill="white" fill-opacity="0.2"/>
<circle cx="240" cy="250" r="17" stroke="white" stroke-opacity="0.6" stroke-width="8"/>
<circle cx="11" cy="170" r="17" stroke="white" stroke-opacity="0.6" stroke-width="8"/>
<circle cx="382" r="17" stroke="white" stroke-opacity="0.6" stroke-width="8"/>
<circle cx="877" cy="221" r="17" stroke="white" stroke-opacity="0.6" stroke-width="8"/>
<circle cx="1267" cy="71" r="17" stroke="white" stroke-opacity="0.6" stroke-width="8"/>
</g>
<path d="M547.582 83.028C549.65 81.488 550.706 79.42 550.706 76.736C550.706 74.316 549.826 72.292 548.066 70.664C546.35 69.036 544.194 68.2 541.686 68.2H529.454V99H542.654C545.25 99 547.406 98.164 549.21 96.492C551.014 94.82 551.894 92.708 551.894 90.2C551.894 86.988 550.266 84.436 547.582 83.028ZM541.686 72.952C543.93 72.952 545.646 74.712 545.646 77C545.646 79.288 543.93 81.048 541.686 81.048H534.514V72.952H541.686ZM534.514 94.248V85.624H542.654C544.986 85.624 546.834 87.516 546.834 89.936C546.834 92.356 544.986 94.248 542.654 94.248H534.514ZM562.514 99V66.88H557.762V99H562.514ZM580.175 99.572C583.431 99.572 586.159 98.472 588.403 96.228C590.647 93.984 591.791 91.256 591.791 88C591.791 84.744 590.647 82.016 588.403 79.772C586.159 77.528 583.431 76.428 580.175 76.428C576.963 76.428 574.191 77.528 571.947 79.772C569.703 82.016 568.559 84.744 568.559 88C568.559 91.256 569.703 93.984 571.947 96.228C574.191 98.472 576.963 99.572 580.175 99.572ZM575.291 92.972C573.971 91.652 573.311 89.98 573.311 88C573.311 86.02 573.971 84.348 575.291 83.028C576.611 81.708 578.239 81.048 580.175 81.048C582.111 81.048 583.739 81.708 585.059 83.028C586.379 84.348 587.039 86.02 587.039 88C587.039 89.98 586.379 91.652 585.059 92.972C583.739 94.292 582.111 94.952 580.175 94.952C578.239 94.952 576.611 94.292 575.291 92.972ZM615.36 80.256C613.556 77.704 611.004 76.428 607.704 76.428C604.58 76.428 601.984 77.528 599.828 79.772C597.672 81.972 596.616 84.656 596.616 87.78C596.616 90.904 597.672 93.588 599.828 95.832C601.984 98.032 604.58 99.132 607.704 99.132C611.004 99.132 613.556 97.856 615.36 95.304V97.988C615.36 101.816 612.896 104.06 608.804 104.06C605.68 104.06 603.524 102.916 602.38 100.672L598.288 103.048C600.18 106.612 603.656 108.372 608.716 108.372C611.84 108.372 614.524 107.492 616.724 105.688C618.924 103.884 620.024 101.332 620.024 97.988V77H615.36V80.256ZM603.348 92.708C602.028 91.388 601.368 89.76 601.368 87.78C601.368 85.8 602.028 84.172 603.348 82.852C604.712 81.532 606.384 80.872 608.364 80.872C610.344 80.872 612.016 81.532 613.336 82.852C614.7 84.172 615.36 85.8 615.36 87.78C615.36 89.76 614.7 91.388 613.336 92.708C612.016 94.028 610.344 94.688 608.364 94.688C606.384 94.688 604.712 94.028 603.348 92.708ZM665.911 99L654.779 68.2H648.707L637.531 99H643.031L645.187 92.796H658.299L660.455 99H665.911ZM651.743 74.14L656.627 88.044H646.859L651.743 74.14ZM681.516 67.628C675.004 67.232 671.572 70.532 671.572 76.56V77H668.228V81.576H671.572V99H676.324V81.576H681.516V77H676.324V76.56C676.324 73.348 678.04 71.896 681.516 72.204V67.628ZM690.808 77H686.056V99H690.808V87.912C690.808 85.668 691.468 84.04 692.832 83.072C694.196 82.06 695.78 81.62 697.584 81.752V76.604C694.284 76.604 691.996 77.968 690.808 80.696V77ZM707.343 72.82C708.575 71.588 708.575 69.74 707.387 68.552C706.199 67.32 704.263 67.32 703.075 68.552C701.887 69.74 701.887 71.588 703.075 72.82C704.307 74.008 706.155 74.008 707.343 72.82ZM707.607 99V77H702.855V99H707.607ZM732.309 80.124C730.505 77.66 727.953 76.428 724.609 76.428C721.573 76.428 719.021 77.528 716.865 79.772C714.709 82.016 713.653 84.744 713.653 88C713.653 91.212 714.709 93.984 716.865 96.228C719.021 98.472 721.573 99.572 724.609 99.572C727.953 99.572 730.505 98.34 732.309 95.832V99H737.061V77H732.309V80.124ZM720.385 93.06C719.065 91.696 718.405 90.024 718.405 88C718.405 85.976 719.065 84.304 720.385 82.984C721.705 81.62 723.377 80.96 725.357 80.96C727.337 80.96 729.009 81.62 730.329 82.984C731.649 84.304 732.309 85.976 732.309 88C732.309 90.024 731.649 91.696 730.329 93.06C729.009 94.38 727.337 95.04 725.357 95.04C723.377 95.04 721.705 94.38 720.385 93.06ZM755.932 76.428C752.808 76.428 750.564 77.572 749.112 79.816V77H744.36V99H749.112V87.208C749.112 82.94 751.356 80.872 754.7 80.872C757.736 80.872 759.628 82.676 759.628 85.976V99H764.38V85.492C764.38 79.86 760.992 76.428 755.932 76.428ZM775.524 83.072C775.524 81.532 776.932 80.74 778.736 80.74C780.716 80.74 782.124 81.576 782.872 83.248L786.876 81.004C785.336 78.144 782.388 76.428 778.736 76.428C776.448 76.428 774.512 77.044 772.972 78.276C771.432 79.508 770.684 81.136 770.684 83.16C770.596 87.78 775.04 89.1 778.34 89.936C780.672 90.508 782.52 91.344 782.52 92.752C782.52 94.38 781.288 95.216 778.78 95.216C776.272 95.216 774.644 94.16 773.896 92.048L769.804 94.424C771.212 97.636 774.424 99.572 778.78 99.572C781.244 99.572 783.268 98.956 784.896 97.768C786.524 96.58 787.36 94.908 787.36 92.796C787.448 88.088 783.048 86.68 779.66 85.932C777.372 85.272 775.524 84.524 775.524 83.072ZM802.456 87.78L812.136 77H806.328L797.792 86.724V68.2H793.04V99H797.792V88.836L806.812 99H812.488L802.456 87.78ZM833.107 80.124C831.303 77.66 828.751 76.428 825.407 76.428C822.371 76.428 819.819 77.528 817.663 79.772C815.507 82.016 814.451 84.744 814.451 88C814.451 91.212 815.507 93.984 817.663 96.228C819.819 98.472 822.371 99.572 825.407 99.572C828.751 99.572 831.303 98.34 833.107 95.832V99H837.859V77H833.107V80.124ZM821.183 93.06C819.863 91.696 819.203 90.024 819.203 88C819.203 85.976 819.863 84.304 821.183 82.984C822.503 81.62 824.175 80.96 826.155 80.96C828.135 80.96 829.807 81.62 831.127 82.984C832.447 84.304 833.107 85.976 833.107 88C833.107 90.024 832.447 91.696 831.127 93.06C829.807 94.38 828.135 95.04 826.155 95.04C824.175 95.04 822.503 94.38 821.183 93.06Z" fill="white"/>
<path d="M331.575 147H330.175V161H337.975V159.68H331.575V147ZM348.451 159.74C349.471 158.72 349.991 157.48 349.991 156C349.991 154.52 349.471 153.28 348.451 152.28C347.431 151.26 346.191 150.76 344.731 150.76C343.271 150.76 342.011 151.26 340.991 152.28C339.971 153.28 339.471 154.52 339.471 156C339.471 157.48 339.971 158.72 340.991 159.74C342.011 160.74 343.271 161.24 344.731 161.24C346.191 161.24 347.431 160.74 348.451 159.74ZM341.931 158.82C341.171 158.04 340.791 157.1 340.791 156C340.791 154.9 341.171 153.96 341.931 153.2C342.691 152.42 343.631 152.04 344.731 152.04C345.831 152.04 346.771 152.42 347.531 153.2C348.291 153.96 348.671 154.9 348.671 156C348.671 157.1 348.291 158.04 347.531 158.82C346.771 159.58 345.831 159.96 344.731 159.96C343.631 159.96 342.691 159.58 341.931 158.82ZM354.32 151H353V161H354.32V155.44C354.32 153.14 355.66 152.12 357.48 152.12V150.84C355.98 150.84 354.94 151.44 354.32 152.66V151ZM364.104 150.76C362.564 150.76 361.324 151.26 360.344 152.26C359.364 153.26 358.884 154.5 358.884 156C358.884 157.52 359.384 158.78 360.364 159.76C361.344 160.74 362.624 161.24 364.204 161.24C366.144 161.24 367.724 160.36 368.604 158.94L367.444 158.26C366.884 159.28 365.744 159.96 364.224 159.96C362.084 159.96 360.504 158.68 360.244 156.66H369.024C369.044 156.4 369.064 156.18 369.064 156.04C369.064 154.62 368.604 153.38 367.684 152.34C366.784 151.28 365.584 150.76 364.104 150.76ZM364.104 152.04C365.004 152.04 365.804 152.34 366.484 152.92C367.164 153.5 367.564 154.32 367.704 155.38H360.244C360.504 153.4 362.024 152.04 364.104 152.04ZM382.624 150.76C381.184 150.76 380.104 151.36 379.384 152.58C378.804 151.36 377.784 150.76 376.344 150.76C375.024 150.76 374.004 151.32 373.284 152.46V151H371.964V161H373.284V155.46C373.284 153.14 374.564 152.04 376.164 152.04C377.604 152.04 378.504 153 378.504 154.76V161H379.824V155.46C379.824 153.12 380.944 152.04 382.604 152.04C384.064 152.04 385.044 153.02 385.044 154.76V161H386.364V154.76C386.364 152.3 384.864 150.76 382.624 150.76ZM396.857 148.6C397.237 148.22 397.237 147.62 396.857 147.24C396.477 146.86 395.877 146.86 395.497 147.24C395.117 147.62 395.117 148.22 395.497 148.6C395.877 148.98 396.477 148.98 396.857 148.6ZM396.837 161V151H395.517V161H396.837ZM405.798 150.76C404.018 150.76 402.678 151.5 401.758 152.96V151H400.438V165H401.758V159.04C402.678 160.5 404.018 161.24 405.798 161.24C407.218 161.24 408.438 160.74 409.438 159.72C410.458 158.7 410.958 157.46 410.958 156C410.958 154.54 410.458 153.3 409.438 152.28C408.438 151.26 407.218 150.76 405.798 150.76ZM402.898 158.82C402.138 158.04 401.758 157.1 401.758 156C401.758 154.9 402.138 153.96 402.898 153.2C403.658 152.42 404.598 152.04 405.698 152.04C406.798 152.04 407.738 152.42 408.498 153.2C409.258 153.96 409.638 154.9 409.638 156C409.638 157.1 409.258 158.04 408.498 158.82C407.738 159.58 406.798 159.96 405.698 159.96C404.598 159.96 403.658 159.58 402.898 158.82ZM414.797 153.62C414.797 152.6 415.757 152.04 416.897 152.04C418.117 152.04 418.917 152.5 419.297 153.44L420.397 152.8C419.817 151.54 418.517 150.76 416.897 150.76C415.917 150.76 415.097 151.04 414.437 151.58C413.797 152.12 413.477 152.8 413.477 153.62C413.477 155.78 415.577 156.24 417.257 156.66C418.397 156.96 419.317 157.46 419.317 158.36C419.317 159.46 418.317 159.96 417.017 159.96C415.677 159.96 414.657 159.32 414.277 158.28L413.157 158.94C413.697 160.3 415.097 161.24 417.017 161.24C418.077 161.24 418.957 160.98 419.617 160.44C420.297 159.9 420.637 159.22 420.637 158.36C420.637 156.2 418.537 155.74 416.857 155.32C415.717 155.02 414.797 154.52 414.797 153.62ZM430.582 156.24C430.582 158.78 429.262 159.96 427.342 159.96C425.602 159.96 424.622 158.92 424.622 157.14V151H423.302V157.14C423.302 159.64 424.802 161.24 427.222 161.24C428.722 161.24 429.842 160.64 430.582 159.44V161H431.902V151H430.582V156.24ZM446.154 150.76C444.714 150.76 443.634 151.36 442.914 152.58C442.334 151.36 441.314 150.76 439.874 150.76C438.554 150.76 437.534 151.32 436.814 152.46V151H435.494V161H436.814V155.46C436.814 153.14 438.094 152.04 439.694 152.04C441.134 152.04 442.034 153 442.034 154.76V161H443.354V155.46C443.354 153.12 444.474 152.04 446.134 152.04C447.594 152.04 448.574 153.02 448.574 154.76V161H449.894V154.76C449.894 152.3 448.394 150.76 446.154 150.76ZM467.647 152.96C466.727 151.5 465.387 150.76 463.607 150.76C462.187 150.76 460.967 151.26 459.947 152.28C458.947 153.3 458.447 154.54 458.447 156C458.447 157.46 458.947 158.7 459.947 159.72C460.967 160.74 462.187 161.24 463.607 161.24C465.387 161.24 466.727 160.5 467.647 159.04V161H468.967V147H467.647V152.96ZM460.907 158.82C460.147 158.04 459.767 157.1 459.767 156C459.767 154.9 460.147 153.96 460.907 153.2C461.667 152.42 462.607 152.04 463.707 152.04C464.807 152.04 465.747 152.42 466.507 153.2C467.267 153.96 467.647 154.9 467.647 156C467.647 157.1 467.267 158.04 466.507 158.82C465.747 159.58 464.807 159.96 463.707 159.96C462.607 159.96 461.667 159.58 460.907 158.82ZM480.942 159.74C481.962 158.72 482.482 157.48 482.482 156C482.482 154.52 481.962 153.28 480.942 152.28C479.922 151.26 478.682 150.76 477.222 150.76C475.762 150.76 474.502 151.26 473.482 152.28C472.462 153.28 471.962 154.52 471.962 156C471.962 157.48 472.462 158.72 473.482 159.74C474.502 160.74 475.762 161.24 477.222 161.24C478.682 161.24 479.922 160.74 480.942 159.74ZM474.422 158.82C473.662 158.04 473.282 157.1 473.282 156C473.282 154.9 473.662 153.96 474.422 153.2C475.182 152.42 476.122 152.04 477.222 152.04C478.322 152.04 479.262 152.42 480.022 153.2C480.782 153.96 481.162 154.9 481.162 156C481.162 157.1 480.782 158.04 480.022 158.82C479.262 159.58 478.322 159.96 477.222 159.96C476.122 159.96 475.182 159.58 474.422 158.82ZM486.811 161V146.4H485.491V161H486.811ZM498.792 159.74C499.812 158.72 500.332 157.48 500.332 156C500.332 154.52 499.812 153.28 498.792 152.28C497.772 151.26 496.532 150.76 495.072 150.76C493.612 150.76 492.352 151.26 491.332 152.28C490.312 153.28 489.812 154.52 489.812 156C489.812 157.48 490.312 158.72 491.332 159.74C492.352 160.74 493.612 161.24 495.072 161.24C496.532 161.24 497.772 160.74 498.792 159.74ZM492.272 158.82C491.512 158.04 491.132 157.1 491.132 156C491.132 154.9 491.512 153.96 492.272 153.2C493.032 152.42 493.972 152.04 495.072 152.04C496.172 152.04 497.112 152.42 497.872 153.2C498.632 153.96 499.012 154.9 499.012 156C499.012 157.1 498.632 158.04 497.872 158.82C497.112 159.58 496.172 159.96 495.072 159.96C493.972 159.96 493.032 159.58 492.272 158.82ZM504.661 151H503.341V161H504.661V155.44C504.661 153.14 506.001 152.12 507.821 152.12V150.84C506.321 150.84 505.281 151.44 504.661 152.66V151ZM517.27 153.62C517.27 152.6 518.23 152.04 519.37 152.04C520.59 152.04 521.39 152.5 521.77 153.44L522.87 152.8C522.29 151.54 520.99 150.76 519.37 150.76C518.39 150.76 517.57 151.04 516.91 151.58C516.27 152.12 515.95 152.8 515.95 153.62C515.95 155.78 518.05 156.24 519.73 156.66C520.87 156.96 521.79 157.46 521.79 158.36C521.79 159.46 520.79 159.96 519.49 159.96C518.15 159.96 517.13 159.32 516.75 158.28L515.63 158.94C516.17 160.3 517.57 161.24 519.49 161.24C520.55 161.24 521.43 160.98 522.09 160.44C522.77 159.9 523.11 159.22 523.11 158.36C523.11 156.2 521.01 155.74 519.33 155.32C518.19 155.02 517.27 154.52 517.27 153.62ZM527.354 148.6C527.734 148.22 527.734 147.62 527.354 147.24C526.974 146.86 526.374 146.86 525.994 147.24C525.614 147.62 525.614 148.22 525.994 148.6C526.374 148.98 526.974 148.98 527.354 148.6ZM527.334 161V151H526.014V161H527.334ZM536.236 151H533.356V148.2L532.036 148.6V151H529.936V152.28H532.036V158.34C532.036 160.66 533.436 161.42 536.236 161V159.84C534.316 159.92 533.356 160.06 533.356 158.34V152.28H536.236V151ZM553.636 152.96C552.716 151.5 551.376 150.76 549.596 150.76C548.176 150.76 546.956 151.26 545.936 152.28C544.936 153.3 544.436 154.54 544.436 156C544.436 157.46 544.936 158.7 545.936 159.72C546.956 160.74 548.176 161.24 549.596 161.24C551.376 161.24 552.716 160.5 553.636 159.04V161H554.956V151H553.636V152.96ZM546.896 158.82C546.136 158.04 545.756 157.1 545.756 156C545.756 154.9 546.136 153.96 546.896 153.2C547.656 152.42 548.596 152.04 549.696 152.04C550.796 152.04 551.736 152.42 552.496 153.2C553.256 153.96 553.636 154.9 553.636 156C553.636 157.1 553.256 158.04 552.496 158.82C551.736 159.58 550.796 159.96 549.696 159.96C548.596 159.96 547.656 159.58 546.896 158.82ZM569.21 150.76C567.77 150.76 566.69 151.36 565.97 152.58C565.39 151.36 564.37 150.76 562.93 150.76C561.61 150.76 560.59 151.32 559.87 152.46V151H558.55V161H559.87V155.46C559.87 153.14 561.15 152.04 562.75 152.04C564.19 152.04 565.09 153 565.09 154.76V161H566.41V155.46C566.41 153.12 567.53 152.04 569.19 152.04C570.65 152.04 571.63 153.02 571.63 154.76V161H572.95V154.76C572.95 152.3 571.45 150.76 569.21 150.76ZM580.924 150.76C579.384 150.76 578.144 151.26 577.164 152.26C576.184 153.26 575.704 154.5 575.704 156C575.704 157.52 576.204 158.78 577.184 159.76C578.164 160.74 579.444 161.24 581.024 161.24C582.964 161.24 584.544 160.36 585.424 158.94L584.264 158.26C583.704 159.28 582.564 159.96 581.044 159.96C578.904 159.96 577.324 158.68 577.064 156.66H585.844C585.864 156.4 585.884 156.18 585.884 156.04C585.884 154.62 585.424 153.38 584.504 152.34C583.604 151.28 582.404 150.76 580.924 150.76ZM580.924 152.04C581.824 152.04 582.624 152.34 583.304 152.92C583.984 153.5 584.384 154.32 584.524 155.38H577.064C577.324 153.4 578.844 152.04 580.924 152.04ZM593.79 151H590.91V148.2L589.59 148.6V151H587.49V152.28H589.59V158.34C589.59 160.66 590.99 161.42 593.79 161V159.84C591.87 159.92 590.91 160.06 590.91 158.34V152.28H593.79V151ZM597.39 159.3L596.59 163.8H597.79L598.99 159.3H597.39ZM612.855 161.24C614.795 161.24 616.515 160.24 617.335 158.64L616.235 158C615.575 159.2 614.355 159.96 612.855 159.96C611.755 159.96 610.815 159.58 610.055 158.82C609.295 158.04 608.915 157.1 608.915 156C608.915 154.9 609.295 153.96 610.055 153.2C610.815 152.42 611.755 152.04 612.855 152.04C614.355 152.04 615.615 152.8 616.155 154L617.235 153.38C616.515 151.78 614.835 150.76 612.855 150.76C611.355 150.76 610.095 151.26 609.095 152.28C608.095 153.28 607.595 154.52 607.595 156C607.595 157.48 608.095 158.72 609.095 159.74C610.095 160.74 611.355 161.24 612.855 161.24ZM628.312 159.74C629.332 158.72 629.852 157.48 629.852 156C629.852 154.52 629.332 153.28 628.312 152.28C627.292 151.26 626.052 150.76 624.592 150.76C623.132 150.76 621.872 151.26 620.852 152.28C619.832 153.28 619.332 154.52 619.332 156C619.332 157.48 619.832 158.72 620.852 159.74C621.872 160.74 623.132 161.24 624.592 161.24C626.052 161.24 627.292 160.74 628.312 159.74ZM621.792 158.82C621.032 158.04 620.652 157.1 620.652 156C620.652 154.9 621.032 153.96 621.792 153.2C622.552 152.42 623.492 152.04 624.592 152.04C625.692 152.04 626.632 152.42 627.392 153.2C628.152 153.96 628.532 154.9 628.532 156C628.532 157.1 628.152 158.04 627.392 158.82C626.632 159.58 625.692 159.96 624.592 159.96C623.492 159.96 622.552 159.58 621.792 158.82ZM637.541 150.76C636.041 150.76 634.921 151.36 634.181 152.56V151H632.861V161H634.181V155.76C634.181 153.22 635.501 152.04 637.421 152.04C639.161 152.04 640.141 153.08 640.141 154.86V161H641.461V154.86C641.461 152.36 639.961 150.76 637.541 150.76ZM645.854 153.62C645.854 152.6 646.814 152.04 647.954 152.04C649.174 152.04 649.974 152.5 650.354 153.44L651.454 152.8C650.874 151.54 649.574 150.76 647.954 150.76C646.974 150.76 646.154 151.04 645.494 151.58C644.854 152.12 644.534 152.8 644.534 153.62C644.534 155.78 646.634 156.24 648.314 156.66C649.454 156.96 650.374 157.46 650.374 158.36C650.374 159.46 649.374 159.96 648.074 159.96C646.734 159.96 645.714 159.32 645.334 158.28L644.214 158.94C644.754 160.3 646.154 161.24 648.074 161.24C649.134 161.24 650.014 160.98 650.674 160.44C651.354 159.9 651.694 159.22 651.694 158.36C651.694 156.2 649.594 155.74 647.914 155.32C646.774 155.02 645.854 154.52 645.854 153.62ZM659.023 150.76C657.483 150.76 656.243 151.26 655.263 152.26C654.283 153.26 653.803 154.5 653.803 156C653.803 157.52 654.303 158.78 655.283 159.76C656.263 160.74 657.543 161.24 659.123 161.24C661.063 161.24 662.643 160.36 663.523 158.94L662.363 158.26C661.803 159.28 660.663 159.96 659.143 159.96C657.003 159.96 655.423 158.68 655.163 156.66H663.943C663.963 156.4 663.983 156.18 663.983 156.04C663.983 154.62 663.523 153.38 662.603 152.34C661.703 151.28 660.503 150.76 659.023 150.76ZM659.023 152.04C659.923 152.04 660.723 152.34 661.403 152.92C662.083 153.5 662.483 154.32 662.623 155.38H655.163C655.423 153.4 656.943 152.04 659.023 152.04ZM671.542 161.24C673.482 161.24 675.202 160.24 676.022 158.64L674.922 158C674.262 159.2 673.042 159.96 671.542 159.96C670.442 159.96 669.502 159.58 668.742 158.82C667.982 158.04 667.602 157.1 667.602 156C667.602 154.9 667.982 153.96 668.742 153.2C669.502 152.42 670.442 152.04 671.542 152.04C673.042 152.04 674.302 152.8 674.842 154L675.922 153.38C675.202 151.78 673.522 150.76 671.542 150.76C670.042 150.76 668.782 151.26 667.782 152.28C666.782 153.28 666.282 154.52 666.282 156C666.282 157.48 666.782 158.72 667.782 159.74C668.782 160.74 670.042 161.24 671.542 161.24ZM684.018 151H681.138V148.2L679.818 148.6V151H677.718V152.28H679.818V158.34C679.818 160.66 681.218 161.42 684.018 161V159.84C682.098 159.92 681.138 160.06 681.138 158.34V152.28H684.018V151ZM691.032 150.76C689.492 150.76 688.252 151.26 687.272 152.26C686.292 153.26 685.812 154.5 685.812 156C685.812 157.52 686.312 158.78 687.292 159.76C688.272 160.74 689.552 161.24 691.132 161.24C693.072 161.24 694.652 160.36 695.532 158.94L694.372 158.26C693.812 159.28 692.672 159.96 691.152 159.96C689.012 159.96 687.432 158.68 687.172 156.66H695.952C695.972 156.4 695.992 156.18 695.992 156.04C695.992 154.62 695.532 153.38 694.612 152.34C693.712 151.28 692.512 150.76 691.032 150.76ZM691.032 152.04C691.932 152.04 692.732 152.34 693.412 152.92C694.092 153.5 694.492 154.32 694.632 155.38H687.172C687.432 153.4 688.952 152.04 691.032 152.04ZM703.899 151H701.019V148.2L699.699 148.6V151H697.599V152.28H699.699V158.34C699.699 160.66 701.099 161.42 703.899 161V159.84C701.979 159.92 701.019 160.06 701.019 158.34V152.28H703.899V151ZM713.939 156.24C713.939 158.78 712.619 159.96 710.699 159.96C708.959 159.96 707.979 158.92 707.979 157.14V151H706.659V157.14C706.659 159.64 708.159 161.24 710.579 161.24C712.079 161.24 713.199 160.64 713.939 159.44V161H715.259V151H713.939V156.24ZM720.171 151H718.851V161H720.171V155.44C720.171 153.14 721.511 152.12 723.331 152.12V150.84C721.831 150.84 720.791 151.44 720.171 152.66V151ZM740.34 152.96C739.42 151.5 738.08 150.76 736.3 150.76C734.88 150.76 733.66 151.26 732.64 152.28C731.64 153.3 731.14 154.54 731.14 156C731.14 157.46 731.64 158.7 732.64 159.72C733.66 160.74 734.88 161.24 736.3 161.24C738.08 161.24 739.42 160.5 740.34 159.04V161H741.66V151H740.34V152.96ZM733.6 158.82C732.84 158.04 732.46 157.1 732.46 156C732.46 154.9 732.84 153.96 733.6 153.2C734.36 152.42 735.3 152.04 736.4 152.04C737.5 152.04 738.44 152.42 739.2 153.2C739.96 153.96 740.34 154.9 740.34 156C740.34 157.1 739.96 158.04 739.2 158.82C738.44 159.58 737.5 159.96 736.4 159.96C735.3 159.96 734.36 159.58 733.6 158.82ZM753.855 152.96C752.935 151.5 751.595 150.76 749.815 150.76C748.395 150.76 747.175 151.26 746.155 152.28C745.155 153.3 744.655 154.54 744.655 156C744.655 157.46 745.155 158.7 746.155 159.72C747.175 160.74 748.395 161.24 749.815 161.24C751.595 161.24 752.935 160.5 753.855 159.04V161H755.175V147H753.855V152.96ZM747.115 158.82C746.355 158.04 745.975 157.1 745.975 156C745.975 154.9 746.355 153.96 747.115 153.2C747.875 152.42 748.815 152.04 749.915 152.04C751.015 152.04 751.955 152.42 752.715 153.2C753.475 153.96 753.855 154.9 753.855 156C753.855 157.1 753.475 158.04 752.715 158.82C751.955 159.58 751.015 159.96 749.915 159.96C748.815 159.96 747.875 159.58 747.115 158.82ZM760.11 148.6C760.49 148.22 760.49 147.62 760.11 147.24C759.73 146.86 759.13 146.86 758.75 147.24C758.37 147.62 758.37 148.22 758.75 148.6C759.13 148.98 759.73 148.98 760.11 148.6ZM760.09 161V151H758.77V161H760.09ZM769.051 150.76C767.271 150.76 765.931 151.5 765.011 152.96V151H763.691V165H765.011V159.04C765.931 160.5 767.271 161.24 769.051 161.24C770.471 161.24 771.691 160.74 772.691 159.72C773.711 158.7 774.211 157.46 774.211 156C774.211 154.54 773.711 153.3 772.691 152.28C771.691 151.26 770.471 150.76 769.051 150.76ZM766.151 158.82C765.391 158.04 765.011 157.1 765.011 156C765.011 154.9 765.391 153.96 766.151 153.2C766.911 152.42 767.851 152.04 768.951 152.04C770.051 152.04 770.991 152.42 771.751 153.2C772.511 153.96 772.891 154.9 772.891 156C772.891 157.1 772.511 158.04 771.751 158.82C770.991 159.58 770.051 159.96 768.951 159.96C767.851 159.96 766.911 159.58 766.151 158.82ZM778.546 148.6C778.926 148.22 778.926 147.62 778.546 147.24C778.166 146.86 777.566 146.86 777.186 147.24C776.806 147.62 776.806 148.22 777.186 148.6C777.566 148.98 778.166 148.98 778.546 148.6ZM778.526 161V151H777.206V161H778.526ZM783.167 153.62C783.167 152.6 784.127 152.04 785.267 152.04C786.487 152.04 787.287 152.5 787.667 153.44L788.767 152.8C788.187 151.54 786.887 150.76 785.267 150.76C784.287 150.76 783.467 151.04 782.807 151.58C782.167 152.12 781.847 152.8 781.847 153.62C781.847 155.78 783.947 156.24 785.627 156.66C786.767 156.96 787.687 157.46 787.687 158.36C787.687 159.46 786.687 159.96 785.387 159.96C784.047 159.96 783.027 159.32 782.647 158.28L781.527 158.94C782.067 160.3 783.467 161.24 785.387 161.24C786.447 161.24 787.327 160.98 787.987 160.44C788.667 159.9 789.007 159.22 789.007 158.36C789.007 156.2 786.907 155.74 785.227 155.32C784.087 155.02 783.167 154.52 783.167 153.62ZM796.376 161.24C798.316 161.24 800.036 160.24 800.856 158.64L799.756 158C799.096 159.2 797.876 159.96 796.376 159.96C795.276 159.96 794.336 159.58 793.576 158.82C792.816 158.04 792.436 157.1 792.436 156C792.436 154.9 792.816 153.96 793.576 153.2C794.336 152.42 795.276 152.04 796.376 152.04C797.876 152.04 799.136 152.8 799.676 154L800.756 153.38C800.036 151.78 798.356 150.76 796.376 150.76C794.876 150.76 793.616 151.26 792.616 152.28C791.616 153.28 791.116 154.52 791.116 156C791.116 157.48 791.616 158.72 792.616 159.74C793.616 160.74 794.876 161.24 796.376 161.24ZM804.891 148.6C805.271 148.22 805.271 147.62 804.891 147.24C804.511 146.86 803.911 146.86 803.531 147.24C803.151 147.62 803.151 148.22 803.531 148.6C803.911 148.98 804.511 148.98 804.891 148.6ZM804.871 161V151H803.551V161H804.871ZM813.152 150.76C811.652 150.76 810.532 151.36 809.792 152.56V151H808.472V161H809.792V155.76C809.792 153.22 811.112 152.04 813.032 152.04C814.772 152.04 815.752 153.08 815.752 154.86V161H817.072V154.86C817.072 152.36 815.572 150.76 813.152 150.76ZM829.025 152.96C828.105 151.5 826.765 150.76 824.985 150.76C823.565 150.76 822.345 151.26 821.325 152.28C820.325 153.3 819.825 154.54 819.825 156C819.825 157.46 820.325 158.7 821.325 159.72C822.345 160.74 823.565 161.24 824.985 161.24C826.765 161.24 828.105 160.5 829.025 159.04V160.6C829.025 162.66 827.625 163.96 825.325 163.96C823.545 163.96 822.345 163.36 821.745 162.14L820.585 162.8C821.405 164.42 822.985 165.24 825.325 165.24C826.705 165.24 827.885 164.82 828.865 164C829.845 163.18 830.345 162.04 830.345 160.6V151H829.025V152.96ZM822.285 158.82C821.525 158.04 821.145 157.1 821.145 156C821.145 154.9 821.525 153.96 822.285 153.2C823.045 152.42 823.985 152.04 825.085 152.04C826.185 152.04 827.125 152.42 827.885 153.2C828.645 153.96 829.025 154.9 829.025 156C829.025 157.1 828.645 158.04 827.885 158.82C827.125 159.58 826.185 159.96 825.085 159.96C823.985 159.96 823.045 159.58 822.285 158.82ZM844.359 150.76C842.819 150.76 841.579 151.26 840.599 152.26C839.619 153.26 839.139 154.5 839.139 156C839.139 157.52 839.639 158.78 840.619 159.76C841.599 160.74 842.879 161.24 844.459 161.24C846.399 161.24 847.979 160.36 848.859 158.94L847.699 158.26C847.139 159.28 845.999 159.96 844.479 159.96C842.339 159.96 840.759 158.68 840.499 156.66H849.279C849.299 156.4 849.319 156.18 849.319 156.04C849.319 154.62 848.859 153.38 847.939 152.34C847.039 151.28 845.839 150.76 844.359 150.76ZM844.359 152.04C845.259 152.04 846.059 152.34 846.739 152.92C847.419 153.5 847.819 154.32 847.959 155.38H840.499C840.759 153.4 842.279 152.04 844.359 152.04ZM853.539 161V146.4H852.219V161H853.539ZM858.48 148.6C858.86 148.22 858.86 147.62 858.48 147.24C858.1 146.86 857.5 146.86 857.12 147.24C856.74 147.62 856.74 148.22 857.12 148.6C857.5 148.98 858.1 148.98 858.48 148.6ZM858.46 161V151H857.14V161H858.46ZM867.361 151H864.481V148.2L863.161 148.6V151H861.061V152.28H863.161V158.34C863.161 160.66 864.561 161.42 867.361 161V159.84C865.441 159.92 864.481 160.06 864.481 158.34V152.28H867.361V151ZM870.961 159.3L870.161 163.8H871.361L872.561 159.3H870.961ZM882.806 153.62C882.806 152.6 883.766 152.04 884.906 152.04C886.126 152.04 886.926 152.5 887.306 153.44L888.406 152.8C887.826 151.54 886.526 150.76 884.906 150.76C883.926 150.76 883.106 151.04 882.446 151.58C881.806 152.12 881.486 152.8 881.486 153.62C881.486 155.78 883.586 156.24 885.266 156.66C886.406 156.96 887.326 157.46 887.326 158.36C887.326 159.46 886.326 159.96 885.026 159.96C883.686 159.96 882.666 159.32 882.286 158.28L881.166 158.94C881.706 160.3 883.106 161.24 885.026 161.24C886.086 161.24 886.966 160.98 887.626 160.44C888.306 159.9 888.646 159.22 888.646 158.36C888.646 156.2 886.546 155.74 884.866 155.32C883.726 155.02 882.806 154.52 882.806 153.62ZM895.975 150.76C894.435 150.76 893.195 151.26 892.215 152.26C891.235 153.26 890.755 154.5 890.755 156C890.755 157.52 891.255 158.78 892.235 159.76C893.215 160.74 894.495 161.24 896.075 161.24C898.015 161.24 899.595 160.36 900.475 158.94L899.315 158.26C898.755 159.28 897.615 159.96 896.095 159.96C893.955 159.96 892.375 158.68 892.115 156.66H900.895C900.915 156.4 900.935 156.18 900.935 156.04C900.935 154.62 900.475 153.38 899.555 152.34C898.655 151.28 897.455 150.76 895.975 150.76ZM895.975 152.04C896.875 152.04 897.675 152.34 898.355 152.92C899.035 153.5 899.435 154.32 899.575 155.38H892.115C892.375 153.4 893.895 152.04 895.975 152.04ZM912.435 152.96C911.515 151.5 910.175 150.76 908.395 150.76C906.975 150.76 905.755 151.26 904.735 152.28C903.735 153.3 903.235 154.54 903.235 156C903.235 157.46 903.735 158.7 904.735 159.72C905.755 160.74 906.975 161.24 908.395 161.24C910.175 161.24 911.515 160.5 912.435 159.04V161H913.755V147H912.435V152.96ZM905.695 158.82C904.935 158.04 904.555 157.1 904.555 156C904.555 154.9 904.935 153.96 905.695 153.2C906.455 152.42 907.395 152.04 908.495 152.04C909.595 152.04 910.535 152.42 911.295 153.2C912.055 153.96 912.435 154.9 912.435 156C912.435 157.1 912.055 158.04 911.295 158.82C910.535 159.58 909.595 159.96 908.495 159.96C907.395 159.96 906.455 159.58 905.695 158.82ZM931.75 152.96C930.83 151.5 929.49 150.76 927.71 150.76C926.29 150.76 925.07 151.26 924.05 152.28C923.05 153.3 922.55 154.54 922.55 156C922.55 157.46 923.05 158.7 924.05 159.72C925.07 160.74 926.29 161.24 927.71 161.24C929.49 161.24 930.83 160.5 931.75 159.04V161H933.07V147H931.75V152.96ZM925.01 158.82C924.25 158.04 923.87 157.1 923.87 156C923.87 154.9 924.25 153.96 925.01 153.2C925.77 152.42 926.71 152.04 927.81 152.04C928.91 152.04 929.85 152.42 930.61 153.2C931.37 153.96 931.75 154.9 931.75 156C931.75 157.1 931.37 158.04 930.61 158.82C929.85 159.58 928.91 159.96 927.81 159.96C926.71 159.96 925.77 159.58 925.01 158.82ZM945.044 159.74C946.064 158.72 946.584 157.48 946.584 156C946.584 154.52 946.064 153.28 945.044 152.28C944.024 151.26 942.784 150.76 941.324 150.76C939.864 150.76 938.604 151.26 937.584 152.28C936.564 153.28 936.064 154.52 936.064 156C936.064 157.48 936.564 158.72 937.584 159.74C938.604 160.74 939.864 161.24 941.324 161.24C942.784 161.24 944.024 160.74 945.044 159.74ZM938.524 158.82C937.764 158.04 937.384 157.1 937.384 156C937.384 154.9 937.764 153.96 938.524 153.2C939.284 152.42 940.224 152.04 941.324 152.04C942.424 152.04 943.364 152.42 944.124 153.2C944.884 153.96 945.264 154.9 945.264 156C945.264 157.1 944.884 158.04 944.124 158.82C943.364 159.58 942.424 159.96 941.324 159.96C940.224 159.96 939.284 159.58 938.524 158.82ZM960.013 150.76C958.473 150.76 957.233 151.26 956.253 152.26C955.273 153.26 954.793 154.5 954.793 156C954.793 157.52 955.293 158.78 956.273 159.76C957.253 160.74 958.533 161.24 960.113 161.24C962.053 161.24 963.633 160.36 964.513 158.94L963.353 158.26C962.793 159.28 961.653 159.96 960.133 159.96C957.993 159.96 956.413 158.68 956.153 156.66H964.933C964.953 156.4 964.973 156.18 964.973 156.04C964.973 154.62 964.513 153.38 963.593 152.34C962.693 151.28 961.493 150.76 960.013 150.76ZM960.013 152.04C960.913 152.04 961.713 152.34 962.393 152.92C963.073 153.5 963.473 154.32 963.613 155.38H956.153C956.413 153.4 957.933 152.04 960.013 152.04ZM969.213 148.6C969.593 148.22 969.593 147.62 969.213 147.24C968.833 146.86 968.233 146.86 967.853 147.24C967.473 147.62 967.473 148.22 967.853 148.6C968.233 148.98 968.833 148.98 969.213 148.6ZM969.193 161V151H967.873V161H969.193ZM979.834 156.24C979.834 158.78 978.514 159.96 976.594 159.96C974.854 159.96 973.874 158.92 973.874 157.14V151H972.554V157.14C972.554 159.64 974.054 161.24 976.474 161.24C977.974 161.24 979.094 160.64 979.834 159.44V161H981.154V151H979.834V156.24ZM985.786 153.62C985.786 152.6 986.746 152.04 987.886 152.04C989.106 152.04 989.906 152.5 990.286 153.44L991.386 152.8C990.806 151.54 989.506 150.76 987.886 150.76C986.906 150.76 986.086 151.04 985.426 151.58C984.786 152.12 984.466 152.8 984.466 153.62C984.466 155.78 986.566 156.24 988.246 156.66C989.386 156.96 990.306 157.46 990.306 158.36C990.306 159.46 989.306 159.96 988.006 159.96C986.666 159.96 985.646 159.32 985.266 158.28L984.146 158.94C984.686 160.3 986.086 161.24 988.006 161.24C989.066 161.24 989.946 160.98 990.606 160.44C991.286 159.9 991.626 159.22 991.626 158.36C991.626 156.2 989.526 155.74 987.846 155.32C986.706 155.02 985.786 154.52 985.786 153.62ZM1005.29 150.76C1003.85 150.76 1002.77 151.36 1002.05 152.58C1001.47 151.36 1000.45 150.76 999.009 150.76C997.689 150.76 996.669 151.32 995.949 152.46V151H994.629V161H995.949V155.46C995.949 153.14 997.229 152.04 998.829 152.04C1000.27 152.04 1001.17 153 1001.17 154.76V161H1002.49V155.46C1002.49 153.12 1003.61 152.04 1005.27 152.04C1006.73 152.04 1007.71 153.02 1007.71 154.76V161H1009.03V154.76C1009.03 152.3 1007.53 150.76 1005.29 150.76ZM1020.76 159.74C1021.78 158.72 1022.3 157.48 1022.3 156C1022.3 154.52 1021.78 153.28 1020.76 152.28C1019.74 151.26 1018.5 150.76 1017.04 150.76C1015.58 150.76 1014.32 151.26 1013.3 152.28C1012.28 153.28 1011.78 154.52 1011.78 156C1011.78 157.48 1012.28 158.72 1013.3 159.74C1014.32 160.74 1015.58 161.24 1017.04 161.24C1018.5 161.24 1019.74 160.74 1020.76 159.74ZM1014.24 158.82C1013.48 158.04 1013.1 157.1 1013.1 156C1013.1 154.9 1013.48 153.96 1014.24 153.2C1015 152.42 1015.94 152.04 1017.04 152.04C1018.14 152.04 1019.08 152.42 1019.84 153.2C1020.6 153.96 1020.98 154.9 1020.98 156C1020.98 157.1 1020.6 158.04 1019.84 158.82C1019.08 159.58 1018.14 159.96 1017.04 159.96C1015.94 159.96 1015 159.58 1014.24 158.82ZM1033.91 152.96C1032.99 151.5 1031.65 150.76 1029.87 150.76C1028.45 150.76 1027.23 151.26 1026.21 152.28C1025.21 153.3 1024.71 154.54 1024.71 156C1024.71 157.46 1025.21 158.7 1026.21 159.72C1027.23 160.74 1028.45 161.24 1029.87 161.24C1031.65 161.24 1032.99 160.5 1033.91 159.04V161H1035.23V147H1033.91V152.96ZM1027.17 158.82C1026.41 158.04 1026.03 157.1 1026.03 156C1026.03 154.9 1026.41 153.96 1027.17 153.2C1027.93 152.42 1028.87 152.04 1029.97 152.04C1031.07 152.04 1032.01 152.42 1032.77 153.2C1033.53 153.96 1033.91 154.9 1033.91 156C1033.91 157.1 1033.53 158.04 1032.77 158.82C1032.01 159.58 1031.07 159.96 1029.97 159.96C1028.87 159.96 1027.93 159.58 1027.17 158.82ZM431.859 181H428.979V178.2L427.659 178.6V181H425.559V182.28H427.659V188.34C427.659 190.66 429.059 191.42 431.859 191V189.84C429.939 189.92 428.979 190.06 428.979 188.34V182.28H431.859V181ZM438.873 180.76C437.333 180.76 436.093 181.26 435.113 182.26C434.133 183.26 433.653 184.5 433.653 186C433.653 187.52 434.153 188.78 435.133 189.76C436.113 190.74 437.393 191.24 438.973 191.24C440.913 191.24 442.493 190.36 443.373 188.94L442.213 188.26C441.653 189.28 440.513 189.96 438.993 189.96C436.853 189.96 435.273 188.68 435.013 186.66H443.793C443.813 186.4 443.833 186.18 443.833 186.04C443.833 184.62 443.373 183.38 442.453 182.34C441.553 181.28 440.353 180.76 438.873 180.76ZM438.873 182.04C439.773 182.04 440.573 182.34 441.253 182.92C441.933 183.5 442.333 184.32 442.473 185.38H435.013C435.273 183.4 436.793 182.04 438.873 182.04ZM457.393 180.76C455.953 180.76 454.873 181.36 454.153 182.58C453.573 181.36 452.553 180.76 451.113 180.76C449.793 180.76 448.773 181.32 448.053 182.46V181H446.733V191H448.053V185.46C448.053 183.14 449.333 182.04 450.933 182.04C452.373 182.04 453.273 183 453.273 184.76V191H454.593V185.46C454.593 183.12 455.713 182.04 457.373 182.04C458.833 182.04 459.813 183.02 459.813 184.76V191H461.133V184.76C461.133 182.3 459.633 180.76 457.393 180.76ZM469.846 180.76C468.066 180.76 466.726 181.5 465.806 182.96V181H464.486V195H465.806V189.04C466.726 190.5 468.066 191.24 469.846 191.24C471.266 191.24 472.486 190.74 473.486 189.72C474.506 188.7 475.006 187.46 475.006 186C475.006 184.54 474.506 183.3 473.486 182.28C472.486 181.26 471.266 180.76 469.846 180.76ZM466.946 188.82C466.186 188.04 465.806 187.1 465.806 186C465.806 184.9 466.186 183.96 466.946 183.2C467.706 182.42 468.646 182.04 469.746 182.04C470.846 182.04 471.786 182.42 472.546 183.2C473.306 183.96 473.686 184.9 473.686 186C473.686 187.1 473.306 188.04 472.546 188.82C471.786 189.58 470.846 189.96 469.746 189.96C468.646 189.96 467.706 189.58 466.946 188.82ZM486.381 189.74C487.401 188.72 487.921 187.48 487.921 186C487.921 184.52 487.401 183.28 486.381 182.28C485.361 181.26 484.121 180.76 482.661 180.76C481.201 180.76 479.941 181.26 478.921 182.28C477.901 183.28 477.401 184.52 477.401 186C477.401 187.48 477.901 188.72 478.921 189.74C479.941 190.74 481.201 191.24 482.661 191.24C484.121 191.24 485.361 190.74 486.381 189.74ZM479.861 188.82C479.101 188.04 478.721 187.1 478.721 186C478.721 184.9 479.101 183.96 479.861 183.2C480.621 182.42 481.561 182.04 482.661 182.04C483.761 182.04 484.701 182.42 485.461 183.2C486.221 183.96 486.601 184.9 486.601 186C486.601 187.1 486.221 188.04 485.461 188.82C484.701 189.58 483.761 189.96 482.661 189.96C481.561 189.96 480.621 189.58 479.861 188.82ZM492.25 181H490.93V191H492.25V185.44C492.25 183.14 493.59 182.12 495.41 182.12V180.84C493.91 180.84 492.87 181.44 492.25 182.66V181ZM505.159 178.6C505.539 178.22 505.539 177.62 505.159 177.24C504.779 176.86 504.179 176.86 503.799 177.24C503.419 177.62 503.419 178.22 503.799 178.6C504.179 178.98 504.779 178.98 505.159 178.6ZM505.139 191V181H503.819V191H505.139ZM513.42 180.76C511.92 180.76 510.8 181.36 510.06 182.56V181H508.74V191H510.06V185.76C510.06 183.22 511.38 182.04 513.3 182.04C515.04 182.04 516.02 183.08 516.02 184.86V191H517.34V184.86C517.34 182.36 515.84 180.76 513.42 180.76ZM525.352 191.24C527.292 191.24 529.012 190.24 529.832 188.64L528.732 188C528.072 189.2 526.852 189.96 525.352 189.96C524.252 189.96 523.312 189.58 522.552 188.82C521.792 188.04 521.412 187.1 521.412 186C521.412 184.9 521.792 183.96 522.552 183.2C523.312 182.42 524.252 182.04 525.352 182.04C526.852 182.04 528.112 182.8 528.652 184L529.732 183.38C529.012 181.78 527.332 180.76 525.352 180.76C523.852 180.76 522.592 181.26 521.592 182.28C520.592 183.28 520.092 184.52 520.092 186C520.092 187.48 520.592 188.72 521.592 189.74C522.592 190.74 523.852 191.24 525.352 191.24ZM533.867 178.6C534.247 178.22 534.247 177.62 533.867 177.24C533.487 176.86 532.887 176.86 532.507 177.24C532.127 177.62 532.127 178.22 532.507 178.6C532.887 178.98 533.487 178.98 533.867 178.6ZM533.847 191V181H532.527V191H533.847ZM546.048 182.96C545.128 181.5 543.788 180.76 542.008 180.76C540.588 180.76 539.368 181.26 538.348 182.28C537.348 183.3 536.848 184.54 536.848 186C536.848 187.46 537.348 188.7 538.348 189.72C539.368 190.74 540.588 191.24 542.008 191.24C543.788 191.24 545.128 190.5 546.048 189.04V191H547.368V177H546.048V182.96ZM539.308 188.82C538.548 188.04 538.168 187.1 538.168 186C538.168 184.9 538.548 183.96 539.308 183.2C540.068 182.42 541.008 182.04 542.108 182.04C543.208 182.04 544.148 182.42 544.908 183.2C545.668 183.96 546.048 184.9 546.048 186C546.048 187.1 545.668 188.04 544.908 188.82C544.148 189.58 543.208 189.96 542.108 189.96C541.008 189.96 540.068 189.58 539.308 188.82ZM552.303 178.6C552.683 178.22 552.683 177.62 552.303 177.24C551.923 176.86 551.323 176.86 550.943 177.24C550.563 177.62 550.563 178.22 550.943 178.6C551.323 178.98 551.923 178.98 552.303 178.6ZM552.283 191V181H550.963V191H552.283ZM564.484 182.96C563.564 181.5 562.224 180.76 560.444 180.76C559.024 180.76 557.804 181.26 556.784 182.28C555.784 183.3 555.284 184.54 555.284 186C555.284 187.46 555.784 188.7 556.784 189.72C557.804 190.74 559.024 191.24 560.444 191.24C562.224 191.24 563.564 190.5 564.484 189.04V191H565.804V177H564.484V182.96ZM557.744 188.82C556.984 188.04 556.604 187.1 556.604 186C556.604 184.9 556.984 183.96 557.744 183.2C558.504 182.42 559.444 182.04 560.544 182.04C561.644 182.04 562.584 182.42 563.344 183.2C564.104 183.96 564.484 184.9 564.484 186C564.484 187.1 564.104 188.04 563.344 188.82C562.584 189.58 561.644 189.96 560.544 189.96C559.444 189.96 558.504 189.58 557.744 188.82ZM576.439 186.24C576.439 188.78 575.119 189.96 573.199 189.96C571.459 189.96 570.479 188.92 570.479 187.14V181H569.159V187.14C569.159 189.64 570.659 191.24 573.079 191.24C574.579 191.24 575.699 190.64 576.439 189.44V191H577.759V181H576.439V186.24ZM586.032 180.76C584.532 180.76 583.412 181.36 582.672 182.56V181H581.352V191H582.672V185.76C582.672 183.22 583.992 182.04 585.912 182.04C587.652 182.04 588.632 183.08 588.632 184.86V191H589.952V184.86C589.952 182.36 588.452 180.76 586.032 180.76ZM598.604 181H595.724V178.2L594.404 178.6V181H592.304V182.28H594.404V188.34C594.404 190.66 595.804 191.42 598.604 191V189.84C596.684 189.92 595.724 190.06 595.724 188.34V182.28H598.604V181ZM614.444 186.24C614.444 188.78 613.124 189.96 611.204 189.96C609.464 189.96 608.484 188.92 608.484 187.14V181H607.164V187.14C607.164 189.64 608.664 191.24 611.084 191.24C612.584 191.24 613.704 190.64 614.444 189.44V191H615.764V181H614.444V186.24ZM624.656 181H621.776V178.2L620.456 178.6V181H618.356V182.28H620.456V188.34C620.456 190.66 621.856 191.42 624.656 191V189.84C622.736 189.92 621.776 190.06 621.776 188.34V182.28H624.656V181ZM634.776 191V176.4H633.456V191H634.776ZM646.977 182.96C646.057 181.5 644.717 180.76 642.937 180.76C641.517 180.76 640.297 181.26 639.277 182.28C638.277 183.3 637.777 184.54 637.777 186C637.777 187.46 638.277 188.7 639.277 189.72C640.297 190.74 641.517 191.24 642.937 191.24C644.717 191.24 646.057 190.5 646.977 189.04V191H648.297V181H646.977V182.96ZM640.237 188.82C639.477 188.04 639.097 187.1 639.097 186C639.097 184.9 639.477 183.96 640.237 183.2C640.997 182.42 641.937 182.04 643.037 182.04C644.137 182.04 645.077 182.42 645.837 183.2C646.597 183.96 646.977 184.9 646.977 186C646.977 187.1 646.597 188.04 645.837 188.82C645.077 189.58 644.137 189.96 643.037 189.96C641.937 189.96 640.997 189.58 640.237 188.82ZM657.252 180.76C655.472 180.76 654.132 181.5 653.212 182.96V177H651.892V191H653.212V189.04C654.132 190.5 655.472 191.24 657.252 191.24C658.672 191.24 659.892 190.74 660.892 189.72C661.912 188.7 662.412 187.46 662.412 186C662.412 184.54 661.912 183.3 660.892 182.28C659.892 181.26 658.672 180.76 657.252 180.76ZM654.352 188.82C653.592 188.04 653.212 187.1 653.212 186C653.212 184.9 653.592 183.96 654.352 183.2C655.112 182.42 656.052 182.04 657.152 182.04C658.252 182.04 659.192 182.42 659.952 183.2C660.712 183.96 661.092 184.9 661.092 186C661.092 187.1 660.712 188.04 659.952 188.82C659.192 189.58 658.252 189.96 657.152 189.96C656.052 189.96 655.112 189.58 654.352 188.82ZM673.787 189.74C674.807 188.72 675.327 187.48 675.327 186C675.327 184.52 674.807 183.28 673.787 182.28C672.767 181.26 671.527 180.76 670.067 180.76C668.607 180.76 667.347 181.26 666.327 182.28C665.307 183.28 664.807 184.52 664.807 186C664.807 187.48 665.307 188.72 666.327 189.74C667.347 190.74 668.607 191.24 670.067 191.24C671.527 191.24 672.767 190.74 673.787 189.74ZM667.267 188.82C666.507 188.04 666.127 187.1 666.127 186C666.127 184.9 666.507 183.96 667.267 183.2C668.027 182.42 668.967 182.04 670.067 182.04C671.167 182.04 672.107 182.42 672.867 183.2C673.627 183.96 674.007 184.9 674.007 186C674.007 187.1 673.627 188.04 672.867 188.82C672.107 189.58 671.167 189.96 670.067 189.96C668.967 189.96 668.027 189.58 667.267 188.82ZM679.656 181H678.336V191H679.656V185.44C679.656 183.14 680.996 182.12 682.816 182.12V180.84C681.316 180.84 680.276 181.44 679.656 182.66V181ZM689.44 180.76C687.9 180.76 686.66 181.26 685.68 182.26C684.7 183.26 684.22 184.5 684.22 186C684.22 187.52 684.72 188.78 685.7 189.76C686.68 190.74 687.96 191.24 689.54 191.24C691.48 191.24 693.06 190.36 693.94 188.94L692.78 188.26C692.22 189.28 691.08 189.96 689.56 189.96C687.42 189.96 685.84 188.68 685.58 186.66H694.36C694.38 186.4 694.4 186.18 694.4 186.04C694.4 184.62 693.94 183.38 693.02 182.34C692.12 181.28 690.92 180.76 689.44 180.76ZM689.44 182.04C690.34 182.04 691.14 182.34 691.82 182.92C692.5 183.5 692.9 184.32 693.04 185.38H685.58C685.84 183.4 687.36 182.04 689.44 182.04ZM707.719 180.76C706.179 180.76 704.939 181.26 703.959 182.26C702.979 183.26 702.499 184.5 702.499 186C702.499 187.52 702.999 188.78 703.979 189.76C704.959 190.74 706.239 191.24 707.819 191.24C709.759 191.24 711.339 190.36 712.219 188.94L711.059 188.26C710.499 189.28 709.359 189.96 707.839 189.96C705.699 189.96 704.119 188.68 703.859 186.66H712.639C712.659 186.4 712.679 186.18 712.679 186.04C712.679 184.62 712.219 183.38 711.299 182.34C710.399 181.28 709.199 180.76 707.719 180.76ZM707.719 182.04C708.619 182.04 709.419 182.34 710.099 182.92C710.779 183.5 711.179 184.32 711.319 185.38H703.859C704.119 183.4 705.639 182.04 707.719 182.04ZM720.586 181H717.706V178.2L716.386 178.6V181H714.286V182.28H716.386V188.34C716.386 190.66 717.786 191.42 720.586 191V189.84C718.666 189.92 717.706 190.06 717.706 188.34V182.28H720.586V181ZM737.986 182.96C737.066 181.5 735.726 180.76 733.946 180.76C732.526 180.76 731.306 181.26 730.286 182.28C729.286 183.3 728.786 184.54 728.786 186C728.786 187.46 729.286 188.7 730.286 189.72C731.306 190.74 732.526 191.24 733.946 191.24C735.726 191.24 737.066 190.5 737.986 189.04V191H739.306V177H737.986V182.96ZM731.246 188.82C730.486 188.04 730.106 187.1 730.106 186C730.106 184.9 730.486 183.96 731.246 183.2C732.006 182.42 732.946 182.04 734.046 182.04C735.146 182.04 736.086 182.42 736.846 183.2C737.606 183.96 737.986 184.9 737.986 186C737.986 187.1 737.606 188.04 736.846 188.82C736.086 189.58 735.146 189.96 734.046 189.96C732.946 189.96 732.006 189.58 731.246 188.82ZM751.281 189.74C752.301 188.72 752.821 187.48 752.821 186C752.821 184.52 752.301 183.28 751.281 182.28C750.261 181.26 749.021 180.76 747.561 180.76C746.101 180.76 744.841 181.26 743.821 182.28C742.801 183.28 742.301 184.52 742.301 186C742.301 187.48 742.801 188.72 743.821 189.74C744.841 190.74 746.101 191.24 747.561 191.24C749.021 191.24 750.261 190.74 751.281 189.74ZM744.761 188.82C744.001 188.04 743.621 187.1 743.621 186C743.621 184.9 744.001 183.96 744.761 183.2C745.521 182.42 746.461 182.04 747.561 182.04C748.661 182.04 749.601 182.42 750.361 183.2C751.121 183.96 751.501 184.9 751.501 186C751.501 187.1 751.121 188.04 750.361 188.82C749.601 189.58 748.661 189.96 747.561 189.96C746.461 189.96 745.521 189.58 744.761 188.82ZM757.15 191V176.4H755.83V191H757.15ZM769.131 189.74C770.151 188.72 770.671 187.48 770.671 186C770.671 184.52 770.151 183.28 769.131 182.28C768.111 181.26 766.871 180.76 765.411 180.76C763.951 180.76 762.691 181.26 761.671 182.28C760.651 183.28 760.151 184.52 760.151 186C760.151 187.48 760.651 188.72 761.671 189.74C762.691 190.74 763.951 191.24 765.411 191.24C766.871 191.24 768.111 190.74 769.131 189.74ZM762.611 188.82C761.851 188.04 761.471 187.1 761.471 186C761.471 184.9 761.851 183.96 762.611 183.2C763.371 182.42 764.311 182.04 765.411 182.04C766.511 182.04 767.451 182.42 768.211 183.2C768.971 183.96 769.351 184.9 769.351 186C769.351 187.1 768.971 188.04 768.211 188.82C767.451 189.58 766.511 189.96 765.411 189.96C764.311 189.96 763.371 189.58 762.611 188.82ZM775 181H773.68V191H775V185.44C775 183.14 776.34 182.12 778.16 182.12V180.84C776.66 180.84 775.62 181.44 775 182.66V181ZM784.783 180.76C783.243 180.76 782.003 181.26 781.023 182.26C780.043 183.26 779.563 184.5 779.563 186C779.563 187.52 780.063 188.78 781.043 189.76C782.023 190.74 783.303 191.24 784.883 191.24C786.823 191.24 788.403 190.36 789.283 188.94L788.123 188.26C787.563 189.28 786.423 189.96 784.903 189.96C782.763 189.96 781.183 188.68 780.923 186.66H789.703C789.723 186.4 789.743 186.18 789.743 186.04C789.743 184.62 789.283 183.38 788.363 182.34C787.463 181.28 786.263 180.76 784.783 180.76ZM784.783 182.04C785.683 182.04 786.483 182.34 787.163 182.92C787.843 183.5 788.243 184.32 788.383 185.38H780.923C781.183 183.4 782.703 182.04 784.783 182.04ZM809.103 180.76C807.663 180.76 806.583 181.36 805.863 182.58C805.283 181.36 804.263 180.76 802.823 180.76C801.503 180.76 800.483 181.32 799.763 182.46V181H798.443V191H799.763V185.46C799.763 183.14 801.043 182.04 802.643 182.04C804.083 182.04 804.983 183 804.983 184.76V191H806.303V185.46C806.303 183.12 807.423 182.04 809.083 182.04C810.543 182.04 811.523 183.02 811.523 184.76V191H812.843V184.76C812.843 182.3 811.343 180.76 809.103 180.76ZM824.796 182.96C823.876 181.5 822.536 180.76 820.756 180.76C819.336 180.76 818.116 181.26 817.096 182.28C816.096 183.3 815.596 184.54 815.596 186C815.596 187.46 816.096 188.7 817.096 189.72C818.116 190.74 819.336 191.24 820.756 191.24C822.536 191.24 823.876 190.5 824.796 189.04V191H826.116V181H824.796V182.96ZM818.056 188.82C817.296 188.04 816.916 187.1 816.916 186C816.916 184.9 817.296 183.96 818.056 183.2C818.816 182.42 819.756 182.04 820.856 182.04C821.956 182.04 822.896 182.42 823.656 183.2C824.416 183.96 824.796 184.9 824.796 186C824.796 187.1 824.416 188.04 823.656 188.82C822.896 189.58 821.956 189.96 820.856 189.96C819.756 189.96 818.816 189.58 818.056 188.82ZM838.311 182.96C837.391 181.5 836.051 180.76 834.271 180.76C832.851 180.76 831.631 181.26 830.611 182.28C829.611 183.3 829.111 184.54 829.111 186C829.111 187.46 829.611 188.7 830.611 189.72C831.631 190.74 832.851 191.24 834.271 191.24C836.051 191.24 837.391 190.5 838.311 189.04V190.6C838.311 192.66 836.911 193.96 834.611 193.96C832.831 193.96 831.631 193.36 831.031 192.14L829.871 192.8C830.691 194.42 832.271 195.24 834.611 195.24C835.991 195.24 837.171 194.82 838.151 194C839.131 193.18 839.631 192.04 839.631 190.6V181H838.311V182.96ZM831.571 188.82C830.811 188.04 830.431 187.1 830.431 186C830.431 184.9 830.811 183.96 831.571 183.2C832.331 182.42 833.271 182.04 834.371 182.04C835.471 182.04 836.411 182.42 837.171 183.2C837.931 183.96 838.311 184.9 838.311 186C838.311 187.1 837.931 188.04 837.171 188.82C836.411 189.58 835.471 189.96 834.371 189.96C833.271 189.96 832.331 189.58 831.571 188.82ZM847.906 180.76C846.406 180.76 845.286 181.36 844.546 182.56V181H843.226V191H844.546V185.76C844.546 183.22 845.866 182.04 847.786 182.04C849.526 182.04 850.506 183.08 850.506 184.86V191H851.826V184.86C851.826 182.36 850.326 180.76 847.906 180.76ZM863.778 182.96C862.858 181.5 861.518 180.76 859.738 180.76C858.318 180.76 857.098 181.26 856.078 182.28C855.078 183.3 854.578 184.54 854.578 186C854.578 187.46 855.078 188.7 856.078 189.72C857.098 190.74 858.318 191.24 859.738 191.24C861.518 191.24 862.858 190.5 863.778 189.04V191H865.098V181H863.778V182.96ZM857.038 188.82C856.278 188.04 855.898 187.1 855.898 186C855.898 184.9 856.278 183.96 857.038 183.2C857.798 182.42 858.738 182.04 859.838 182.04C860.938 182.04 861.878 182.42 862.638 183.2C863.398 183.96 863.778 184.9 863.778 186C863.778 187.1 863.398 188.04 862.638 188.82C861.878 189.58 860.938 189.96 859.838 189.96C858.738 189.96 857.798 189.58 857.038 188.82ZM883.093 182.96C882.173 181.5 880.833 180.76 879.053 180.76C877.633 180.76 876.413 181.26 875.393 182.28C874.393 183.3 873.893 184.54 873.893 186C873.893 187.46 874.393 188.7 875.393 189.72C876.413 190.74 877.633 191.24 879.053 191.24C880.833 191.24 882.173 190.5 883.093 189.04V191H884.413V181H883.093V182.96ZM876.353 188.82C875.593 188.04 875.213 187.1 875.213 186C875.213 184.9 875.593 183.96 876.353 183.2C877.113 182.42 878.053 182.04 879.153 182.04C880.253 182.04 881.193 182.42 881.953 183.2C882.713 183.96 883.093 184.9 883.093 186C883.093 187.1 882.713 188.04 881.953 188.82C881.193 189.58 880.253 189.96 879.153 189.96C878.053 189.96 877.113 189.58 876.353 188.82ZM889.328 191V176.4H888.008V191H889.328ZM894.269 178.6C894.649 178.22 894.649 177.62 894.269 177.24C893.889 176.86 893.289 176.86 892.909 177.24C892.529 177.62 892.529 178.22 892.909 178.6C893.289 178.98 893.889 178.98 894.269 178.6ZM894.249 191V181H892.929V191H894.249ZM906.45 182.96C905.53 181.5 904.19 180.76 902.41 180.76C900.99 180.76 899.77 181.26 898.75 182.28C897.75 183.3 897.25 184.54 897.25 186C897.25 187.46 897.75 188.7 898.75 189.72C899.77 190.74 900.99 191.24 902.41 191.24C904.19 191.24 905.53 190.5 906.45 189.04V195H907.77V181H906.45V182.96ZM899.71 188.82C898.95 188.04 898.57 187.1 898.57 186C898.57 184.9 898.95 183.96 899.71 183.2C900.47 182.42 901.41 182.04 902.51 182.04C903.61 182.04 904.55 182.42 905.31 183.2C906.07 183.96 906.45 184.9 906.45 186C906.45 187.1 906.07 188.04 905.31 188.82C904.55 189.58 903.61 189.96 902.51 189.96C901.41 189.96 900.47 189.58 899.71 188.82ZM918.405 186.24C918.405 188.78 917.085 189.96 915.165 189.96C913.425 189.96 912.445 188.92 912.445 187.14V181H911.125V187.14C911.125 189.64 912.625 191.24 915.045 191.24C916.545 191.24 917.665 190.64 918.405 189.44V191H919.725V181H918.405V186.24ZM931.917 182.96C930.997 181.5 929.657 180.76 927.877 180.76C926.457 180.76 925.237 181.26 924.217 182.28C923.217 183.3 922.717 184.54 922.717 186C922.717 187.46 923.217 188.7 924.217 189.72C925.237 190.74 926.457 191.24 927.877 191.24C929.657 191.24 930.997 190.5 931.917 189.04V191H933.237V181H931.917V182.96ZM925.177 188.82C924.417 188.04 924.037 187.1 924.037 186C924.037 184.9 924.417 183.96 925.177 183.2C925.937 182.42 926.877 182.04 927.977 182.04C929.077 182.04 930.017 182.42 930.777 183.2C931.537 183.96 931.917 184.9 931.917 186C931.917 187.1 931.537 188.04 930.777 188.82C930.017 189.58 929.077 189.96 927.977 189.96C926.877 189.96 925.937 189.58 925.177 188.82ZM938.512 190.88C938.932 190.46 938.932 189.74 938.512 189.32C938.092 188.9 937.372 188.9 936.952 189.32C936.532 189.74 936.532 190.46 936.952 190.88C937.372 191.3 938.092 191.3 938.512 190.88Z" fill="white" fill-opacity="0.4"/>
<defs>
<linearGradient id="paint0_linear" x1="1366" y1="-59.9999" x2="437.548" y2="732.556" gradientUnits="userSpaceOnUse">
<stop stop-color="#98D0FC"/>
<stop offset="1" stop-color="#3481D7"/>
</linearGradient>
</defs>
</svg>
