<svg width="1366" height="250" viewBox="0 0 1366 250" fill="none" xmlns="http://www.w3.org/2000/svg">
<mask id="mask0" mask-type="alpha" maskUnits="userSpaceOnUse" x="0" y="0" width="1366" height="250">
<rect width="1366" height="250" fill="#C4C4C4"/>
</mask>
<g mask="url(#mask0)">
<rect y="-111" width="1366" height="471" fill="url(#paint0_linear)"/>
<path d="M-72 97C-3 77.5 148.7 46.3 203.5 77.5C258.3 108.7 320.333 231.167 344.5 288.5L827 275C751.833 232.667 600.1 133.9 594.5 77.5C588.9 21.1 684.5 -60 733 -93.5L967 -69.5C970.167 -45.1667 986.1 10.9 1024.5 40.5C1062.9 70.1 1306.5 -9.16667 1423.5 -52.5L1438 344C1393.5 279.333 1290.1 148.6 1232.5 143C1174.9 137.4 1002.83 215.667 924 255.5" stroke="white" stroke-opacity="0.15" stroke-width="15"/>
<circle cx="88" cy="23" r="9" fill="white" fill-opacity="0.2"/>
<circle cx="480" cy="115" r="9" fill="white" fill-opacity="0.2"/>
<circle cx="602" cy="250" r="9" fill="white" fill-opacity="0.2"/>
<circle cx="845" cy="35" r="9" fill="white" fill-opacity="0.2"/>
<circle cx="1193" cy="200" r="9" fill="white" fill-opacity="0.2"/>
<circle cx="1366" cy="116" r="9" fill="white" fill-opacity="0.2"/>
<circle cx="240" cy="250" r="17" stroke="white" stroke-opacity="0.6" stroke-width="8"/>
<circle cx="11" cy="170" r="17" stroke="white" stroke-opacity="0.6" stroke-width="8"/>
<circle cx="382" r="17" stroke="white" stroke-opacity="0.6" stroke-width="8"/>
<circle cx="877" cy="221" r="17" stroke="white" stroke-opacity="0.6" stroke-width="8"/>
<circle cx="1267" cy="71" r="17" stroke="white" stroke-opacity="0.6" stroke-width="8"/>
</g>
<path d="M579.136 100.572C581.952 100.572 584.548 99.912 586.88 98.592C589.256 97.228 591.104 95.424 592.38 93.18L587.98 90.672C586.396 93.708 583.008 95.644 579.136 95.644C575.836 95.644 573.196 94.588 571.128 92.52C569.104 90.452 568.092 87.812 568.092 84.6C568.092 81.388 569.104 78.748 571.128 76.68C573.196 74.612 575.836 73.556 579.136 73.556C583.008 73.556 586.352 75.492 587.98 78.528L592.38 75.976C589.74 71.444 584.724 68.628 579.136 68.628C574.516 68.628 570.644 70.168 567.608 73.248C564.572 76.284 563.032 80.068 563.032 84.6C563.032 89.132 564.572 92.916 567.608 95.996C570.644 99.032 574.516 100.572 579.136 100.572ZM608.377 100.572C611.633 100.572 614.361 99.472 616.605 97.228C618.849 94.984 619.993 92.256 619.993 89C619.993 85.744 618.849 83.016 616.605 80.772C614.361 78.528 611.633 77.428 608.377 77.428C605.165 77.428 602.393 78.528 600.149 80.772C597.905 83.016 596.761 85.744 596.761 89C596.761 92.256 597.905 94.984 600.149 97.228C602.393 99.472 605.165 100.572 608.377 100.572ZM603.493 93.972C602.173 92.652 601.513 90.98 601.513 89C601.513 87.02 602.173 85.348 603.493 84.028C604.813 82.708 606.441 82.048 608.377 82.048C610.313 82.048 611.941 82.708 613.261 84.028C614.581 85.348 615.241 87.02 615.241 89C615.241 90.98 614.581 92.652 613.261 93.972C611.941 95.292 610.313 95.952 608.377 95.952C606.441 95.952 604.813 95.292 603.493 93.972ZM637.622 77.428C634.498 77.428 632.254 78.572 630.802 80.816V78H626.05V100H630.802V88.208C630.802 83.94 633.046 81.872 636.39 81.872C639.426 81.872 641.318 83.676 641.318 86.976V100H646.07V86.492C646.07 80.86 642.682 77.428 637.622 77.428ZM665.222 78H659.766V71.84L655.014 73.248V78H650.966V82.576H655.014V93.136C655.014 98.9 657.962 100.88 665.222 100V95.732C661.614 95.908 659.766 95.952 659.766 93.136V82.576H665.222V78ZM687.814 81.124C686.01 78.66 683.458 77.428 680.114 77.428C677.078 77.428 674.526 78.528 672.37 80.772C670.214 83.016 669.158 85.744 669.158 89C669.158 92.212 670.214 94.984 672.37 97.228C674.526 99.472 677.078 100.572 680.114 100.572C683.458 100.572 686.01 99.34 687.814 96.832V100H692.566V78H687.814V81.124ZM675.89 94.06C674.57 92.696 673.91 91.024 673.91 89C673.91 86.976 674.57 85.304 675.89 83.984C677.21 82.62 678.882 81.96 680.862 81.96C682.842 81.96 684.514 82.62 685.834 83.984C687.154 85.304 687.814 86.976 687.814 89C687.814 91.024 687.154 92.696 685.834 94.06C684.514 95.38 682.842 96.04 680.862 96.04C678.882 96.04 677.21 95.38 675.89 94.06ZM710.249 100.572C714.517 100.572 718.257 98.372 720.149 94.852L716.057 92.52C715.001 94.588 712.801 95.908 710.205 95.908C708.269 95.908 706.641 95.248 705.321 93.928C704.045 92.608 703.385 90.98 703.385 89C703.385 87.02 704.045 85.392 705.321 84.072C706.641 82.752 708.269 82.092 710.205 82.092C712.845 82.092 714.957 83.368 715.969 85.48L720.061 83.104C718.301 79.628 714.517 77.428 710.249 77.428C706.949 77.428 704.177 78.528 701.933 80.772C699.733 82.972 698.633 85.7 698.633 89C698.633 92.256 699.733 94.984 701.933 97.228C704.177 99.472 706.949 100.572 710.249 100.572ZM737.62 78H732.164V71.84L727.412 73.248V78H723.364V82.576H727.412V93.136C727.412 98.9 730.36 100.88 737.62 100V95.732C734.012 95.908 732.164 95.952 732.164 93.136V82.576H737.62V78ZM756.664 89.792C756.664 93.092 757.764 95.688 759.92 97.668C762.076 99.604 764.892 100.572 768.324 100.572C771.756 100.572 774.572 99.604 776.728 97.668C778.884 95.688 779.984 93.092 779.984 89.792V69.2H774.924V89.484C774.924 93.224 772.724 95.644 768.324 95.644C763.924 95.644 761.724 93.224 761.724 89.484V69.2H756.664V89.792ZM791.267 84.072C791.267 82.532 792.675 81.74 794.479 81.74C796.459 81.74 797.867 82.576 798.615 84.248L802.619 82.004C801.079 79.144 798.131 77.428 794.479 77.428C792.191 77.428 790.255 78.044 788.715 79.276C787.175 80.508 786.427 82.136 786.427 84.16C786.339 88.78 790.783 90.1 794.083 90.936C796.415 91.508 798.263 92.344 798.263 93.752C798.263 95.38 797.031 96.216 794.523 96.216C792.015 96.216 790.387 95.16 789.639 93.048L785.547 95.424C786.955 98.636 790.167 100.572 794.523 100.572C796.987 100.572 799.011 99.956 800.639 98.768C802.267 97.58 803.103 95.908 803.103 93.796C803.191 89.088 798.791 87.68 795.403 86.932C793.115 86.272 791.267 85.524 791.267 84.072Z" fill="white"/>
<path d="M331.575 148H330.175V162H337.975V160.68H331.575V148ZM348.451 160.74C349.471 159.72 349.991 158.48 349.991 157C349.991 155.52 349.471 154.28 348.451 153.28C347.431 152.26 346.191 151.76 344.731 151.76C343.271 151.76 342.011 152.26 340.991 153.28C339.971 154.28 339.471 155.52 339.471 157C339.471 158.48 339.971 159.72 340.991 160.74C342.011 161.74 343.271 162.24 344.731 162.24C346.191 162.24 347.431 161.74 348.451 160.74ZM341.931 159.82C341.171 159.04 340.791 158.1 340.791 157C340.791 155.9 341.171 154.96 341.931 154.2C342.691 153.42 343.631 153.04 344.731 153.04C345.831 153.04 346.771 153.42 347.531 154.2C348.291 154.96 348.671 155.9 348.671 157C348.671 158.1 348.291 159.04 347.531 159.82C346.771 160.58 345.831 160.96 344.731 160.96C343.631 160.96 342.691 160.58 341.931 159.82ZM354.32 152H353V162H354.32V156.44C354.32 154.14 355.66 153.12 357.48 153.12V151.84C355.98 151.84 354.94 152.44 354.32 153.66V152ZM364.104 151.76C362.564 151.76 361.324 152.26 360.344 153.26C359.364 154.26 358.884 155.5 358.884 157C358.884 158.52 359.384 159.78 360.364 160.76C361.344 161.74 362.624 162.24 364.204 162.24C366.144 162.24 367.724 161.36 368.604 159.94L367.444 159.26C366.884 160.28 365.744 160.96 364.224 160.96C362.084 160.96 360.504 159.68 360.244 157.66H369.024C369.044 157.4 369.064 157.18 369.064 157.04C369.064 155.62 368.604 154.38 367.684 153.34C366.784 152.28 365.584 151.76 364.104 151.76ZM364.104 153.04C365.004 153.04 365.804 153.34 366.484 153.92C367.164 154.5 367.564 155.32 367.704 156.38H360.244C360.504 154.4 362.024 153.04 364.104 153.04ZM382.624 151.76C381.184 151.76 380.104 152.36 379.384 153.58C378.804 152.36 377.784 151.76 376.344 151.76C375.024 151.76 374.004 152.32 373.284 153.46V152H371.964V162H373.284V156.46C373.284 154.14 374.564 153.04 376.164 153.04C377.604 153.04 378.504 154 378.504 155.76V162H379.824V156.46C379.824 154.12 380.944 153.04 382.604 153.04C384.064 153.04 385.044 154.02 385.044 155.76V162H386.364V155.76C386.364 153.3 384.864 151.76 382.624 151.76ZM396.857 149.6C397.237 149.22 397.237 148.62 396.857 148.24C396.477 147.86 395.877 147.86 395.497 148.24C395.117 148.62 395.117 149.22 395.497 149.6C395.877 149.98 396.477 149.98 396.857 149.6ZM396.837 162V152H395.517V162H396.837ZM405.798 151.76C404.018 151.76 402.678 152.5 401.758 153.96V152H400.438V166H401.758V160.04C402.678 161.5 404.018 162.24 405.798 162.24C407.218 162.24 408.438 161.74 409.438 160.72C410.458 159.7 410.958 158.46 410.958 157C410.958 155.54 410.458 154.3 409.438 153.28C408.438 152.26 407.218 151.76 405.798 151.76ZM402.898 159.82C402.138 159.04 401.758 158.1 401.758 157C401.758 155.9 402.138 154.96 402.898 154.2C403.658 153.42 404.598 153.04 405.698 153.04C406.798 153.04 407.738 153.42 408.498 154.2C409.258 154.96 409.638 155.9 409.638 157C409.638 158.1 409.258 159.04 408.498 159.82C407.738 160.58 406.798 160.96 405.698 160.96C404.598 160.96 403.658 160.58 402.898 159.82ZM414.797 154.62C414.797 153.6 415.757 153.04 416.897 153.04C418.117 153.04 418.917 153.5 419.297 154.44L420.397 153.8C419.817 152.54 418.517 151.76 416.897 151.76C415.917 151.76 415.097 152.04 414.437 152.58C413.797 153.12 413.477 153.8 413.477 154.62C413.477 156.78 415.577 157.24 417.257 157.66C418.397 157.96 419.317 158.46 419.317 159.36C419.317 160.46 418.317 160.96 417.017 160.96C415.677 160.96 414.657 160.32 414.277 159.28L413.157 159.94C413.697 161.3 415.097 162.24 417.017 162.24C418.077 162.24 418.957 161.98 419.617 161.44C420.297 160.9 420.637 160.22 420.637 159.36C420.637 157.2 418.537 156.74 416.857 156.32C415.717 156.02 414.797 155.52 414.797 154.62ZM430.582 157.24C430.582 159.78 429.262 160.96 427.342 160.96C425.602 160.96 424.622 159.92 424.622 158.14V152H423.302V158.14C423.302 160.64 424.802 162.24 427.222 162.24C428.722 162.24 429.842 161.64 430.582 160.44V162H431.902V152H430.582V157.24ZM446.154 151.76C444.714 151.76 443.634 152.36 442.914 153.58C442.334 152.36 441.314 151.76 439.874 151.76C438.554 151.76 437.534 152.32 436.814 153.46V152H435.494V162H436.814V156.46C436.814 154.14 438.094 153.04 439.694 153.04C441.134 153.04 442.034 154 442.034 155.76V162H443.354V156.46C443.354 154.12 444.474 153.04 446.134 153.04C447.594 153.04 448.574 154.02 448.574 155.76V162H449.894V155.76C449.894 153.3 448.394 151.76 446.154 151.76ZM467.647 153.96C466.727 152.5 465.387 151.76 463.607 151.76C462.187 151.76 460.967 152.26 459.947 153.28C458.947 154.3 458.447 155.54 458.447 157C458.447 158.46 458.947 159.7 459.947 160.72C460.967 161.74 462.187 162.24 463.607 162.24C465.387 162.24 466.727 161.5 467.647 160.04V162H468.967V148H467.647V153.96ZM460.907 159.82C460.147 159.04 459.767 158.1 459.767 157C459.767 155.9 460.147 154.96 460.907 154.2C461.667 153.42 462.607 153.04 463.707 153.04C464.807 153.04 465.747 153.42 466.507 154.2C467.267 154.96 467.647 155.9 467.647 157C467.647 158.1 467.267 159.04 466.507 159.82C465.747 160.58 464.807 160.96 463.707 160.96C462.607 160.96 461.667 160.58 460.907 159.82ZM480.942 160.74C481.962 159.72 482.482 158.48 482.482 157C482.482 155.52 481.962 154.28 480.942 153.28C479.922 152.26 478.682 151.76 477.222 151.76C475.762 151.76 474.502 152.26 473.482 153.28C472.462 154.28 471.962 155.52 471.962 157C471.962 158.48 472.462 159.72 473.482 160.74C474.502 161.74 475.762 162.24 477.222 162.24C478.682 162.24 479.922 161.74 480.942 160.74ZM474.422 159.82C473.662 159.04 473.282 158.1 473.282 157C473.282 155.9 473.662 154.96 474.422 154.2C475.182 153.42 476.122 153.04 477.222 153.04C478.322 153.04 479.262 153.42 480.022 154.2C480.782 154.96 481.162 155.9 481.162 157C481.162 158.1 480.782 159.04 480.022 159.82C479.262 160.58 478.322 160.96 477.222 160.96C476.122 160.96 475.182 160.58 474.422 159.82ZM486.811 162V147.4H485.491V162H486.811ZM498.792 160.74C499.812 159.72 500.332 158.48 500.332 157C500.332 155.52 499.812 154.28 498.792 153.28C497.772 152.26 496.532 151.76 495.072 151.76C493.612 151.76 492.352 152.26 491.332 153.28C490.312 154.28 489.812 155.52 489.812 157C489.812 158.48 490.312 159.72 491.332 160.74C492.352 161.74 493.612 162.24 495.072 162.24C496.532 162.24 497.772 161.74 498.792 160.74ZM492.272 159.82C491.512 159.04 491.132 158.1 491.132 157C491.132 155.9 491.512 154.96 492.272 154.2C493.032 153.42 493.972 153.04 495.072 153.04C496.172 153.04 497.112 153.42 497.872 154.2C498.632 154.96 499.012 155.9 499.012 157C499.012 158.1 498.632 159.04 497.872 159.82C497.112 160.58 496.172 160.96 495.072 160.96C493.972 160.96 493.032 160.58 492.272 159.82ZM504.661 152H503.341V162H504.661V156.44C504.661 154.14 506.001 153.12 507.821 153.12V151.84C506.321 151.84 505.281 152.44 504.661 153.66V152ZM517.27 154.62C517.27 153.6 518.23 153.04 519.37 153.04C520.59 153.04 521.39 153.5 521.77 154.44L522.87 153.8C522.29 152.54 520.99 151.76 519.37 151.76C518.39 151.76 517.57 152.04 516.91 152.58C516.27 153.12 515.95 153.8 515.95 154.62C515.95 156.78 518.05 157.24 519.73 157.66C520.87 157.96 521.79 158.46 521.79 159.36C521.79 160.46 520.79 160.96 519.49 160.96C518.15 160.96 517.13 160.32 516.75 159.28L515.63 159.94C516.17 161.3 517.57 162.24 519.49 162.24C520.55 162.24 521.43 161.98 522.09 161.44C522.77 160.9 523.11 160.22 523.11 159.36C523.11 157.2 521.01 156.74 519.33 156.32C518.19 156.02 517.27 155.52 517.27 154.62ZM527.354 149.6C527.734 149.22 527.734 148.62 527.354 148.24C526.974 147.86 526.374 147.86 525.994 148.24C525.614 148.62 525.614 149.22 525.994 149.6C526.374 149.98 526.974 149.98 527.354 149.6ZM527.334 162V152H526.014V162H527.334ZM536.236 152H533.356V149.2L532.036 149.6V152H529.936V153.28H532.036V159.34C532.036 161.66 533.436 162.42 536.236 162V160.84C534.316 160.92 533.356 161.06 533.356 159.34V153.28H536.236V152ZM553.636 153.96C552.716 152.5 551.376 151.76 549.596 151.76C548.176 151.76 546.956 152.26 545.936 153.28C544.936 154.3 544.436 155.54 544.436 157C544.436 158.46 544.936 159.7 545.936 160.72C546.956 161.74 548.176 162.24 549.596 162.24C551.376 162.24 552.716 161.5 553.636 160.04V162H554.956V152H553.636V153.96ZM546.896 159.82C546.136 159.04 545.756 158.1 545.756 157C545.756 155.9 546.136 154.96 546.896 154.2C547.656 153.42 548.596 153.04 549.696 153.04C550.796 153.04 551.736 153.42 552.496 154.2C553.256 154.96 553.636 155.9 553.636 157C553.636 158.1 553.256 159.04 552.496 159.82C551.736 160.58 550.796 160.96 549.696 160.96C548.596 160.96 547.656 160.58 546.896 159.82ZM569.21 151.76C567.77 151.76 566.69 152.36 565.97 153.58C565.39 152.36 564.37 151.76 562.93 151.76C561.61 151.76 560.59 152.32 559.87 153.46V152H558.55V162H559.87V156.46C559.87 154.14 561.15 153.04 562.75 153.04C564.19 153.04 565.09 154 565.09 155.76V162H566.41V156.46C566.41 154.12 567.53 153.04 569.19 153.04C570.65 153.04 571.63 154.02 571.63 155.76V162H572.95V155.76C572.95 153.3 571.45 151.76 569.21 151.76ZM580.924 151.76C579.384 151.76 578.144 152.26 577.164 153.26C576.184 154.26 575.704 155.5 575.704 157C575.704 158.52 576.204 159.78 577.184 160.76C578.164 161.74 579.444 162.24 581.024 162.24C582.964 162.24 584.544 161.36 585.424 159.94L584.264 159.26C583.704 160.28 582.564 160.96 581.044 160.96C578.904 160.96 577.324 159.68 577.064 157.66H585.844C585.864 157.4 585.884 157.18 585.884 157.04C585.884 155.62 585.424 154.38 584.504 153.34C583.604 152.28 582.404 151.76 580.924 151.76ZM580.924 153.04C581.824 153.04 582.624 153.34 583.304 153.92C583.984 154.5 584.384 155.32 584.524 156.38H577.064C577.324 154.4 578.844 153.04 580.924 153.04ZM593.79 152H590.91V149.2L589.59 149.6V152H587.49V153.28H589.59V159.34C589.59 161.66 590.99 162.42 593.79 162V160.84C591.87 160.92 590.91 161.06 590.91 159.34V153.28H593.79V152ZM597.39 160.3L596.59 164.8H597.79L598.99 160.3H597.39ZM612.855 162.24C614.795 162.24 616.515 161.24 617.335 159.64L616.235 159C615.575 160.2 614.355 160.96 612.855 160.96C611.755 160.96 610.815 160.58 610.055 159.82C609.295 159.04 608.915 158.1 608.915 157C608.915 155.9 609.295 154.96 610.055 154.2C610.815 153.42 611.755 153.04 612.855 153.04C614.355 153.04 615.615 153.8 616.155 155L617.235 154.38C616.515 152.78 614.835 151.76 612.855 151.76C611.355 151.76 610.095 152.26 609.095 153.28C608.095 154.28 607.595 155.52 607.595 157C607.595 158.48 608.095 159.72 609.095 160.74C610.095 161.74 611.355 162.24 612.855 162.24ZM628.312 160.74C629.332 159.72 629.852 158.48 629.852 157C629.852 155.52 629.332 154.28 628.312 153.28C627.292 152.26 626.052 151.76 624.592 151.76C623.132 151.76 621.872 152.26 620.852 153.28C619.832 154.28 619.332 155.52 619.332 157C619.332 158.48 619.832 159.72 620.852 160.74C621.872 161.74 623.132 162.24 624.592 162.24C626.052 162.24 627.292 161.74 628.312 160.74ZM621.792 159.82C621.032 159.04 620.652 158.1 620.652 157C620.652 155.9 621.032 154.96 621.792 154.2C622.552 153.42 623.492 153.04 624.592 153.04C625.692 153.04 626.632 153.42 627.392 154.2C628.152 154.96 628.532 155.9 628.532 157C628.532 158.1 628.152 159.04 627.392 159.82C626.632 160.58 625.692 160.96 624.592 160.96C623.492 160.96 622.552 160.58 621.792 159.82ZM637.541 151.76C636.041 151.76 634.921 152.36 634.181 153.56V152H632.861V162H634.181V156.76C634.181 154.22 635.501 153.04 637.421 153.04C639.161 153.04 640.141 154.08 640.141 155.86V162H641.461V155.86C641.461 153.36 639.961 151.76 637.541 151.76ZM645.854 154.62C645.854 153.6 646.814 153.04 647.954 153.04C649.174 153.04 649.974 153.5 650.354 154.44L651.454 153.8C650.874 152.54 649.574 151.76 647.954 151.76C646.974 151.76 646.154 152.04 645.494 152.58C644.854 153.12 644.534 153.8 644.534 154.62C644.534 156.78 646.634 157.24 648.314 157.66C649.454 157.96 650.374 158.46 650.374 159.36C650.374 160.46 649.374 160.96 648.074 160.96C646.734 160.96 645.714 160.32 645.334 159.28L644.214 159.94C644.754 161.3 646.154 162.24 648.074 162.24C649.134 162.24 650.014 161.98 650.674 161.44C651.354 160.9 651.694 160.22 651.694 159.36C651.694 157.2 649.594 156.74 647.914 156.32C646.774 156.02 645.854 155.52 645.854 154.62ZM659.023 151.76C657.483 151.76 656.243 152.26 655.263 153.26C654.283 154.26 653.803 155.5 653.803 157C653.803 158.52 654.303 159.78 655.283 160.76C656.263 161.74 657.543 162.24 659.123 162.24C661.063 162.24 662.643 161.36 663.523 159.94L662.363 159.26C661.803 160.28 660.663 160.96 659.143 160.96C657.003 160.96 655.423 159.68 655.163 157.66H663.943C663.963 157.4 663.983 157.18 663.983 157.04C663.983 155.62 663.523 154.38 662.603 153.34C661.703 152.28 660.503 151.76 659.023 151.76ZM659.023 153.04C659.923 153.04 660.723 153.34 661.403 153.92C662.083 154.5 662.483 155.32 662.623 156.38H655.163C655.423 154.4 656.943 153.04 659.023 153.04ZM671.542 162.24C673.482 162.24 675.202 161.24 676.022 159.64L674.922 159C674.262 160.2 673.042 160.96 671.542 160.96C670.442 160.96 669.502 160.58 668.742 159.82C667.982 159.04 667.602 158.1 667.602 157C667.602 155.9 667.982 154.96 668.742 154.2C669.502 153.42 670.442 153.04 671.542 153.04C673.042 153.04 674.302 153.8 674.842 155L675.922 154.38C675.202 152.78 673.522 151.76 671.542 151.76C670.042 151.76 668.782 152.26 667.782 153.28C666.782 154.28 666.282 155.52 666.282 157C666.282 158.48 666.782 159.72 667.782 160.74C668.782 161.74 670.042 162.24 671.542 162.24ZM684.018 152H681.138V149.2L679.818 149.6V152H677.718V153.28H679.818V159.34C679.818 161.66 681.218 162.42 684.018 162V160.84C682.098 160.92 681.138 161.06 681.138 159.34V153.28H684.018V152ZM691.032 151.76C689.492 151.76 688.252 152.26 687.272 153.26C686.292 154.26 685.812 155.5 685.812 157C685.812 158.52 686.312 159.78 687.292 160.76C688.272 161.74 689.552 162.24 691.132 162.24C693.072 162.24 694.652 161.36 695.532 159.94L694.372 159.26C693.812 160.28 692.672 160.96 691.152 160.96C689.012 160.96 687.432 159.68 687.172 157.66H695.952C695.972 157.4 695.992 157.18 695.992 157.04C695.992 155.62 695.532 154.38 694.612 153.34C693.712 152.28 692.512 151.76 691.032 151.76ZM691.032 153.04C691.932 153.04 692.732 153.34 693.412 153.92C694.092 154.5 694.492 155.32 694.632 156.38H687.172C687.432 154.4 688.952 153.04 691.032 153.04ZM703.899 152H701.019V149.2L699.699 149.6V152H697.599V153.28H699.699V159.34C699.699 161.66 701.099 162.42 703.899 162V160.84C701.979 160.92 701.019 161.06 701.019 159.34V153.28H703.899V152ZM713.939 157.24C713.939 159.78 712.619 160.96 710.699 160.96C708.959 160.96 707.979 159.92 707.979 158.14V152H706.659V158.14C706.659 160.64 708.159 162.24 710.579 162.24C712.079 162.24 713.199 161.64 713.939 160.44V162H715.259V152H713.939V157.24ZM720.171 152H718.851V162H720.171V156.44C720.171 154.14 721.511 153.12 723.331 153.12V151.84C721.831 151.84 720.791 152.44 720.171 153.66V152ZM740.34 153.96C739.42 152.5 738.08 151.76 736.3 151.76C734.88 151.76 733.66 152.26 732.64 153.28C731.64 154.3 731.14 155.54 731.14 157C731.14 158.46 731.64 159.7 732.64 160.72C733.66 161.74 734.88 162.24 736.3 162.24C738.08 162.24 739.42 161.5 740.34 160.04V162H741.66V152H740.34V153.96ZM733.6 159.82C732.84 159.04 732.46 158.1 732.46 157C732.46 155.9 732.84 154.96 733.6 154.2C734.36 153.42 735.3 153.04 736.4 153.04C737.5 153.04 738.44 153.42 739.2 154.2C739.96 154.96 740.34 155.9 740.34 157C740.34 158.1 739.96 159.04 739.2 159.82C738.44 160.58 737.5 160.96 736.4 160.96C735.3 160.96 734.36 160.58 733.6 159.82ZM753.855 153.96C752.935 152.5 751.595 151.76 749.815 151.76C748.395 151.76 747.175 152.26 746.155 153.28C745.155 154.3 744.655 155.54 744.655 157C744.655 158.46 745.155 159.7 746.155 160.72C747.175 161.74 748.395 162.24 749.815 162.24C751.595 162.24 752.935 161.5 753.855 160.04V162H755.175V148H753.855V153.96ZM747.115 159.82C746.355 159.04 745.975 158.1 745.975 157C745.975 155.9 746.355 154.96 747.115 154.2C747.875 153.42 748.815 153.04 749.915 153.04C751.015 153.04 751.955 153.42 752.715 154.2C753.475 154.96 753.855 155.9 753.855 157C753.855 158.1 753.475 159.04 752.715 159.82C751.955 160.58 751.015 160.96 749.915 160.96C748.815 160.96 747.875 160.58 747.115 159.82ZM760.11 149.6C760.49 149.22 760.49 148.62 760.11 148.24C759.73 147.86 759.13 147.86 758.75 148.24C758.37 148.62 758.37 149.22 758.75 149.6C759.13 149.98 759.73 149.98 760.11 149.6ZM760.09 162V152H758.77V162H760.09ZM769.051 151.76C767.271 151.76 765.931 152.5 765.011 153.96V152H763.691V166H765.011V160.04C765.931 161.5 767.271 162.24 769.051 162.24C770.471 162.24 771.691 161.74 772.691 160.72C773.711 159.7 774.211 158.46 774.211 157C774.211 155.54 773.711 154.3 772.691 153.28C771.691 152.26 770.471 151.76 769.051 151.76ZM766.151 159.82C765.391 159.04 765.011 158.1 765.011 157C765.011 155.9 765.391 154.96 766.151 154.2C766.911 153.42 767.851 153.04 768.951 153.04C770.051 153.04 770.991 153.42 771.751 154.2C772.511 154.96 772.891 155.9 772.891 157C772.891 158.1 772.511 159.04 771.751 159.82C770.991 160.58 770.051 160.96 768.951 160.96C767.851 160.96 766.911 160.58 766.151 159.82ZM778.546 149.6C778.926 149.22 778.926 148.62 778.546 148.24C778.166 147.86 777.566 147.86 777.186 148.24C776.806 148.62 776.806 149.22 777.186 149.6C777.566 149.98 778.166 149.98 778.546 149.6ZM778.526 162V152H777.206V162H778.526ZM783.167 154.62C783.167 153.6 784.127 153.04 785.267 153.04C786.487 153.04 787.287 153.5 787.667 154.44L788.767 153.8C788.187 152.54 786.887 151.76 785.267 151.76C784.287 151.76 783.467 152.04 782.807 152.58C782.167 153.12 781.847 153.8 781.847 154.62C781.847 156.78 783.947 157.24 785.627 157.66C786.767 157.96 787.687 158.46 787.687 159.36C787.687 160.46 786.687 160.96 785.387 160.96C784.047 160.96 783.027 160.32 782.647 159.28L781.527 159.94C782.067 161.3 783.467 162.24 785.387 162.24C786.447 162.24 787.327 161.98 787.987 161.44C788.667 160.9 789.007 160.22 789.007 159.36C789.007 157.2 786.907 156.74 785.227 156.32C784.087 156.02 783.167 155.52 783.167 154.62ZM796.376 162.24C798.316 162.24 800.036 161.24 800.856 159.64L799.756 159C799.096 160.2 797.876 160.96 796.376 160.96C795.276 160.96 794.336 160.58 793.576 159.82C792.816 159.04 792.436 158.1 792.436 157C792.436 155.9 792.816 154.96 793.576 154.2C794.336 153.42 795.276 153.04 796.376 153.04C797.876 153.04 799.136 153.8 799.676 155L800.756 154.38C800.036 152.78 798.356 151.76 796.376 151.76C794.876 151.76 793.616 152.26 792.616 153.28C791.616 154.28 791.116 155.52 791.116 157C791.116 158.48 791.616 159.72 792.616 160.74C793.616 161.74 794.876 162.24 796.376 162.24ZM804.891 149.6C805.271 149.22 805.271 148.62 804.891 148.24C804.511 147.86 803.911 147.86 803.531 148.24C803.151 148.62 803.151 149.22 803.531 149.6C803.911 149.98 804.511 149.98 804.891 149.6ZM804.871 162V152H803.551V162H804.871ZM813.152 151.76C811.652 151.76 810.532 152.36 809.792 153.56V152H808.472V162H809.792V156.76C809.792 154.22 811.112 153.04 813.032 153.04C814.772 153.04 815.752 154.08 815.752 155.86V162H817.072V155.86C817.072 153.36 815.572 151.76 813.152 151.76ZM829.025 153.96C828.105 152.5 826.765 151.76 824.985 151.76C823.565 151.76 822.345 152.26 821.325 153.28C820.325 154.3 819.825 155.54 819.825 157C819.825 158.46 820.325 159.7 821.325 160.72C822.345 161.74 823.565 162.24 824.985 162.24C826.765 162.24 828.105 161.5 829.025 160.04V161.6C829.025 163.66 827.625 164.96 825.325 164.96C823.545 164.96 822.345 164.36 821.745 163.14L820.585 163.8C821.405 165.42 822.985 166.24 825.325 166.24C826.705 166.24 827.885 165.82 828.865 165C829.845 164.18 830.345 163.04 830.345 161.6V152H829.025V153.96ZM822.285 159.82C821.525 159.04 821.145 158.1 821.145 157C821.145 155.9 821.525 154.96 822.285 154.2C823.045 153.42 823.985 153.04 825.085 153.04C826.185 153.04 827.125 153.42 827.885 154.2C828.645 154.96 829.025 155.9 829.025 157C829.025 158.1 828.645 159.04 827.885 159.82C827.125 160.58 826.185 160.96 825.085 160.96C823.985 160.96 823.045 160.58 822.285 159.82ZM844.359 151.76C842.819 151.76 841.579 152.26 840.599 153.26C839.619 154.26 839.139 155.5 839.139 157C839.139 158.52 839.639 159.78 840.619 160.76C841.599 161.74 842.879 162.24 844.459 162.24C846.399 162.24 847.979 161.36 848.859 159.94L847.699 159.26C847.139 160.28 845.999 160.96 844.479 160.96C842.339 160.96 840.759 159.68 840.499 157.66H849.279C849.299 157.4 849.319 157.18 849.319 157.04C849.319 155.62 848.859 154.38 847.939 153.34C847.039 152.28 845.839 151.76 844.359 151.76ZM844.359 153.04C845.259 153.04 846.059 153.34 846.739 153.92C847.419 154.5 847.819 155.32 847.959 156.38H840.499C840.759 154.4 842.279 153.04 844.359 153.04ZM853.539 162V147.4H852.219V162H853.539ZM858.48 149.6C858.86 149.22 858.86 148.62 858.48 148.24C858.1 147.86 857.5 147.86 857.12 148.24C856.74 148.62 856.74 149.22 857.12 149.6C857.5 149.98 858.1 149.98 858.48 149.6ZM858.46 162V152H857.14V162H858.46ZM867.361 152H864.481V149.2L863.161 149.6V152H861.061V153.28H863.161V159.34C863.161 161.66 864.561 162.42 867.361 162V160.84C865.441 160.92 864.481 161.06 864.481 159.34V153.28H867.361V152ZM870.961 160.3L870.161 164.8H871.361L872.561 160.3H870.961ZM882.806 154.62C882.806 153.6 883.766 153.04 884.906 153.04C886.126 153.04 886.926 153.5 887.306 154.44L888.406 153.8C887.826 152.54 886.526 151.76 884.906 151.76C883.926 151.76 883.106 152.04 882.446 152.58C881.806 153.12 881.486 153.8 881.486 154.62C881.486 156.78 883.586 157.24 885.266 157.66C886.406 157.96 887.326 158.46 887.326 159.36C887.326 160.46 886.326 160.96 885.026 160.96C883.686 160.96 882.666 160.32 882.286 159.28L881.166 159.94C881.706 161.3 883.106 162.24 885.026 162.24C886.086 162.24 886.966 161.98 887.626 161.44C888.306 160.9 888.646 160.22 888.646 159.36C888.646 157.2 886.546 156.74 884.866 156.32C883.726 156.02 882.806 155.52 882.806 154.62ZM895.975 151.76C894.435 151.76 893.195 152.26 892.215 153.26C891.235 154.26 890.755 155.5 890.755 157C890.755 158.52 891.255 159.78 892.235 160.76C893.215 161.74 894.495 162.24 896.075 162.24C898.015 162.24 899.595 161.36 900.475 159.94L899.315 159.26C898.755 160.28 897.615 160.96 896.095 160.96C893.955 160.96 892.375 159.68 892.115 157.66H900.895C900.915 157.4 900.935 157.18 900.935 157.04C900.935 155.62 900.475 154.38 899.555 153.34C898.655 152.28 897.455 151.76 895.975 151.76ZM895.975 153.04C896.875 153.04 897.675 153.34 898.355 153.92C899.035 154.5 899.435 155.32 899.575 156.38H892.115C892.375 154.4 893.895 153.04 895.975 153.04ZM912.435 153.96C911.515 152.5 910.175 151.76 908.395 151.76C906.975 151.76 905.755 152.26 904.735 153.28C903.735 154.3 903.235 155.54 903.235 157C903.235 158.46 903.735 159.7 904.735 160.72C905.755 161.74 906.975 162.24 908.395 162.24C910.175 162.24 911.515 161.5 912.435 160.04V162H913.755V148H912.435V153.96ZM905.695 159.82C904.935 159.04 904.555 158.1 904.555 157C904.555 155.9 904.935 154.96 905.695 154.2C906.455 153.42 907.395 153.04 908.495 153.04C909.595 153.04 910.535 153.42 911.295 154.2C912.055 154.96 912.435 155.9 912.435 157C912.435 158.1 912.055 159.04 911.295 159.82C910.535 160.58 909.595 160.96 908.495 160.96C907.395 160.96 906.455 160.58 905.695 159.82ZM931.75 153.96C930.83 152.5 929.49 151.76 927.71 151.76C926.29 151.76 925.07 152.26 924.05 153.28C923.05 154.3 922.55 155.54 922.55 157C922.55 158.46 923.05 159.7 924.05 160.72C925.07 161.74 926.29 162.24 927.71 162.24C929.49 162.24 930.83 161.5 931.75 160.04V162H933.07V148H931.75V153.96ZM925.01 159.82C924.25 159.04 923.87 158.1 923.87 157C923.87 155.9 924.25 154.96 925.01 154.2C925.77 153.42 926.71 153.04 927.81 153.04C928.91 153.04 929.85 153.42 930.61 154.2C931.37 154.96 931.75 155.9 931.75 157C931.75 158.1 931.37 159.04 930.61 159.82C929.85 160.58 928.91 160.96 927.81 160.96C926.71 160.96 925.77 160.58 925.01 159.82ZM945.044 160.74C946.064 159.72 946.584 158.48 946.584 157C946.584 155.52 946.064 154.28 945.044 153.28C944.024 152.26 942.784 151.76 941.324 151.76C939.864 151.76 938.604 152.26 937.584 153.28C936.564 154.28 936.064 155.52 936.064 157C936.064 158.48 936.564 159.72 937.584 160.74C938.604 161.74 939.864 162.24 941.324 162.24C942.784 162.24 944.024 161.74 945.044 160.74ZM938.524 159.82C937.764 159.04 937.384 158.1 937.384 157C937.384 155.9 937.764 154.96 938.524 154.2C939.284 153.42 940.224 153.04 941.324 153.04C942.424 153.04 943.364 153.42 944.124 154.2C944.884 154.96 945.264 155.9 945.264 157C945.264 158.1 944.884 159.04 944.124 159.82C943.364 160.58 942.424 160.96 941.324 160.96C940.224 160.96 939.284 160.58 938.524 159.82ZM960.013 151.76C958.473 151.76 957.233 152.26 956.253 153.26C955.273 154.26 954.793 155.5 954.793 157C954.793 158.52 955.293 159.78 956.273 160.76C957.253 161.74 958.533 162.24 960.113 162.24C962.053 162.24 963.633 161.36 964.513 159.94L963.353 159.26C962.793 160.28 961.653 160.96 960.133 160.96C957.993 160.96 956.413 159.68 956.153 157.66H964.933C964.953 157.4 964.973 157.18 964.973 157.04C964.973 155.62 964.513 154.38 963.593 153.34C962.693 152.28 961.493 151.76 960.013 151.76ZM960.013 153.04C960.913 153.04 961.713 153.34 962.393 153.92C963.073 154.5 963.473 155.32 963.613 156.38H956.153C956.413 154.4 957.933 153.04 960.013 153.04ZM969.213 149.6C969.593 149.22 969.593 148.62 969.213 148.24C968.833 147.86 968.233 147.86 967.853 148.24C967.473 148.62 967.473 149.22 967.853 149.6C968.233 149.98 968.833 149.98 969.213 149.6ZM969.193 162V152H967.873V162H969.193ZM979.834 157.24C979.834 159.78 978.514 160.96 976.594 160.96C974.854 160.96 973.874 159.92 973.874 158.14V152H972.554V158.14C972.554 160.64 974.054 162.24 976.474 162.24C977.974 162.24 979.094 161.64 979.834 160.44V162H981.154V152H979.834V157.24ZM985.786 154.62C985.786 153.6 986.746 153.04 987.886 153.04C989.106 153.04 989.906 153.5 990.286 154.44L991.386 153.8C990.806 152.54 989.506 151.76 987.886 151.76C986.906 151.76 986.086 152.04 985.426 152.58C984.786 153.12 984.466 153.8 984.466 154.62C984.466 156.78 986.566 157.24 988.246 157.66C989.386 157.96 990.306 158.46 990.306 159.36C990.306 160.46 989.306 160.96 988.006 160.96C986.666 160.96 985.646 160.32 985.266 159.28L984.146 159.94C984.686 161.3 986.086 162.24 988.006 162.24C989.066 162.24 989.946 161.98 990.606 161.44C991.286 160.9 991.626 160.22 991.626 159.36C991.626 157.2 989.526 156.74 987.846 156.32C986.706 156.02 985.786 155.52 985.786 154.62ZM1005.29 151.76C1003.85 151.76 1002.77 152.36 1002.05 153.58C1001.47 152.36 1000.45 151.76 999.009 151.76C997.689 151.76 996.669 152.32 995.949 153.46V152H994.629V162H995.949V156.46C995.949 154.14 997.229 153.04 998.829 153.04C1000.27 153.04 1001.17 154 1001.17 155.76V162H1002.49V156.46C1002.49 154.12 1003.61 153.04 1005.27 153.04C1006.73 153.04 1007.71 154.02 1007.71 155.76V162H1009.03V155.76C1009.03 153.3 1007.53 151.76 1005.29 151.76ZM1020.76 160.74C1021.78 159.72 1022.3 158.48 1022.3 157C1022.3 155.52 1021.78 154.28 1020.76 153.28C1019.74 152.26 1018.5 151.76 1017.04 151.76C1015.58 151.76 1014.32 152.26 1013.3 153.28C1012.28 154.28 1011.78 155.52 1011.78 157C1011.78 158.48 1012.28 159.72 1013.3 160.74C1014.32 161.74 1015.58 162.24 1017.04 162.24C1018.5 162.24 1019.74 161.74 1020.76 160.74ZM1014.24 159.82C1013.48 159.04 1013.1 158.1 1013.1 157C1013.1 155.9 1013.48 154.96 1014.24 154.2C1015 153.42 1015.94 153.04 1017.04 153.04C1018.14 153.04 1019.08 153.42 1019.84 154.2C1020.6 154.96 1020.98 155.9 1020.98 157C1020.98 158.1 1020.6 159.04 1019.84 159.82C1019.08 160.58 1018.14 160.96 1017.04 160.96C1015.94 160.96 1015 160.58 1014.24 159.82ZM1033.91 153.96C1032.99 152.5 1031.65 151.76 1029.87 151.76C1028.45 151.76 1027.23 152.26 1026.21 153.28C1025.21 154.3 1024.71 155.54 1024.71 157C1024.71 158.46 1025.21 159.7 1026.21 160.72C1027.23 161.74 1028.45 162.24 1029.87 162.24C1031.65 162.24 1032.99 161.5 1033.91 160.04V162H1035.23V148H1033.91V153.96ZM1027.17 159.82C1026.41 159.04 1026.03 158.1 1026.03 157C1026.03 155.9 1026.41 154.96 1027.17 154.2C1027.93 153.42 1028.87 153.04 1029.97 153.04C1031.07 153.04 1032.01 153.42 1032.77 154.2C1033.53 154.96 1033.91 155.9 1033.91 157C1033.91 158.1 1033.53 159.04 1032.77 159.82C1032.01 160.58 1031.07 160.96 1029.97 160.96C1028.87 160.96 1027.93 160.58 1027.17 159.82ZM431.859 182H428.979V179.2L427.659 179.6V182H425.559V183.28H427.659V189.34C427.659 191.66 429.059 192.42 431.859 192V190.84C429.939 190.92 428.979 191.06 428.979 189.34V183.28H431.859V182ZM438.873 181.76C437.333 181.76 436.093 182.26 435.113 183.26C434.133 184.26 433.653 185.5 433.653 187C433.653 188.52 434.153 189.78 435.133 190.76C436.113 191.74 437.393 192.24 438.973 192.24C440.913 192.24 442.493 191.36 443.373 189.94L442.213 189.26C441.653 190.28 440.513 190.96 438.993 190.96C436.853 190.96 435.273 189.68 435.013 187.66H443.793C443.813 187.4 443.833 187.18 443.833 187.04C443.833 185.62 443.373 184.38 442.453 183.34C441.553 182.28 440.353 181.76 438.873 181.76ZM438.873 183.04C439.773 183.04 440.573 183.34 441.253 183.92C441.933 184.5 442.333 185.32 442.473 186.38H435.013C435.273 184.4 436.793 183.04 438.873 183.04ZM457.393 181.76C455.953 181.76 454.873 182.36 454.153 183.58C453.573 182.36 452.553 181.76 451.113 181.76C449.793 181.76 448.773 182.32 448.053 183.46V182H446.733V192H448.053V186.46C448.053 184.14 449.333 183.04 450.933 183.04C452.373 183.04 453.273 184 453.273 185.76V192H454.593V186.46C454.593 184.12 455.713 183.04 457.373 183.04C458.833 183.04 459.813 184.02 459.813 185.76V192H461.133V185.76C461.133 183.3 459.633 181.76 457.393 181.76ZM469.846 181.76C468.066 181.76 466.726 182.5 465.806 183.96V182H464.486V196H465.806V190.04C466.726 191.5 468.066 192.24 469.846 192.24C471.266 192.24 472.486 191.74 473.486 190.72C474.506 189.7 475.006 188.46 475.006 187C475.006 185.54 474.506 184.3 473.486 183.28C472.486 182.26 471.266 181.76 469.846 181.76ZM466.946 189.82C466.186 189.04 465.806 188.1 465.806 187C465.806 185.9 466.186 184.96 466.946 184.2C467.706 183.42 468.646 183.04 469.746 183.04C470.846 183.04 471.786 183.42 472.546 184.2C473.306 184.96 473.686 185.9 473.686 187C473.686 188.1 473.306 189.04 472.546 189.82C471.786 190.58 470.846 190.96 469.746 190.96C468.646 190.96 467.706 190.58 466.946 189.82ZM486.381 190.74C487.401 189.72 487.921 188.48 487.921 187C487.921 185.52 487.401 184.28 486.381 183.28C485.361 182.26 484.121 181.76 482.661 181.76C481.201 181.76 479.941 182.26 478.921 183.28C477.901 184.28 477.401 185.52 477.401 187C477.401 188.48 477.901 189.72 478.921 190.74C479.941 191.74 481.201 192.24 482.661 192.24C484.121 192.24 485.361 191.74 486.381 190.74ZM479.861 189.82C479.101 189.04 478.721 188.1 478.721 187C478.721 185.9 479.101 184.96 479.861 184.2C480.621 183.42 481.561 183.04 482.661 183.04C483.761 183.04 484.701 183.42 485.461 184.2C486.221 184.96 486.601 185.9 486.601 187C486.601 188.1 486.221 189.04 485.461 189.82C484.701 190.58 483.761 190.96 482.661 190.96C481.561 190.96 480.621 190.58 479.861 189.82ZM492.25 182H490.93V192H492.25V186.44C492.25 184.14 493.59 183.12 495.41 183.12V181.84C493.91 181.84 492.87 182.44 492.25 183.66V182ZM505.159 179.6C505.539 179.22 505.539 178.62 505.159 178.24C504.779 177.86 504.179 177.86 503.799 178.24C503.419 178.62 503.419 179.22 503.799 179.6C504.179 179.98 504.779 179.98 505.159 179.6ZM505.139 192V182H503.819V192H505.139ZM513.42 181.76C511.92 181.76 510.8 182.36 510.06 183.56V182H508.74V192H510.06V186.76C510.06 184.22 511.38 183.04 513.3 183.04C515.04 183.04 516.02 184.08 516.02 185.86V192H517.34V185.86C517.34 183.36 515.84 181.76 513.42 181.76ZM525.352 192.24C527.292 192.24 529.012 191.24 529.832 189.64L528.732 189C528.072 190.2 526.852 190.96 525.352 190.96C524.252 190.96 523.312 190.58 522.552 189.82C521.792 189.04 521.412 188.1 521.412 187C521.412 185.9 521.792 184.96 522.552 184.2C523.312 183.42 524.252 183.04 525.352 183.04C526.852 183.04 528.112 183.8 528.652 185L529.732 184.38C529.012 182.78 527.332 181.76 525.352 181.76C523.852 181.76 522.592 182.26 521.592 183.28C520.592 184.28 520.092 185.52 520.092 187C520.092 188.48 520.592 189.72 521.592 190.74C522.592 191.74 523.852 192.24 525.352 192.24ZM533.867 179.6C534.247 179.22 534.247 178.62 533.867 178.24C533.487 177.86 532.887 177.86 532.507 178.24C532.127 178.62 532.127 179.22 532.507 179.6C532.887 179.98 533.487 179.98 533.867 179.6ZM533.847 192V182H532.527V192H533.847ZM546.048 183.96C545.128 182.5 543.788 181.76 542.008 181.76C540.588 181.76 539.368 182.26 538.348 183.28C537.348 184.3 536.848 185.54 536.848 187C536.848 188.46 537.348 189.7 538.348 190.72C539.368 191.74 540.588 192.24 542.008 192.24C543.788 192.24 545.128 191.5 546.048 190.04V192H547.368V178H546.048V183.96ZM539.308 189.82C538.548 189.04 538.168 188.1 538.168 187C538.168 185.9 538.548 184.96 539.308 184.2C540.068 183.42 541.008 183.04 542.108 183.04C543.208 183.04 544.148 183.42 544.908 184.2C545.668 184.96 546.048 185.9 546.048 187C546.048 188.1 545.668 189.04 544.908 189.82C544.148 190.58 543.208 190.96 542.108 190.96C541.008 190.96 540.068 190.58 539.308 189.82ZM552.303 179.6C552.683 179.22 552.683 178.62 552.303 178.24C551.923 177.86 551.323 177.86 550.943 178.24C550.563 178.62 550.563 179.22 550.943 179.6C551.323 179.98 551.923 179.98 552.303 179.6ZM552.283 192V182H550.963V192H552.283ZM564.484 183.96C563.564 182.5 562.224 181.76 560.444 181.76C559.024 181.76 557.804 182.26 556.784 183.28C555.784 184.3 555.284 185.54 555.284 187C555.284 188.46 555.784 189.7 556.784 190.72C557.804 191.74 559.024 192.24 560.444 192.24C562.224 192.24 563.564 191.5 564.484 190.04V192H565.804V178H564.484V183.96ZM557.744 189.82C556.984 189.04 556.604 188.1 556.604 187C556.604 185.9 556.984 184.96 557.744 184.2C558.504 183.42 559.444 183.04 560.544 183.04C561.644 183.04 562.584 183.42 563.344 184.2C564.104 184.96 564.484 185.9 564.484 187C564.484 188.1 564.104 189.04 563.344 189.82C562.584 190.58 561.644 190.96 560.544 190.96C559.444 190.96 558.504 190.58 557.744 189.82ZM576.439 187.24C576.439 189.78 575.119 190.96 573.199 190.96C571.459 190.96 570.479 189.92 570.479 188.14V182H569.159V188.14C569.159 190.64 570.659 192.24 573.079 192.24C574.579 192.24 575.699 191.64 576.439 190.44V192H577.759V182H576.439V187.24ZM586.032 181.76C584.532 181.76 583.412 182.36 582.672 183.56V182H581.352V192H582.672V186.76C582.672 184.22 583.992 183.04 585.912 183.04C587.652 183.04 588.632 184.08 588.632 185.86V192H589.952V185.86C589.952 183.36 588.452 181.76 586.032 181.76ZM598.604 182H595.724V179.2L594.404 179.6V182H592.304V183.28H594.404V189.34C594.404 191.66 595.804 192.42 598.604 192V190.84C596.684 190.92 595.724 191.06 595.724 189.34V183.28H598.604V182ZM614.444 187.24C614.444 189.78 613.124 190.96 611.204 190.96C609.464 190.96 608.484 189.92 608.484 188.14V182H607.164V188.14C607.164 190.64 608.664 192.24 611.084 192.24C612.584 192.24 613.704 191.64 614.444 190.44V192H615.764V182H614.444V187.24ZM624.656 182H621.776V179.2L620.456 179.6V182H618.356V183.28H620.456V189.34C620.456 191.66 621.856 192.42 624.656 192V190.84C622.736 190.92 621.776 191.06 621.776 189.34V183.28H624.656V182ZM634.776 192V177.4H633.456V192H634.776ZM646.977 183.96C646.057 182.5 644.717 181.76 642.937 181.76C641.517 181.76 640.297 182.26 639.277 183.28C638.277 184.3 637.777 185.54 637.777 187C637.777 188.46 638.277 189.7 639.277 190.72C640.297 191.74 641.517 192.24 642.937 192.24C644.717 192.24 646.057 191.5 646.977 190.04V192H648.297V182H646.977V183.96ZM640.237 189.82C639.477 189.04 639.097 188.1 639.097 187C639.097 185.9 639.477 184.96 640.237 184.2C640.997 183.42 641.937 183.04 643.037 183.04C644.137 183.04 645.077 183.42 645.837 184.2C646.597 184.96 646.977 185.9 646.977 187C646.977 188.1 646.597 189.04 645.837 189.82C645.077 190.58 644.137 190.96 643.037 190.96C641.937 190.96 640.997 190.58 640.237 189.82ZM657.252 181.76C655.472 181.76 654.132 182.5 653.212 183.96V178H651.892V192H653.212V190.04C654.132 191.5 655.472 192.24 657.252 192.24C658.672 192.24 659.892 191.74 660.892 190.72C661.912 189.7 662.412 188.46 662.412 187C662.412 185.54 661.912 184.3 660.892 183.28C659.892 182.26 658.672 181.76 657.252 181.76ZM654.352 189.82C653.592 189.04 653.212 188.1 653.212 187C653.212 185.9 653.592 184.96 654.352 184.2C655.112 183.42 656.052 183.04 657.152 183.04C658.252 183.04 659.192 183.42 659.952 184.2C660.712 184.96 661.092 185.9 661.092 187C661.092 188.1 660.712 189.04 659.952 189.82C659.192 190.58 658.252 190.96 657.152 190.96C656.052 190.96 655.112 190.58 654.352 189.82ZM673.787 190.74C674.807 189.72 675.327 188.48 675.327 187C675.327 185.52 674.807 184.28 673.787 183.28C672.767 182.26 671.527 181.76 670.067 181.76C668.607 181.76 667.347 182.26 666.327 183.28C665.307 184.28 664.807 185.52 664.807 187C664.807 188.48 665.307 189.72 666.327 190.74C667.347 191.74 668.607 192.24 670.067 192.24C671.527 192.24 672.767 191.74 673.787 190.74ZM667.267 189.82C666.507 189.04 666.127 188.1 666.127 187C666.127 185.9 666.507 184.96 667.267 184.2C668.027 183.42 668.967 183.04 670.067 183.04C671.167 183.04 672.107 183.42 672.867 184.2C673.627 184.96 674.007 185.9 674.007 187C674.007 188.1 673.627 189.04 672.867 189.82C672.107 190.58 671.167 190.96 670.067 190.96C668.967 190.96 668.027 190.58 667.267 189.82ZM679.656 182H678.336V192H679.656V186.44C679.656 184.14 680.996 183.12 682.816 183.12V181.84C681.316 181.84 680.276 182.44 679.656 183.66V182ZM689.44 181.76C687.9 181.76 686.66 182.26 685.68 183.26C684.7 184.26 684.22 185.5 684.22 187C684.22 188.52 684.72 189.78 685.7 190.76C686.68 191.74 687.96 192.24 689.54 192.24C691.48 192.24 693.06 191.36 693.94 189.94L692.78 189.26C692.22 190.28 691.08 190.96 689.56 190.96C687.42 190.96 685.84 189.68 685.58 187.66H694.36C694.38 187.4 694.4 187.18 694.4 187.04C694.4 185.62 693.94 184.38 693.02 183.34C692.12 182.28 690.92 181.76 689.44 181.76ZM689.44 183.04C690.34 183.04 691.14 183.34 691.82 183.92C692.5 184.5 692.9 185.32 693.04 186.38H685.58C685.84 184.4 687.36 183.04 689.44 183.04ZM707.719 181.76C706.179 181.76 704.939 182.26 703.959 183.26C702.979 184.26 702.499 185.5 702.499 187C702.499 188.52 702.999 189.78 703.979 190.76C704.959 191.74 706.239 192.24 707.819 192.24C709.759 192.24 711.339 191.36 712.219 189.94L711.059 189.26C710.499 190.28 709.359 190.96 707.839 190.96C705.699 190.96 704.119 189.68 703.859 187.66H712.639C712.659 187.4 712.679 187.18 712.679 187.04C712.679 185.62 712.219 184.38 711.299 183.34C710.399 182.28 709.199 181.76 707.719 181.76ZM707.719 183.04C708.619 183.04 709.419 183.34 710.099 183.92C710.779 184.5 711.179 185.32 711.319 186.38H703.859C704.119 184.4 705.639 183.04 707.719 183.04ZM720.586 182H717.706V179.2L716.386 179.6V182H714.286V183.28H716.386V189.34C716.386 191.66 717.786 192.42 720.586 192V190.84C718.666 190.92 717.706 191.06 717.706 189.34V183.28H720.586V182ZM737.986 183.96C737.066 182.5 735.726 181.76 733.946 181.76C732.526 181.76 731.306 182.26 730.286 183.28C729.286 184.3 728.786 185.54 728.786 187C728.786 188.46 729.286 189.7 730.286 190.72C731.306 191.74 732.526 192.24 733.946 192.24C735.726 192.24 737.066 191.5 737.986 190.04V192H739.306V178H737.986V183.96ZM731.246 189.82C730.486 189.04 730.106 188.1 730.106 187C730.106 185.9 730.486 184.96 731.246 184.2C732.006 183.42 732.946 183.04 734.046 183.04C735.146 183.04 736.086 183.42 736.846 184.2C737.606 184.96 737.986 185.9 737.986 187C737.986 188.1 737.606 189.04 736.846 189.82C736.086 190.58 735.146 190.96 734.046 190.96C732.946 190.96 732.006 190.58 731.246 189.82ZM751.281 190.74C752.301 189.72 752.821 188.48 752.821 187C752.821 185.52 752.301 184.28 751.281 183.28C750.261 182.26 749.021 181.76 747.561 181.76C746.101 181.76 744.841 182.26 743.821 183.28C742.801 184.28 742.301 185.52 742.301 187C742.301 188.48 742.801 189.72 743.821 190.74C744.841 191.74 746.101 192.24 747.561 192.24C749.021 192.24 750.261 191.74 751.281 190.74ZM744.761 189.82C744.001 189.04 743.621 188.1 743.621 187C743.621 185.9 744.001 184.96 744.761 184.2C745.521 183.42 746.461 183.04 747.561 183.04C748.661 183.04 749.601 183.42 750.361 184.2C751.121 184.96 751.501 185.9 751.501 187C751.501 188.1 751.121 189.04 750.361 189.82C749.601 190.58 748.661 190.96 747.561 190.96C746.461 190.96 745.521 190.58 744.761 189.82ZM757.15 192V177.4H755.83V192H757.15ZM769.131 190.74C770.151 189.72 770.671 188.48 770.671 187C770.671 185.52 770.151 184.28 769.131 183.28C768.111 182.26 766.871 181.76 765.411 181.76C763.951 181.76 762.691 182.26 761.671 183.28C760.651 184.28 760.151 185.52 760.151 187C760.151 188.48 760.651 189.72 761.671 190.74C762.691 191.74 763.951 192.24 765.411 192.24C766.871 192.24 768.111 191.74 769.131 190.74ZM762.611 189.82C761.851 189.04 761.471 188.1 761.471 187C761.471 185.9 761.851 184.96 762.611 184.2C763.371 183.42 764.311 183.04 765.411 183.04C766.511 183.04 767.451 183.42 768.211 184.2C768.971 184.96 769.351 185.9 769.351 187C769.351 188.1 768.971 189.04 768.211 189.82C767.451 190.58 766.511 190.96 765.411 190.96C764.311 190.96 763.371 190.58 762.611 189.82ZM775 182H773.68V192H775V186.44C775 184.14 776.34 183.12 778.16 183.12V181.84C776.66 181.84 775.62 182.44 775 183.66V182ZM784.783 181.76C783.243 181.76 782.003 182.26 781.023 183.26C780.043 184.26 779.563 185.5 779.563 187C779.563 188.52 780.063 189.78 781.043 190.76C782.023 191.74 783.303 192.24 784.883 192.24C786.823 192.24 788.403 191.36 789.283 189.94L788.123 189.26C787.563 190.28 786.423 190.96 784.903 190.96C782.763 190.96 781.183 189.68 780.923 187.66H789.703C789.723 187.4 789.743 187.18 789.743 187.04C789.743 185.62 789.283 184.38 788.363 183.34C787.463 182.28 786.263 181.76 784.783 181.76ZM784.783 183.04C785.683 183.04 786.483 183.34 787.163 183.92C787.843 184.5 788.243 185.32 788.383 186.38H780.923C781.183 184.4 782.703 183.04 784.783 183.04ZM809.103 181.76C807.663 181.76 806.583 182.36 805.863 183.58C805.283 182.36 804.263 181.76 802.823 181.76C801.503 181.76 800.483 182.32 799.763 183.46V182H798.443V192H799.763V186.46C799.763 184.14 801.043 183.04 802.643 183.04C804.083 183.04 804.983 184 804.983 185.76V192H806.303V186.46C806.303 184.12 807.423 183.04 809.083 183.04C810.543 183.04 811.523 184.02 811.523 185.76V192H812.843V185.76C812.843 183.3 811.343 181.76 809.103 181.76ZM824.796 183.96C823.876 182.5 822.536 181.76 820.756 181.76C819.336 181.76 818.116 182.26 817.096 183.28C816.096 184.3 815.596 185.54 815.596 187C815.596 188.46 816.096 189.7 817.096 190.72C818.116 191.74 819.336 192.24 820.756 192.24C822.536 192.24 823.876 191.5 824.796 190.04V192H826.116V182H824.796V183.96ZM818.056 189.82C817.296 189.04 816.916 188.1 816.916 187C816.916 185.9 817.296 184.96 818.056 184.2C818.816 183.42 819.756 183.04 820.856 183.04C821.956 183.04 822.896 183.42 823.656 184.2C824.416 184.96 824.796 185.9 824.796 187C824.796 188.1 824.416 189.04 823.656 189.82C822.896 190.58 821.956 190.96 820.856 190.96C819.756 190.96 818.816 190.58 818.056 189.82ZM838.311 183.96C837.391 182.5 836.051 181.76 834.271 181.76C832.851 181.76 831.631 182.26 830.611 183.28C829.611 184.3 829.111 185.54 829.111 187C829.111 188.46 829.611 189.7 830.611 190.72C831.631 191.74 832.851 192.24 834.271 192.24C836.051 192.24 837.391 191.5 838.311 190.04V191.6C838.311 193.66 836.911 194.96 834.611 194.96C832.831 194.96 831.631 194.36 831.031 193.14L829.871 193.8C830.691 195.42 832.271 196.24 834.611 196.24C835.991 196.24 837.171 195.82 838.151 195C839.131 194.18 839.631 193.04 839.631 191.6V182H838.311V183.96ZM831.571 189.82C830.811 189.04 830.431 188.1 830.431 187C830.431 185.9 830.811 184.96 831.571 184.2C832.331 183.42 833.271 183.04 834.371 183.04C835.471 183.04 836.411 183.42 837.171 184.2C837.931 184.96 838.311 185.9 838.311 187C838.311 188.1 837.931 189.04 837.171 189.82C836.411 190.58 835.471 190.96 834.371 190.96C833.271 190.96 832.331 190.58 831.571 189.82ZM847.906 181.76C846.406 181.76 845.286 182.36 844.546 183.56V182H843.226V192H844.546V186.76C844.546 184.22 845.866 183.04 847.786 183.04C849.526 183.04 850.506 184.08 850.506 185.86V192H851.826V185.86C851.826 183.36 850.326 181.76 847.906 181.76ZM863.778 183.96C862.858 182.5 861.518 181.76 859.738 181.76C858.318 181.76 857.098 182.26 856.078 183.28C855.078 184.3 854.578 185.54 854.578 187C854.578 188.46 855.078 189.7 856.078 190.72C857.098 191.74 858.318 192.24 859.738 192.24C861.518 192.24 862.858 191.5 863.778 190.04V192H865.098V182H863.778V183.96ZM857.038 189.82C856.278 189.04 855.898 188.1 855.898 187C855.898 185.9 856.278 184.96 857.038 184.2C857.798 183.42 858.738 183.04 859.838 183.04C860.938 183.04 861.878 183.42 862.638 184.2C863.398 184.96 863.778 185.9 863.778 187C863.778 188.1 863.398 189.04 862.638 189.82C861.878 190.58 860.938 190.96 859.838 190.96C858.738 190.96 857.798 190.58 857.038 189.82ZM883.093 183.96C882.173 182.5 880.833 181.76 879.053 181.76C877.633 181.76 876.413 182.26 875.393 183.28C874.393 184.3 873.893 185.54 873.893 187C873.893 188.46 874.393 189.7 875.393 190.72C876.413 191.74 877.633 192.24 879.053 192.24C880.833 192.24 882.173 191.5 883.093 190.04V192H884.413V182H883.093V183.96ZM876.353 189.82C875.593 189.04 875.213 188.1 875.213 187C875.213 185.9 875.593 184.96 876.353 184.2C877.113 183.42 878.053 183.04 879.153 183.04C880.253 183.04 881.193 183.42 881.953 184.2C882.713 184.96 883.093 185.9 883.093 187C883.093 188.1 882.713 189.04 881.953 189.82C881.193 190.58 880.253 190.96 879.153 190.96C878.053 190.96 877.113 190.58 876.353 189.82ZM889.328 192V177.4H888.008V192H889.328ZM894.269 179.6C894.649 179.22 894.649 178.62 894.269 178.24C893.889 177.86 893.289 177.86 892.909 178.24C892.529 178.62 892.529 179.22 892.909 179.6C893.289 179.98 893.889 179.98 894.269 179.6ZM894.249 192V182H892.929V192H894.249ZM906.45 183.96C905.53 182.5 904.19 181.76 902.41 181.76C900.99 181.76 899.77 182.26 898.75 183.28C897.75 184.3 897.25 185.54 897.25 187C897.25 188.46 897.75 189.7 898.75 190.72C899.77 191.74 900.99 192.24 902.41 192.24C904.19 192.24 905.53 191.5 906.45 190.04V196H907.77V182H906.45V183.96ZM899.71 189.82C898.95 189.04 898.57 188.1 898.57 187C898.57 185.9 898.95 184.96 899.71 184.2C900.47 183.42 901.41 183.04 902.51 183.04C903.61 183.04 904.55 183.42 905.31 184.2C906.07 184.96 906.45 185.9 906.45 187C906.45 188.1 906.07 189.04 905.31 189.82C904.55 190.58 903.61 190.96 902.51 190.96C901.41 190.96 900.47 190.58 899.71 189.82ZM918.405 187.24C918.405 189.78 917.085 190.96 915.165 190.96C913.425 190.96 912.445 189.92 912.445 188.14V182H911.125V188.14C911.125 190.64 912.625 192.24 915.045 192.24C916.545 192.24 917.665 191.64 918.405 190.44V192H919.725V182H918.405V187.24ZM931.917 183.96C930.997 182.5 929.657 181.76 927.877 181.76C926.457 181.76 925.237 182.26 924.217 183.28C923.217 184.3 922.717 185.54 922.717 187C922.717 188.46 923.217 189.7 924.217 190.72C925.237 191.74 926.457 192.24 927.877 192.24C929.657 192.24 930.997 191.5 931.917 190.04V192H933.237V182H931.917V183.96ZM925.177 189.82C924.417 189.04 924.037 188.1 924.037 187C924.037 185.9 924.417 184.96 925.177 184.2C925.937 183.42 926.877 183.04 927.977 183.04C929.077 183.04 930.017 183.42 930.777 184.2C931.537 184.96 931.917 185.9 931.917 187C931.917 188.1 931.537 189.04 930.777 189.82C930.017 190.58 929.077 190.96 927.977 190.96C926.877 190.96 925.937 190.58 925.177 189.82ZM938.512 191.88C938.932 191.46 938.932 190.74 938.512 190.32C938.092 189.9 937.372 189.9 936.952 190.32C936.532 190.74 936.532 191.46 936.952 191.88C937.372 192.3 938.092 192.3 938.512 191.88Z" fill="white" fill-opacity="0.6"/>
<defs>
<linearGradient id="paint0_linear" x1="1366" y1="-59.9999" x2="437.548" y2="732.556" gradientUnits="userSpaceOnUse">
<stop stop-color="#98D0FC"/>
<stop offset="1" stop-color="#3481D7"/>
</linearGradient>
</defs>
</svg>
