<svg width="184" height="26" viewBox="0 0 184 26" fill="none" xmlns="http://www.w3.org/2000/svg">
<g opacity="0.6">
<path d="M6.62 11.79C8.06 14.62 10.38 16.93 13.21 18.38L15.41 16.18C15.68 15.91 16.08 15.82 16.43 15.94C17.55 16.31 18.76 16.51 20 16.51C20.55 16.51 21 16.96 21 17.51V21C21 21.55 20.55 22 20 22C10.61 22 3 14.39 3 5C3 4.45 3.45 4 4 4H7.5C8.05 4 8.5 4.45 8.5 5C8.5 6.25 8.7 7.45 9.07 8.57C9.18 8.92 9.1 9.31 8.82 9.59L6.62 11.79Z" fill="#1F3F68"/>
<path d="M44.656 11.016V8.152H43.872V11.016H41.008V11.784H43.872V14.648H44.656V11.784H47.52V11.016H44.656ZM53.4593 9.8C53.0593 9.8 52.6433 9.864 52.2433 9.976L55.1073 5.8H54.1473L50.3873 11.256C49.9233 11.912 49.6993 12.648 49.6993 13.496C49.6993 14.568 50.0513 15.464 50.7553 16.152C51.4593 16.84 52.3553 17.176 53.4593 17.176C54.5633 17.176 55.4593 16.84 56.1633 16.152C56.8673 15.464 57.2193 14.568 57.2193 13.496C57.2193 12.408 56.8673 11.528 56.1633 10.84C55.4593 10.152 54.5633 9.8 53.4593 9.8ZM56.3713 13.496C56.3713 15.176 55.2033 16.36 53.4593 16.36C51.7153 16.36 50.5633 15.176 50.5633 13.496C50.5633 12.648 50.8193 11.944 51.3473 11.416C51.8753 10.888 52.5793 10.616 53.4593 10.616C54.3393 10.616 55.0433 10.888 55.5713 11.416C56.0993 11.944 56.3713 12.648 56.3713 13.496ZM65.6643 17V16.184H59.8403L63.3123 12.616C64.6403 11.272 65.4083 10.12 65.4083 8.84C65.4083 7.848 65.0723 7.064 64.4163 6.488C63.7603 5.912 62.9923 5.624 62.0803 5.624C60.5923 5.624 59.3443 6.36 58.6883 7.704L59.4083 8.136C59.9363 7 60.8323 6.44 62.0803 6.44C63.4883 6.44 64.5443 7.352 64.5443 8.84C64.5443 9.704 63.9363 10.76 62.7363 12.008L58.6243 16.232V17H65.6643ZM74.1658 12.44V11.672H68.4058V12.44H74.1658ZM82.297 11.208C83.305 10.712 83.929 9.8 83.929 8.648C83.929 7.704 83.609 6.952 82.953 6.424C82.313 5.896 81.529 5.624 80.585 5.624C79.641 5.624 78.857 5.896 78.201 6.424C77.561 6.952 77.241 7.704 77.241 8.648C77.241 9.8 77.865 10.712 78.873 11.208C77.641 11.704 76.873 12.728 76.873 14.008C76.873 15 77.225 15.784 77.913 16.344C78.601 16.904 79.497 17.176 80.585 17.176C81.673 17.176 82.569 16.904 83.257 16.344C83.945 15.784 84.297 15 84.297 14.008C84.297 12.728 83.529 11.704 82.297 11.208ZM78.089 8.648C78.089 7.256 79.113 6.44 80.585 6.44C82.057 6.44 83.081 7.256 83.081 8.648C83.081 9.992 82.041 10.84 80.585 10.84C79.129 10.84 78.089 9.992 78.089 8.648ZM78.505 15.736C77.993 15.32 77.737 14.744 77.737 14.008C77.737 13.272 77.993 12.696 78.505 12.296C79.017 11.88 79.705 11.672 80.585 11.672C81.465 11.672 82.153 11.88 82.665 12.296C83.177 12.696 83.433 13.272 83.433 14.008C83.433 14.744 83.177 15.32 82.665 15.736C82.153 16.152 81.465 16.36 80.585 16.36C79.705 16.36 79.017 16.152 78.505 15.736ZM85.2689 6.808L85.4769 7.544L88.0689 6.728V17H88.9169V5.8H88.1969L85.2689 6.808ZM98.6774 17V16.184H92.8534L96.3254 12.616C97.6534 11.272 98.4214 10.12 98.4214 8.84C98.4214 7.848 98.0854 7.064 97.4294 6.488C96.7734 5.912 96.0054 5.624 95.0934 5.624C93.6054 5.624 92.3574 6.36 91.7014 7.704L92.4214 8.136C92.9494 7 93.8454 6.44 95.0934 6.44C96.5014 6.44 97.5574 7.352 97.5574 8.84C97.5574 9.704 96.9494 10.76 95.7494 12.008L91.6374 16.232V17H98.6774ZM107.179 12.44V11.672H101.419V12.44H107.179ZM108.441 6.6H114.345L109.993 17H110.873L115.225 6.6V5.8H108.441V6.6ZM123.901 6.6V5.8H117.453V6.6H122.925L120.093 10.616L120.461 11.176H120.685L120.701 11.16V11.176C121.549 11.176 122.237 11.416 122.765 11.88C123.309 12.344 123.581 12.984 123.581 13.768C123.581 15.352 122.397 16.36 120.733 16.36C119.325 16.36 118.269 15.736 117.869 14.632L117.165 15.048C117.693 16.392 119.069 17.176 120.733 17.176C121.773 17.176 122.637 16.872 123.357 16.264C124.077 15.64 124.429 14.808 124.429 13.768C124.429 12.808 124.125 12.04 123.517 11.464C122.909 10.888 122.141 10.552 121.197 10.456L123.901 6.6ZM125.781 6.808L125.989 7.544L128.581 6.728V17H129.429V5.8H128.709L125.781 6.808ZM138.806 6.6V5.8H132.358V6.6H137.83L134.998 10.616L135.366 11.176H135.59L135.606 11.16V11.176C136.454 11.176 137.142 11.416 137.67 11.88C138.214 12.344 138.486 12.984 138.486 13.768C138.486 15.352 137.302 16.36 135.638 16.36C134.23 16.36 133.174 15.736 132.774 14.632L132.07 15.048C132.598 16.392 133.974 17.176 135.638 17.176C136.678 17.176 137.542 16.872 138.262 16.264C138.982 15.64 139.334 14.808 139.334 13.768C139.334 12.808 139.03 12.04 138.422 11.464C137.814 10.888 137.046 10.552 136.102 10.456L138.806 6.6ZM147.879 12.44V11.672H142.119V12.44H147.879ZM157.226 13.848V10.328H156.378V13.848H151.29L155.53 5.8H154.602L150.346 13.848V14.648H156.378V17H157.226V14.648H158.666V13.848H157.226ZM167.054 6.6V5.8H160.606V6.6H166.078L163.246 10.616L163.614 11.176H163.838L163.854 11.16V11.176C164.702 11.176 165.39 11.416 165.918 11.88C166.462 12.344 166.734 12.984 166.734 13.768C166.734 15.352 165.55 16.36 163.886 16.36C162.478 16.36 161.422 15.736 161.022 14.632L160.318 15.048C160.846 16.392 162.222 17.176 163.886 17.176C164.926 17.176 165.79 16.872 166.51 16.264C167.23 15.64 167.582 14.808 167.582 13.768C167.582 12.808 167.278 12.04 166.67 11.464C166.062 10.888 165.294 10.552 164.35 10.456L167.054 6.6ZM176.703 17V16.184H170.879L174.351 12.616C175.679 11.272 176.447 10.12 176.447 8.84C176.447 7.848 176.111 7.064 175.455 6.488C174.799 5.912 174.031 5.624 173.119 5.624C171.631 5.624 170.383 6.36 169.727 7.704L170.447 8.136C170.975 7 171.871 6.44 173.119 6.44C174.527 6.44 175.583 7.352 175.583 8.84C175.583 9.704 174.975 10.76 173.775 12.008L169.663 16.232V17H176.703ZM178.325 6.808L178.533 7.544L181.125 6.728V17H181.973V5.8H181.253L178.325 6.808Z" fill="#1F3F68"/>
</g>
</svg>
