<svg width="184" height="26" viewBox="0 0 184 26" fill="none" xmlns="http://www.w3.org/2000/svg">
<g opacity="0.6">
<path d="M44.656 11.016V8.152H43.872V11.016H41.008V11.784H43.872V14.648H44.656V11.784H47.52V11.016H44.656ZM53.4593 9.8C53.0593 9.8 52.6433 9.864 52.2433 9.976L55.1073 5.8H54.1473L50.3873 11.256C49.9233 11.912 49.6993 12.648 49.6993 13.496C49.6993 14.568 50.0513 15.464 50.7553 16.152C51.4593 16.84 52.3553 17.176 53.4593 17.176C54.5633 17.176 55.4593 16.84 56.1633 16.152C56.8673 15.464 57.2193 14.568 57.2193 13.496C57.2193 12.408 56.8673 11.528 56.1633 10.84C55.4593 10.152 54.5633 9.8 53.4593 9.8ZM56.3713 13.496C56.3713 15.176 55.2033 16.36 53.4593 16.36C51.7153 16.36 50.5633 15.176 50.5633 13.496C50.5633 12.648 50.8193 11.944 51.3473 11.416C51.8753 10.888 52.5793 10.616 53.4593 10.616C54.3393 10.616 55.0433 10.888 55.5713 11.416C56.0993 11.944 56.3713 12.648 56.3713 13.496ZM65.6643 17V16.184H59.8403L63.3123 12.616C64.6403 11.272 65.4083 10.12 65.4083 8.84C65.4083 7.848 65.0723 7.064 64.4163 6.488C63.7603 5.912 62.9923 5.624 62.0803 5.624C60.5923 5.624 59.3443 6.36 58.6883 7.704L59.4083 8.136C59.9363 7 60.8323 6.44 62.0803 6.44C63.4883 6.44 64.5443 7.352 64.5443 8.84C64.5443 9.704 63.9363 10.76 62.7363 12.008L58.6243 16.232V17H65.6643ZM74.1658 12.44V11.672H68.4058V12.44H74.1658ZM82.297 11.208C83.305 10.712 83.929 9.8 83.929 8.648C83.929 7.704 83.609 6.952 82.953 6.424C82.313 5.896 81.529 5.624 80.585 5.624C79.641 5.624 78.857 5.896 78.201 6.424C77.561 6.952 77.241 7.704 77.241 8.648C77.241 9.8 77.865 10.712 78.873 11.208C77.641 11.704 76.873 12.728 76.873 14.008C76.873 15 77.225 15.784 77.913 16.344C78.601 16.904 79.497 17.176 80.585 17.176C81.673 17.176 82.569 16.904 83.257 16.344C83.945 15.784 84.297 15 84.297 14.008C84.297 12.728 83.529 11.704 82.297 11.208ZM78.089 8.648C78.089 7.256 79.113 6.44 80.585 6.44C82.057 6.44 83.081 7.256 83.081 8.648C83.081 9.992 82.041 10.84 80.585 10.84C79.129 10.84 78.089 9.992 78.089 8.648ZM78.505 15.736C77.993 15.32 77.737 14.744 77.737 14.008C77.737 13.272 77.993 12.696 78.505 12.296C79.017 11.88 79.705 11.672 80.585 11.672C81.465 11.672 82.153 11.88 82.665 12.296C83.177 12.696 83.433 13.272 83.433 14.008C83.433 14.744 83.177 15.32 82.665 15.736C82.153 16.152 81.465 16.36 80.585 16.36C79.705 16.36 79.017 16.152 78.505 15.736ZM85.2689 6.808L85.4769 7.544L88.0689 6.728V17H88.9169V5.8H88.1969L85.2689 6.808ZM91.3174 6.6H97.2214L92.8694 17H93.7494L98.1014 6.6V5.8H91.3174V6.6ZM106.101 12.44V11.672H100.341V12.44H106.101ZM116.248 15.608C116.984 14.568 117.352 13.16 117.352 11.4C117.352 9.64 116.984 8.232 116.248 7.192C115.512 6.152 114.488 5.624 113.16 5.624C111.832 5.624 110.808 6.152 110.072 7.192C109.336 8.232 108.968 9.64 108.968 11.4C108.968 13.16 109.336 14.568 110.072 15.608C110.808 16.648 111.832 17.176 113.16 17.176C114.488 17.176 115.512 16.648 116.248 15.608ZM110.712 15.064C110.12 14.184 109.832 12.968 109.832 11.4C109.832 9.832 110.12 8.616 110.712 7.752C111.304 6.872 112.12 6.44 113.16 6.44C114.2 6.44 115.016 6.872 115.608 7.752C116.2 8.616 116.488 9.832 116.488 11.4C116.488 12.968 116.2 14.184 115.608 15.064C115.016 15.928 114.2 16.36 113.16 16.36C112.12 16.36 111.304 15.928 110.712 15.064ZM126.966 15.608C127.702 14.568 128.07 13.16 128.07 11.4C128.07 9.64 127.702 8.232 126.966 7.192C126.23 6.152 125.206 5.624 123.878 5.624C122.55 5.624 121.526 6.152 120.79 7.192C120.054 8.232 119.686 9.64 119.686 11.4C119.686 13.16 120.054 14.568 120.79 15.608C121.526 16.648 122.55 17.176 123.878 17.176C125.206 17.176 126.23 16.648 126.966 15.608ZM121.43 15.064C120.838 14.184 120.55 12.968 120.55 11.4C120.55 9.832 120.838 8.616 121.43 7.752C122.022 6.872 122.838 6.44 123.878 6.44C124.918 6.44 125.734 6.872 126.326 7.752C126.918 8.616 127.206 9.832 127.206 11.4C127.206 12.968 126.918 14.184 126.326 15.064C125.734 15.928 124.918 16.36 123.878 16.36C122.838 16.36 122.022 15.928 121.43 15.064ZM137.684 15.608C138.42 14.568 138.788 13.16 138.788 11.4C138.788 9.64 138.42 8.232 137.684 7.192C136.948 6.152 135.924 5.624 134.596 5.624C133.268 5.624 132.244 6.152 131.508 7.192C130.772 8.232 130.404 9.64 130.404 11.4C130.404 13.16 130.772 14.568 131.508 15.608C132.244 16.648 133.268 17.176 134.596 17.176C135.924 17.176 136.948 16.648 137.684 15.608ZM132.148 15.064C131.556 14.184 131.268 12.968 131.268 11.4C131.268 9.832 131.556 8.616 132.148 7.752C132.74 6.872 133.556 6.44 134.596 6.44C135.636 6.44 136.452 6.872 137.044 7.752C137.636 8.616 137.924 9.832 137.924 11.4C137.924 12.968 137.636 14.184 137.044 15.064C136.452 15.928 135.636 16.36 134.596 16.36C133.556 16.36 132.74 15.928 132.148 15.064ZM147.426 12.44V11.672H141.666V12.44H147.426ZM149.718 6.808L149.926 7.544L152.518 6.728V17H153.366V5.8H152.646L149.718 6.808ZM163.126 17V16.184H157.302L160.774 12.616C162.102 11.272 162.87 10.12 162.87 8.84C162.87 7.848 162.534 7.064 161.878 6.488C161.222 5.912 160.454 5.624 159.542 5.624C158.054 5.624 156.806 6.36 156.15 7.704L156.87 8.136C157.398 7 158.294 6.44 159.542 6.44C160.95 6.44 162.006 7.352 162.006 8.84C162.006 9.704 161.398 10.76 160.198 12.008L156.086 16.232V17H163.126ZM171.663 6.6V5.8H165.215V6.6H170.687L167.855 10.616L168.223 11.176H168.447L168.463 11.16V11.176C169.311 11.176 169.999 11.416 170.527 11.88C171.071 12.344 171.343 12.984 171.343 13.768C171.343 15.352 170.159 16.36 168.495 16.36C167.087 16.36 166.031 15.736 165.631 14.632L164.927 15.048C165.455 16.392 166.831 17.176 168.495 17.176C169.535 17.176 170.399 16.872 171.119 16.264C171.839 15.64 172.191 14.808 172.191 13.768C172.191 12.808 171.887 12.04 171.279 11.464C170.671 10.888 169.903 10.552 168.959 10.456L171.663 6.6ZM181.225 13.848V10.328H180.377V13.848H175.289L179.529 5.8H178.601L174.345 13.848V14.648H180.377V17H181.225V14.648H182.665V13.848H181.225Z" fill="#1F3F68"/>
<path d="M6.62 11.79C8.06 14.62 10.38 16.93 13.21 18.38L15.41 16.18C15.68 15.91 16.08 15.82 16.43 15.94C17.55 16.31 18.76 16.51 20 16.51C20.55 16.51 21 16.96 21 17.51V21C21 21.55 20.55 22 20 22C10.61 22 3 14.39 3 5C3 4.45 3.45 4 4 4H7.5C8.05 4 8.5 4.45 8.5 5C8.5 6.25 8.7 7.45 9.07 8.57C9.18 8.92 9.1 9.31 8.82 9.59L6.62 11.79Z" fill="#1F3F68"/>
</g>
</svg>
