<svg width="127" height="30" viewBox="0 0 127 30" fill="none" xmlns="http://www.w3.org/2000/svg">
<path d="M2.59 9.2H0.98V19H6.58V17.46H2.59V9.2ZM14.9202 16.144C14.9622 15.878 14.9762 15.668 14.9762 15.514C14.9762 14.492 14.6402 13.61 13.9822 12.896C13.3242 12.182 12.4842 11.818 11.4622 11.818C10.3842 11.818 9.48817 12.168 8.80217 12.882C8.11617 13.582 7.76617 14.45 7.76617 15.5C7.76617 16.564 8.11617 17.446 8.81617 18.146C9.51617 18.832 10.4402 19.182 11.5742 19.182C12.9322 19.182 13.9542 18.678 14.6402 17.656L13.3942 16.928C12.9882 17.502 12.3862 17.796 11.5882 17.796C10.4262 17.796 9.57217 17.208 9.34817 16.144H14.9202ZM9.33417 14.912C9.54417 13.848 10.3282 13.19 11.4482 13.19C12.4422 13.19 13.2402 13.778 13.4502 14.912H9.33417ZM22.5096 12.994C21.9356 12.21 21.1236 11.818 20.0596 11.818C19.0936 11.818 18.2816 12.168 17.5956 12.882C16.9096 13.596 16.5736 14.464 16.5736 15.5C16.5736 16.522 16.9096 17.404 17.5956 18.118C18.2816 18.832 19.0936 19.182 20.0596 19.182C21.1236 19.182 21.9356 18.79 22.5096 17.992V19H24.0216V12H22.5096V12.994ZM18.7156 17.11C18.2956 16.676 18.0856 16.144 18.0856 15.5C18.0856 14.856 18.2956 14.324 18.7156 13.904C19.1356 13.47 19.6676 13.26 20.2976 13.26C20.9276 13.26 21.4596 13.47 21.8796 13.904C22.2996 14.324 22.5096 14.856 22.5096 15.5C22.5096 16.144 22.2996 16.676 21.8796 17.11C21.4596 17.53 20.9276 17.74 20.2976 17.74C19.6676 17.74 19.1356 17.53 18.7156 17.11ZM27.996 12H26.484V19H27.996V15.472C27.996 14.758 28.206 14.24 28.64 13.932C29.074 13.61 29.578 13.47 30.152 13.512V11.874C29.102 11.874 28.374 12.308 27.996 13.176V12ZM35.6511 11.818C34.6571 11.818 33.9431 12.182 33.4811 12.896V12H31.9691V19H33.4811V15.248C33.4811 13.89 34.1951 13.232 35.2591 13.232C36.2251 13.232 36.8271 13.806 36.8271 14.856V19H38.3391V14.702C38.3391 12.91 37.2611 11.818 35.6511 11.818ZM52.5112 11.818C51.5452 11.818 50.8312 12.182 50.3692 12.924C49.9352 12.182 49.2772 11.818 48.3812 11.818C47.4992 11.818 46.8272 12.154 46.3792 12.84V12H44.8672V19H46.3792V15.08C46.3792 13.862 47.0232 13.232 47.9332 13.232C48.7732 13.232 49.2492 13.792 49.2492 14.758V19H50.7612V15.08C50.7612 13.848 51.3492 13.232 52.2872 13.232C53.1272 13.232 53.6452 13.792 53.6452 14.758V19H55.1572V14.66C55.1572 12.924 54.0932 11.818 52.5112 11.818ZM60.7794 19.182C61.8154 19.182 62.6834 18.832 63.3974 18.118C64.1114 17.404 64.4754 16.536 64.4754 15.5C64.4754 14.464 64.1114 13.596 63.3974 12.882C62.6834 12.168 61.8154 11.818 60.7794 11.818C59.7574 11.818 58.8754 12.168 58.1614 12.882C57.4474 13.596 57.0834 14.464 57.0834 15.5C57.0834 16.536 57.4474 17.404 58.1614 18.118C58.8754 18.832 59.7574 19.182 60.7794 19.182ZM59.2254 17.082C58.8054 16.662 58.5954 16.13 58.5954 15.5C58.5954 14.87 58.8054 14.338 59.2254 13.918C59.6454 13.498 60.1634 13.288 60.7794 13.288C61.3954 13.288 61.9134 13.498 62.3334 13.918C62.7534 14.338 62.9634 14.87 62.9634 15.5C62.9634 16.13 62.7534 16.662 62.3334 17.082C61.9134 17.502 61.3954 17.712 60.7794 17.712C60.1634 17.712 59.6454 17.502 59.2254 17.082ZM68.0545 12H66.5425V19H68.0545V15.472C68.0545 14.758 68.2645 14.24 68.6985 13.932C69.1325 13.61 69.6365 13.47 70.2105 13.512V11.874C69.1605 11.874 68.4325 12.308 68.0545 13.176V12ZM78.4616 16.144C78.5036 15.878 78.5176 15.668 78.5176 15.514C78.5176 14.492 78.1816 13.61 77.5236 12.896C76.8656 12.182 76.0256 11.818 75.0036 11.818C73.9256 11.818 73.0296 12.168 72.3436 12.882C71.6576 13.582 71.3076 14.45 71.3076 15.5C71.3076 16.564 71.6576 17.446 72.3576 18.146C73.0576 18.832 73.9816 19.182 75.1156 19.182C76.4736 19.182 77.4956 18.678 78.1816 17.656L76.9356 16.928C76.5296 17.502 75.9276 17.796 75.1296 17.796C73.9676 17.796 73.1136 17.208 72.8896 16.144H78.4616ZM72.8756 14.912C73.0856 13.848 73.8696 13.19 74.9896 13.19C75.9836 13.19 76.7816 13.778 76.9916 14.912H72.8756Z" fill="#5A98D0"/>
<path d="M115 7L113.59 8.41L119.17 14H107V16H119.17L113.59 21.59L115 23L123 15L115 7Z" fill="#5A98D0"/>
</svg>
