<svg width="940" height="256" viewBox="0 0 940 256" fill="none" xmlns="http://www.w3.org/2000/svg">
<path d="M49.7 55H47.4V69H55.4V66.8H49.7V55ZM68.3086 67.16C69.7286 65.74 70.4286 64.02 70.4286 62C70.4286 59.98 69.7286 58.26 68.3086 56.86C66.9086 55.44 65.1886 54.74 63.1686 54.74C61.1486 54.74 59.4286 55.44 58.0086 56.86C56.6086 58.26 55.9086 59.98 55.9086 62C55.9086 64.02 56.6086 65.74 58.0086 67.16C59.4286 68.56 61.1486 69.26 63.1686 69.26C65.1886 69.26 66.9086 68.56 68.3086 67.16ZM59.6286 65.6C58.6886 64.64 58.2086 63.44 58.2086 62C58.2086 60.56 58.6886 59.36 59.6286 58.42C60.5886 57.46 61.7686 56.98 63.1686 56.98C64.5686 56.98 65.7486 57.46 66.6886 58.42C67.6486 59.36 68.1286 60.56 68.1286 62C68.1286 63.44 67.6486 64.64 66.6886 65.6C65.7486 66.54 64.5686 67.02 63.1686 67.02C61.7686 67.02 60.5886 66.54 59.6286 65.6ZM79.5466 61.76V63.82H84.2266C83.8066 65.76 82.1866 67.02 79.7066 67.02C78.1666 67.02 76.9066 66.54 75.9466 65.6C75.0066 64.66 74.5266 63.46 74.5266 62.02C74.5266 60.58 75.0066 59.38 75.9466 58.42C76.8866 57.46 78.1066 56.98 79.5666 56.98C81.3866 56.98 82.9466 57.86 83.6866 59.2L85.6666 58.06C84.4666 56.04 82.1866 54.74 79.5666 54.74C77.4866 54.74 75.7466 55.44 74.3266 56.86C72.9266 58.26 72.2266 59.98 72.2266 62C72.2266 64.04 72.9266 65.76 74.3266 67.16C75.7466 68.56 77.5266 69.26 79.6866 69.26C81.7266 69.26 83.3866 68.66 84.6466 67.44C85.9066 66.22 86.5466 64.64 86.5466 62.72V61.76H79.5466ZM100.749 67.16C102.169 65.74 102.869 64.02 102.869 62C102.869 59.98 102.169 58.26 100.749 56.86C99.3492 55.44 97.6292 54.74 95.6092 54.74C93.5892 54.74 91.8692 55.44 90.4492 56.86C89.0492 58.26 88.3492 59.98 88.3492 62C88.3492 64.02 89.0492 65.74 90.4492 67.16C91.8692 68.56 93.5892 69.26 95.6092 69.26C97.6292 69.26 99.3492 68.56 100.749 67.16ZM92.0692 65.6C91.1292 64.64 90.6492 63.44 90.6492 62C90.6492 60.56 91.1292 59.36 92.0692 58.42C93.0292 57.46 94.2092 56.98 95.6092 56.98C97.0092 56.98 98.1892 57.46 99.1292 58.42C100.089 59.36 100.569 60.56 100.569 62C100.569 63.44 100.089 64.64 99.1292 65.6C98.1892 66.54 97.0092 67.02 95.6092 67.02C94.2092 67.02 93.0292 66.54 92.0692 65.6ZM117.387 69.26C118.667 69.26 119.847 68.96 120.907 68.36C121.987 67.74 122.827 66.92 123.407 65.9L121.407 64.76C120.687 66.14 119.147 67.02 117.387 67.02C115.887 67.02 114.687 66.54 113.747 65.6C112.827 64.66 112.367 63.46 112.367 62C112.367 60.54 112.827 59.34 113.747 58.4C114.687 57.46 115.887 56.98 117.387 56.98C119.147 56.98 120.667 57.86 121.407 59.24L123.407 58.08C122.207 56.02 119.927 54.74 117.387 54.74C115.287 54.74 113.527 55.44 112.147 56.84C110.767 58.22 110.067 59.94 110.067 62C110.067 64.06 110.767 65.78 112.147 67.18C113.527 68.56 115.287 69.26 117.387 69.26ZM128.018 55H125.718V69H133.718V66.8H128.018V55ZM135.825 69H138.125V55H135.825V69ZM143.623 63.02H149.223V60.84H143.623V57.2H149.723V55H141.323V69H149.823V66.8H143.623V63.02ZM160.728 64.5L154.128 55H152.328V69H154.628V59.5L161.228 69H163.028V55H160.728V64.5ZM165.124 55V57.2H169.084V69H171.384V57.2H175.324V55H165.124ZM181.685 56.3L182.245 58.26L185.065 57.46V69H187.365V55H185.365L181.685 56.3Z" fill="#F2F2F2"/>
<path d="M284.7 55H282.4V69H290.4V66.8H284.7V55ZM303.309 67.16C304.729 65.74 305.429 64.02 305.429 62C305.429 59.98 304.729 58.26 303.309 56.86C301.909 55.44 300.189 54.74 298.169 54.74C296.149 54.74 294.429 55.44 293.009 56.86C291.609 58.26 290.909 59.98 290.909 62C290.909 64.02 291.609 65.74 293.009 67.16C294.429 68.56 296.149 69.26 298.169 69.26C300.189 69.26 301.909 68.56 303.309 67.16ZM294.629 65.6C293.689 64.64 293.209 63.44 293.209 62C293.209 60.56 293.689 59.36 294.629 58.42C295.589 57.46 296.769 56.98 298.169 56.98C299.569 56.98 300.749 57.46 301.689 58.42C302.649 59.36 303.129 60.56 303.129 62C303.129 63.44 302.649 64.64 301.689 65.6C300.749 66.54 299.569 67.02 298.169 67.02C296.769 67.02 295.589 66.54 294.629 65.6ZM314.547 61.76V63.82H319.227C318.807 65.76 317.187 67.02 314.707 67.02C313.167 67.02 311.907 66.54 310.947 65.6C310.007 64.66 309.527 63.46 309.527 62.02C309.527 60.58 310.007 59.38 310.947 58.42C311.887 57.46 313.107 56.98 314.567 56.98C316.387 56.98 317.947 57.86 318.687 59.2L320.667 58.06C319.467 56.04 317.187 54.74 314.567 54.74C312.487 54.74 310.747 55.44 309.327 56.86C307.927 58.26 307.227 59.98 307.227 62C307.227 64.04 307.927 65.76 309.327 67.16C310.747 68.56 312.527 69.26 314.687 69.26C316.727 69.26 318.387 68.66 319.647 67.44C320.907 66.22 321.547 64.64 321.547 62.72V61.76H314.547ZM335.749 67.16C337.169 65.74 337.869 64.02 337.869 62C337.869 59.98 337.169 58.26 335.749 56.86C334.349 55.44 332.629 54.74 330.609 54.74C328.589 54.74 326.869 55.44 325.449 56.86C324.049 58.26 323.349 59.98 323.349 62C323.349 64.02 324.049 65.74 325.449 67.16C326.869 68.56 328.589 69.26 330.609 69.26C332.629 69.26 334.349 68.56 335.749 67.16ZM327.069 65.6C326.129 64.64 325.649 63.44 325.649 62C325.649 60.56 326.129 59.36 327.069 58.42C328.029 57.46 329.209 56.98 330.609 56.98C332.009 56.98 333.189 57.46 334.129 58.42C335.089 59.36 335.569 60.56 335.569 62C335.569 63.44 335.089 64.64 334.129 65.6C333.189 66.54 332.009 67.02 330.609 67.02C329.209 67.02 328.029 66.54 327.069 65.6ZM352.387 69.26C353.667 69.26 354.847 68.96 355.907 68.36C356.987 67.74 357.827 66.92 358.407 65.9L356.407 64.76C355.687 66.14 354.147 67.02 352.387 67.02C350.887 67.02 349.687 66.54 348.747 65.6C347.827 64.66 347.367 63.46 347.367 62C347.367 60.54 347.827 59.34 348.747 58.4C349.687 57.46 350.887 56.98 352.387 56.98C354.147 56.98 355.667 57.86 356.407 59.24L358.407 58.08C357.207 56.02 354.927 54.74 352.387 54.74C350.287 54.74 348.527 55.44 347.147 56.84C345.767 58.22 345.067 59.94 345.067 62C345.067 64.06 345.767 65.78 347.147 67.18C348.527 68.56 350.287 69.26 352.387 69.26ZM363.018 55H360.718V69H368.718V66.8H363.018V55ZM370.825 69H373.125V55H370.825V69ZM378.623 63.02H384.223V60.84H378.623V57.2H384.723V55H376.323V69H384.823V66.8H378.623V63.02ZM395.728 64.5L389.128 55H387.328V69H389.628V59.5L396.228 69H398.028V55H395.728V64.5ZM400.124 55V57.2H404.084V69H406.384V57.2H410.324V55H400.124ZM426.265 69V66.78H420.465L423.625 63.62C425.205 62 426.005 60.48 426.005 59.06C426.005 57.72 425.565 56.68 424.685 55.9C423.805 55.12 422.745 54.74 421.525 54.74C419.585 54.74 417.885 55.72 417.005 57.58L418.945 58.72C419.505 57.56 420.365 56.98 421.545 56.98C422.805 56.98 423.705 57.78 423.705 59.14C423.705 60 423.105 61.04 421.925 62.22L417.045 67.2V69H426.265Z" fill="white"/>
<path d="M519.7 55H517.4V69H525.4V66.8H519.7V55ZM538.309 67.16C539.729 65.74 540.429 64.02 540.429 62C540.429 59.98 539.729 58.26 538.309 56.86C536.909 55.44 535.189 54.74 533.169 54.74C531.149 54.74 529.429 55.44 528.009 56.86C526.609 58.26 525.909 59.98 525.909 62C525.909 64.02 526.609 65.74 528.009 67.16C529.429 68.56 531.149 69.26 533.169 69.26C535.189 69.26 536.909 68.56 538.309 67.16ZM529.629 65.6C528.689 64.64 528.209 63.44 528.209 62C528.209 60.56 528.689 59.36 529.629 58.42C530.589 57.46 531.769 56.98 533.169 56.98C534.569 56.98 535.749 57.46 536.689 58.42C537.649 59.36 538.129 60.56 538.129 62C538.129 63.44 537.649 64.64 536.689 65.6C535.749 66.54 534.569 67.02 533.169 67.02C531.769 67.02 530.589 66.54 529.629 65.6ZM549.547 61.76V63.82H554.227C553.807 65.76 552.187 67.02 549.707 67.02C548.167 67.02 546.907 66.54 545.947 65.6C545.007 64.66 544.527 63.46 544.527 62.02C544.527 60.58 545.007 59.38 545.947 58.42C546.887 57.46 548.107 56.98 549.567 56.98C551.387 56.98 552.947 57.86 553.687 59.2L555.667 58.06C554.467 56.04 552.187 54.74 549.567 54.74C547.487 54.74 545.747 55.44 544.327 56.86C542.927 58.26 542.227 59.98 542.227 62C542.227 64.04 542.927 65.76 544.327 67.16C545.747 68.56 547.527 69.26 549.687 69.26C551.727 69.26 553.387 68.66 554.647 67.44C555.907 66.22 556.547 64.64 556.547 62.72V61.76H549.547ZM570.749 67.16C572.169 65.74 572.869 64.02 572.869 62C572.869 59.98 572.169 58.26 570.749 56.86C569.349 55.44 567.629 54.74 565.609 54.74C563.589 54.74 561.869 55.44 560.449 56.86C559.049 58.26 558.349 59.98 558.349 62C558.349 64.02 559.049 65.74 560.449 67.16C561.869 68.56 563.589 69.26 565.609 69.26C567.629 69.26 569.349 68.56 570.749 67.16ZM562.069 65.6C561.129 64.64 560.649 63.44 560.649 62C560.649 60.56 561.129 59.36 562.069 58.42C563.029 57.46 564.209 56.98 565.609 56.98C567.009 56.98 568.189 57.46 569.129 58.42C570.089 59.36 570.569 60.56 570.569 62C570.569 63.44 570.089 64.64 569.129 65.6C568.189 66.54 567.009 67.02 565.609 67.02C564.209 67.02 563.029 66.54 562.069 65.6ZM587.387 69.26C588.667 69.26 589.847 68.96 590.907 68.36C591.987 67.74 592.827 66.92 593.407 65.9L591.407 64.76C590.687 66.14 589.147 67.02 587.387 67.02C585.887 67.02 584.687 66.54 583.747 65.6C582.827 64.66 582.367 63.46 582.367 62C582.367 60.54 582.827 59.34 583.747 58.4C584.687 57.46 585.887 56.98 587.387 56.98C589.147 56.98 590.667 57.86 591.407 59.24L593.407 58.08C592.207 56.02 589.927 54.74 587.387 54.74C585.287 54.74 583.527 55.44 582.147 56.84C580.767 58.22 580.067 59.94 580.067 62C580.067 64.06 580.767 65.78 582.147 67.18C583.527 68.56 585.287 69.26 587.387 69.26ZM598.018 55H595.718V69H603.718V66.8H598.018V55ZM605.825 69H608.125V55H605.825V69ZM613.623 63.02H619.223V60.84H613.623V57.2H619.723V55H611.323V69H619.823V66.8H613.623V63.02ZM630.728 64.5L624.128 55H622.328V69H624.628V59.5L631.228 69H633.028V55H630.728V64.5ZM635.124 55V57.2H639.084V69H641.384V57.2H645.324V55H635.124ZM660.945 56.96V55H652.345V57.16H658.205L655.185 61.14L656.105 62.52H656.625C658.225 62.52 659.225 63.38 659.225 64.76C659.225 66.14 658.225 67.02 656.625 67.02C655.205 67.02 654.305 66.42 653.885 65.22L651.925 66.36C652.665 68.26 654.485 69.26 656.625 69.26C658.005 69.26 659.165 68.86 660.105 68.06C661.045 67.26 661.525 66.16 661.525 64.76C661.525 62.66 660.125 61.2 658.105 60.72L660.945 56.96Z" fill="white"/>
<path d="M754.7 55H752.4V69H760.4V66.8H754.7V55ZM773.309 67.16C774.729 65.74 775.429 64.02 775.429 62C775.429 59.98 774.729 58.26 773.309 56.86C771.909 55.44 770.189 54.74 768.169 54.74C766.149 54.74 764.429 55.44 763.009 56.86C761.609 58.26 760.909 59.98 760.909 62C760.909 64.02 761.609 65.74 763.009 67.16C764.429 68.56 766.149 69.26 768.169 69.26C770.189 69.26 771.909 68.56 773.309 67.16ZM764.629 65.6C763.689 64.64 763.209 63.44 763.209 62C763.209 60.56 763.689 59.36 764.629 58.42C765.589 57.46 766.769 56.98 768.169 56.98C769.569 56.98 770.749 57.46 771.689 58.42C772.649 59.36 773.129 60.56 773.129 62C773.129 63.44 772.649 64.64 771.689 65.6C770.749 66.54 769.569 67.02 768.169 67.02C766.769 67.02 765.589 66.54 764.629 65.6ZM784.547 61.76V63.82H789.227C788.807 65.76 787.187 67.02 784.707 67.02C783.167 67.02 781.907 66.54 780.947 65.6C780.007 64.66 779.527 63.46 779.527 62.02C779.527 60.58 780.007 59.38 780.947 58.42C781.887 57.46 783.107 56.98 784.567 56.98C786.387 56.98 787.947 57.86 788.687 59.2L790.667 58.06C789.467 56.04 787.187 54.74 784.567 54.74C782.487 54.74 780.747 55.44 779.327 56.86C777.927 58.26 777.227 59.98 777.227 62C777.227 64.04 777.927 65.76 779.327 67.16C780.747 68.56 782.527 69.26 784.687 69.26C786.727 69.26 788.387 68.66 789.647 67.44C790.907 66.22 791.547 64.64 791.547 62.72V61.76H784.547ZM805.749 67.16C807.169 65.74 807.869 64.02 807.869 62C807.869 59.98 807.169 58.26 805.749 56.86C804.349 55.44 802.629 54.74 800.609 54.74C798.589 54.74 796.869 55.44 795.449 56.86C794.049 58.26 793.349 59.98 793.349 62C793.349 64.02 794.049 65.74 795.449 67.16C796.869 68.56 798.589 69.26 800.609 69.26C802.629 69.26 804.349 68.56 805.749 67.16ZM797.069 65.6C796.129 64.64 795.649 63.44 795.649 62C795.649 60.56 796.129 59.36 797.069 58.42C798.029 57.46 799.209 56.98 800.609 56.98C802.009 56.98 803.189 57.46 804.129 58.42C805.089 59.36 805.569 60.56 805.569 62C805.569 63.44 805.089 64.64 804.129 65.6C803.189 66.54 802.009 67.02 800.609 67.02C799.209 67.02 798.029 66.54 797.069 65.6ZM822.387 69.26C823.667 69.26 824.847 68.96 825.907 68.36C826.987 67.74 827.827 66.92 828.407 65.9L826.407 64.76C825.687 66.14 824.147 67.02 822.387 67.02C820.887 67.02 819.687 66.54 818.747 65.6C817.827 64.66 817.367 63.46 817.367 62C817.367 60.54 817.827 59.34 818.747 58.4C819.687 57.46 820.887 56.98 822.387 56.98C824.147 56.98 825.667 57.86 826.407 59.24L828.407 58.08C827.207 56.02 824.927 54.74 822.387 54.74C820.287 54.74 818.527 55.44 817.147 56.84C815.767 58.22 815.067 59.94 815.067 62C815.067 64.06 815.767 65.78 817.147 67.18C818.527 68.56 820.287 69.26 822.387 69.26ZM833.018 55H830.718V69H838.718V66.8H833.018V55ZM840.825 69H843.125V55H840.825V69ZM848.623 63.02H854.223V60.84H848.623V57.2H854.723V55H846.323V69H854.823V66.8H848.623V63.02ZM865.728 64.5L859.128 55H857.328V69H859.628V59.5L866.228 69H868.028V55H865.728V64.5ZM870.124 55V57.2H874.084V69H876.384V57.2H880.324V55H870.124ZM896.085 64.34V60.7H893.765V64.34H889.385L894.205 55H891.705L886.885 64.34V66.48H893.765V69H896.085V66.48H897.685V64.34H896.085Z" fill="white"/>
<path d="M49.7 183H47.4V197H55.4V194.8H49.7V183ZM68.3086 195.16C69.7286 193.74 70.4286 192.02 70.4286 190C70.4286 187.98 69.7286 186.26 68.3086 184.86C66.9086 183.44 65.1886 182.74 63.1686 182.74C61.1486 182.74 59.4286 183.44 58.0086 184.86C56.6086 186.26 55.9086 187.98 55.9086 190C55.9086 192.02 56.6086 193.74 58.0086 195.16C59.4286 196.56 61.1486 197.26 63.1686 197.26C65.1886 197.26 66.9086 196.56 68.3086 195.16ZM59.6286 193.6C58.6886 192.64 58.2086 191.44 58.2086 190C58.2086 188.56 58.6886 187.36 59.6286 186.42C60.5886 185.46 61.7686 184.98 63.1686 184.98C64.5686 184.98 65.7486 185.46 66.6886 186.42C67.6486 187.36 68.1286 188.56 68.1286 190C68.1286 191.44 67.6486 192.64 66.6886 193.6C65.7486 194.54 64.5686 195.02 63.1686 195.02C61.7686 195.02 60.5886 194.54 59.6286 193.6ZM79.5466 189.76V191.82H84.2266C83.8066 193.76 82.1866 195.02 79.7066 195.02C78.1666 195.02 76.9066 194.54 75.9466 193.6C75.0066 192.66 74.5266 191.46 74.5266 190.02C74.5266 188.58 75.0066 187.38 75.9466 186.42C76.8866 185.46 78.1066 184.98 79.5666 184.98C81.3866 184.98 82.9466 185.86 83.6866 187.2L85.6666 186.06C84.4666 184.04 82.1866 182.74 79.5666 182.74C77.4866 182.74 75.7466 183.44 74.3266 184.86C72.9266 186.26 72.2266 187.98 72.2266 190C72.2266 192.04 72.9266 193.76 74.3266 195.16C75.7466 196.56 77.5266 197.26 79.6866 197.26C81.7266 197.26 83.3866 196.66 84.6466 195.44C85.9066 194.22 86.5466 192.64 86.5466 190.72V189.76H79.5466ZM100.749 195.16C102.169 193.74 102.869 192.02 102.869 190C102.869 187.98 102.169 186.26 100.749 184.86C99.3492 183.44 97.6292 182.74 95.6092 182.74C93.5892 182.74 91.8692 183.44 90.4492 184.86C89.0492 186.26 88.3492 187.98 88.3492 190C88.3492 192.02 89.0492 193.74 90.4492 195.16C91.8692 196.56 93.5892 197.26 95.6092 197.26C97.6292 197.26 99.3492 196.56 100.749 195.16ZM92.0692 193.6C91.1292 192.64 90.6492 191.44 90.6492 190C90.6492 188.56 91.1292 187.36 92.0692 186.42C93.0292 185.46 94.2092 184.98 95.6092 184.98C97.0092 184.98 98.1892 185.46 99.1292 186.42C100.089 187.36 100.569 188.56 100.569 190C100.569 191.44 100.089 192.64 99.1292 193.6C98.1892 194.54 97.0092 195.02 95.6092 195.02C94.2092 195.02 93.0292 194.54 92.0692 193.6ZM117.387 197.26C118.667 197.26 119.847 196.96 120.907 196.36C121.987 195.74 122.827 194.92 123.407 193.9L121.407 192.76C120.687 194.14 119.147 195.02 117.387 195.02C115.887 195.02 114.687 194.54 113.747 193.6C112.827 192.66 112.367 191.46 112.367 190C112.367 188.54 112.827 187.34 113.747 186.4C114.687 185.46 115.887 184.98 117.387 184.98C119.147 184.98 120.667 185.86 121.407 187.24L123.407 186.08C122.207 184.02 119.927 182.74 117.387 182.74C115.287 182.74 113.527 183.44 112.147 184.84C110.767 186.22 110.067 187.94 110.067 190C110.067 192.06 110.767 193.78 112.147 195.18C113.527 196.56 115.287 197.26 117.387 197.26ZM128.018 183H125.718V197H133.718V194.8H128.018V183ZM135.825 197H138.125V183H135.825V197ZM143.623 191.02H149.223V188.84H143.623V185.2H149.723V183H141.323V197H149.823V194.8H143.623V191.02ZM160.728 192.5L154.128 183H152.328V197H154.628V187.5L161.228 197H163.028V183H160.728V192.5ZM165.124 183V185.2H169.084V197H171.384V185.2H175.324V183H165.124ZM185.165 188.28L185.405 185.16H191.085V183H183.285L182.745 190.52H186.825C188.365 190.52 189.385 191.38 189.385 192.76C189.385 194.14 188.365 195.02 186.785 195.02C185.305 195.02 184.385 194.38 184.005 193.12L182.025 194.26C182.745 196.2 184.565 197.26 186.785 197.26C188.165 197.26 189.325 196.86 190.265 196.06C191.205 195.26 191.685 194.16 191.685 192.76C191.685 191.36 191.225 190.26 190.305 189.48C189.385 188.68 188.265 188.28 186.925 188.28H185.165Z" fill="white"/>
<path d="M284.7 183H282.4V197H290.4V194.8H284.7V183ZM303.309 195.16C304.729 193.74 305.429 192.02 305.429 190C305.429 187.98 304.729 186.26 303.309 184.86C301.909 183.44 300.189 182.74 298.169 182.74C296.149 182.74 294.429 183.44 293.009 184.86C291.609 186.26 290.909 187.98 290.909 190C290.909 192.02 291.609 193.74 293.009 195.16C294.429 196.56 296.149 197.26 298.169 197.26C300.189 197.26 301.909 196.56 303.309 195.16ZM294.629 193.6C293.689 192.64 293.209 191.44 293.209 190C293.209 188.56 293.689 187.36 294.629 186.42C295.589 185.46 296.769 184.98 298.169 184.98C299.569 184.98 300.749 185.46 301.689 186.42C302.649 187.36 303.129 188.56 303.129 190C303.129 191.44 302.649 192.64 301.689 193.6C300.749 194.54 299.569 195.02 298.169 195.02C296.769 195.02 295.589 194.54 294.629 193.6ZM314.547 189.76V191.82H319.227C318.807 193.76 317.187 195.02 314.707 195.02C313.167 195.02 311.907 194.54 310.947 193.6C310.007 192.66 309.527 191.46 309.527 190.02C309.527 188.58 310.007 187.38 310.947 186.42C311.887 185.46 313.107 184.98 314.567 184.98C316.387 184.98 317.947 185.86 318.687 187.2L320.667 186.06C319.467 184.04 317.187 182.74 314.567 182.74C312.487 182.74 310.747 183.44 309.327 184.86C307.927 186.26 307.227 187.98 307.227 190C307.227 192.04 307.927 193.76 309.327 195.16C310.747 196.56 312.527 197.26 314.687 197.26C316.727 197.26 318.387 196.66 319.647 195.44C320.907 194.22 321.547 192.64 321.547 190.72V189.76H314.547ZM335.749 195.16C337.169 193.74 337.869 192.02 337.869 190C337.869 187.98 337.169 186.26 335.749 184.86C334.349 183.44 332.629 182.74 330.609 182.74C328.589 182.74 326.869 183.44 325.449 184.86C324.049 186.26 323.349 187.98 323.349 190C323.349 192.02 324.049 193.74 325.449 195.16C326.869 196.56 328.589 197.26 330.609 197.26C332.629 197.26 334.349 196.56 335.749 195.16ZM327.069 193.6C326.129 192.64 325.649 191.44 325.649 190C325.649 188.56 326.129 187.36 327.069 186.42C328.029 185.46 329.209 184.98 330.609 184.98C332.009 184.98 333.189 185.46 334.129 186.42C335.089 187.36 335.569 188.56 335.569 190C335.569 191.44 335.089 192.64 334.129 193.6C333.189 194.54 332.009 195.02 330.609 195.02C329.209 195.02 328.029 194.54 327.069 193.6ZM352.387 197.26C353.667 197.26 354.847 196.96 355.907 196.36C356.987 195.74 357.827 194.92 358.407 193.9L356.407 192.76C355.687 194.14 354.147 195.02 352.387 195.02C350.887 195.02 349.687 194.54 348.747 193.6C347.827 192.66 347.367 191.46 347.367 190C347.367 188.54 347.827 187.34 348.747 186.4C349.687 185.46 350.887 184.98 352.387 184.98C354.147 184.98 355.667 185.86 356.407 187.24L358.407 186.08C357.207 184.02 354.927 182.74 352.387 182.74C350.287 182.74 348.527 183.44 347.147 184.84C345.767 186.22 345.067 187.94 345.067 190C345.067 192.06 345.767 193.78 347.147 195.18C348.527 196.56 350.287 197.26 352.387 197.26ZM363.018 183H360.718V197H368.718V194.8H363.018V183ZM370.825 197H373.125V183H370.825V197ZM378.623 191.02H384.223V188.84H378.623V185.2H384.723V183H376.323V197H384.823V194.8H378.623V191.02ZM395.728 192.5L389.128 183H387.328V197H389.628V187.5L396.228 197H398.028V183H395.728V192.5ZM400.124 183V185.2H404.084V197H406.384V185.2H410.324V183H400.124ZM421.625 187.7L424.825 183H422.205L417.765 189.66C417.205 190.48 416.925 191.42 416.925 192.48C416.925 193.9 417.385 195.04 418.305 195.94C419.225 196.82 420.425 197.26 421.885 197.26C423.345 197.26 424.525 196.82 425.445 195.94C426.365 195.04 426.825 193.9 426.825 192.48C426.825 191.06 426.365 189.92 425.445 189.04C424.525 188.14 423.345 187.7 421.885 187.7H421.625ZM421.885 195.08C420.305 195.08 419.225 194.06 419.225 192.48C419.225 190.9 420.305 189.88 421.885 189.88C423.425 189.88 424.525 190.9 424.525 192.48C424.525 194.06 423.425 195.08 421.885 195.08Z" fill="white"/>
<path d="M519.7 183H517.4V197H525.4V194.8H519.7V183ZM538.309 195.16C539.729 193.74 540.429 192.02 540.429 190C540.429 187.98 539.729 186.26 538.309 184.86C536.909 183.44 535.189 182.74 533.169 182.74C531.149 182.74 529.429 183.44 528.009 184.86C526.609 186.26 525.909 187.98 525.909 190C525.909 192.02 526.609 193.74 528.009 195.16C529.429 196.56 531.149 197.26 533.169 197.26C535.189 197.26 536.909 196.56 538.309 195.16ZM529.629 193.6C528.689 192.64 528.209 191.44 528.209 190C528.209 188.56 528.689 187.36 529.629 186.42C530.589 185.46 531.769 184.98 533.169 184.98C534.569 184.98 535.749 185.46 536.689 186.42C537.649 187.36 538.129 188.56 538.129 190C538.129 191.44 537.649 192.64 536.689 193.6C535.749 194.54 534.569 195.02 533.169 195.02C531.769 195.02 530.589 194.54 529.629 193.6ZM549.547 189.76V191.82H554.227C553.807 193.76 552.187 195.02 549.707 195.02C548.167 195.02 546.907 194.54 545.947 193.6C545.007 192.66 544.527 191.46 544.527 190.02C544.527 188.58 545.007 187.38 545.947 186.42C546.887 185.46 548.107 184.98 549.567 184.98C551.387 184.98 552.947 185.86 553.687 187.2L555.667 186.06C554.467 184.04 552.187 182.74 549.567 182.74C547.487 182.74 545.747 183.44 544.327 184.86C542.927 186.26 542.227 187.98 542.227 190C542.227 192.04 542.927 193.76 544.327 195.16C545.747 196.56 547.527 197.26 549.687 197.26C551.727 197.26 553.387 196.66 554.647 195.44C555.907 194.22 556.547 192.64 556.547 190.72V189.76H549.547ZM570.749 195.16C572.169 193.74 572.869 192.02 572.869 190C572.869 187.98 572.169 186.26 570.749 184.86C569.349 183.44 567.629 182.74 565.609 182.74C563.589 182.74 561.869 183.44 560.449 184.86C559.049 186.26 558.349 187.98 558.349 190C558.349 192.02 559.049 193.74 560.449 195.16C561.869 196.56 563.589 197.26 565.609 197.26C567.629 197.26 569.349 196.56 570.749 195.16ZM562.069 193.6C561.129 192.64 560.649 191.44 560.649 190C560.649 188.56 561.129 187.36 562.069 186.42C563.029 185.46 564.209 184.98 565.609 184.98C567.009 184.98 568.189 185.46 569.129 186.42C570.089 187.36 570.569 188.56 570.569 190C570.569 191.44 570.089 192.64 569.129 193.6C568.189 194.54 567.009 195.02 565.609 195.02C564.209 195.02 563.029 194.54 562.069 193.6ZM587.387 197.26C588.667 197.26 589.847 196.96 590.907 196.36C591.987 195.74 592.827 194.92 593.407 193.9L591.407 192.76C590.687 194.14 589.147 195.02 587.387 195.02C585.887 195.02 584.687 194.54 583.747 193.6C582.827 192.66 582.367 191.46 582.367 190C582.367 188.54 582.827 187.34 583.747 186.4C584.687 185.46 585.887 184.98 587.387 184.98C589.147 184.98 590.667 185.86 591.407 187.24L593.407 186.08C592.207 184.02 589.927 182.74 587.387 182.74C585.287 182.74 583.527 183.44 582.147 184.84C580.767 186.22 580.067 187.94 580.067 190C580.067 192.06 580.767 193.78 582.147 195.18C583.527 196.56 585.287 197.26 587.387 197.26ZM598.018 183H595.718V197H603.718V194.8H598.018V183ZM605.825 197H608.125V183H605.825V197ZM613.623 191.02H619.223V188.84H613.623V185.2H619.723V183H611.323V197H619.823V194.8H613.623V191.02ZM630.728 192.5L624.128 183H622.328V197H624.628V187.5L631.228 197H633.028V183H630.728V192.5ZM635.124 183V185.2H639.084V197H641.384V185.2H645.324V183H635.124ZM651.725 185.2H658.125L653.285 197H655.705L660.625 185V183H651.725V185.2Z" fill="white"/>
<rect opacity="0.2" x="705" y="128" width="235" height="128" fill="#1F3F68"/>
<path d="M780.34 183L776.1 190L771.88 183H769.4V197H771.7V187L775.96 194.06H776.24L780.5 187.02V197H782.8V183H780.34ZM790.571 197.26C792.051 197.26 793.291 196.76 794.311 195.74C795.331 194.72 795.851 193.48 795.851 192C795.851 190.52 795.331 189.28 794.311 188.26C793.291 187.24 792.051 186.74 790.571 186.74C789.111 186.74 787.851 187.24 786.831 188.26C785.811 189.28 785.291 190.52 785.291 192C785.291 193.48 785.811 194.72 786.831 195.74C787.851 196.76 789.111 197.26 790.571 197.26ZM788.351 194.26C787.751 193.66 787.451 192.9 787.451 192C787.451 191.1 787.751 190.34 788.351 189.74C788.951 189.14 789.691 188.84 790.571 188.84C791.451 188.84 792.191 189.14 792.791 189.74C793.391 190.34 793.691 191.1 793.691 192C793.691 192.9 793.391 193.66 792.791 194.26C792.191 194.86 791.451 195.16 790.571 195.16C789.691 195.16 788.951 194.86 788.351 194.26ZM800.365 187H798.205V197H800.365V191.96C800.365 190.94 800.665 190.2 801.285 189.76C801.905 189.3 802.625 189.1 803.445 189.16V186.82C801.945 186.82 800.905 187.44 800.365 188.68V187ZM814.632 192.92C814.692 192.54 814.712 192.24 814.712 192.02C814.712 190.56 814.232 189.3 813.292 188.28C812.352 187.26 811.152 186.74 809.692 186.74C808.152 186.74 806.872 187.24 805.892 188.26C804.912 189.26 804.412 190.5 804.412 192C804.412 193.52 804.912 194.78 805.912 195.78C806.912 196.76 808.232 197.26 809.852 197.26C811.792 197.26 813.252 196.54 814.232 195.08L812.452 194.04C811.872 194.86 811.012 195.28 809.872 195.28C808.212 195.28 806.992 194.44 806.672 192.92H814.632ZM806.652 191.16C806.952 189.64 808.072 188.7 809.672 188.7C811.092 188.7 812.232 189.54 812.532 191.16H806.652ZM829.172 197.26C830.452 197.26 831.632 196.96 832.692 196.36C833.772 195.74 834.612 194.92 835.192 193.9L833.192 192.76C832.472 194.14 830.932 195.02 829.172 195.02C827.672 195.02 826.472 194.54 825.532 193.6C824.612 192.66 824.152 191.46 824.152 190C824.152 188.54 824.612 187.34 825.532 186.4C826.472 185.46 827.672 184.98 829.172 184.98C830.932 184.98 832.452 185.86 833.192 187.24L835.192 186.08C833.992 184.02 831.712 182.74 829.172 182.74C827.072 182.74 825.312 183.44 823.932 184.84C822.552 186.22 821.852 187.94 821.852 190C821.852 192.06 822.552 193.78 823.932 195.18C825.312 196.56 827.072 197.26 829.172 197.26ZM839.621 197V182.4H837.461V197H839.621ZM844.569 185.1C845.129 184.54 845.129 183.7 844.589 183.16C844.049 182.6 843.169 182.6 842.629 183.16C842.089 183.7 842.089 184.54 842.629 185.1C843.189 185.64 844.029 185.64 844.569 185.1ZM844.689 197V187H842.529V197H844.689ZM857.257 192.92C857.317 192.54 857.337 192.24 857.337 192.02C857.337 190.56 856.857 189.3 855.917 188.28C854.977 187.26 853.777 186.74 852.317 186.74C850.777 186.74 849.497 187.24 848.517 188.26C847.537 189.26 847.037 190.5 847.037 192C847.037 193.52 847.537 194.78 848.537 195.78C849.537 196.76 850.857 197.26 852.477 197.26C854.417 197.26 855.877 196.54 856.857 195.08L855.077 194.04C854.497 194.86 853.637 195.28 852.497 195.28C850.837 195.28 849.617 194.44 849.297 192.92H857.257ZM849.277 191.16C849.577 189.64 850.697 188.7 852.297 188.7C853.717 188.7 854.857 189.54 855.157 191.16H849.277ZM864.897 186.74C863.477 186.74 862.457 187.26 861.797 188.28V187H859.637V197H861.797V191.64C861.797 189.7 862.817 188.76 864.337 188.76C865.717 188.76 866.577 189.58 866.577 191.08V197H868.737V190.86C868.737 188.3 867.197 186.74 864.897 186.74ZM877.043 187H874.563V184.2L872.403 184.84V187H870.563V189.08H872.403V193.88C872.403 196.5 873.743 197.4 877.043 197V195.06C875.403 195.14 874.563 195.16 874.563 193.88V189.08H877.043V187Z" fill="white"/>
<g opacity="0.4">
<path d="M0 128H940" stroke="white"/>
<path d="M235 0V256" stroke="white"/>
<path d="M470 0V256" stroke="white"/>
<path d="M705 0V256" stroke="white"/>
</g>
</svg>
